<svg xmlns="http://www.w3.org/2000/svg" width="3600" height="3600" viewBox="0 0 3600 3600" version="1.1"><path d="M 1823 508.990 C 1796.368 509.922, 1727.278 513.816, 1725 514.513 C 1724.175 514.766, 1717.650 515.456, 1710.500 516.047 C 1698.119 517.071, 1694.018 517.485, 1672 519.930 C 1652.155 522.135, 1646.394 522.934, 1643.007 523.951 C 1641.085 524.528, 1637.673 525, 1635.423 525 C 1633.174 525, 1628.896 525.422, 1625.917 525.937 C 1622.938 526.452, 1615.775 527.591, 1610 528.467 C 1604.225 529.344, 1597.025 530.548, 1594 531.144 C 1590.975 531.740, 1585.800 532.573, 1582.500 532.996 C 1579.200 533.420, 1574.475 534.251, 1572 534.844 C 1569.525 535.437, 1562.100 536.869, 1555.500 538.026 C 1548.900 539.184, 1539.675 540.983, 1535 542.026 C 1530.325 543.069, 1521.775 544.865, 1516 546.019 C 1510.225 547.172, 1502.575 548.804, 1499 549.645 C 1453.451 560.361, 1451.144 560.923, 1444 563.040 C 1440.425 564.100, 1435.700 565.382, 1433.500 565.890 C 1424.374 567.997, 1399.737 575.009, 1378.500 581.544 C 1371.900 583.575, 1364.250 585.844, 1361.500 586.587 C 1358.750 587.329, 1354.925 588.576, 1353 589.357 C 1351.075 590.137, 1344.100 592.452, 1337.500 594.499 C 1330.900 596.547, 1323.250 599.138, 1320.500 600.258 C 1317.750 601.377, 1313.475 602.854, 1311 603.539 C 1308.525 604.224, 1304.700 605.571, 1302.500 606.531 C 1300.300 607.491, 1296.475 608.858, 1294 609.569 C 1291.525 610.281, 1283.650 613.185, 1276.500 616.023 C 1269.350 618.862, 1260.886 622.010, 1257.692 623.018 C 1254.497 624.027, 1251.347 625.259, 1250.692 625.756 C 1250.036 626.254, 1245.450 628.148, 1240.500 629.966 C 1235.550 631.784, 1231.039 633.631, 1230.475 634.071 C 1229.912 634.511, 1227.225 635.626, 1224.504 636.550 C 1221.783 637.474, 1217.069 639.329, 1214.029 640.672 C 1210.988 642.015, 1207.600 643.502, 1206.500 643.977 C 1192.248 650.129, 1184.467 653.594, 1179.399 656.047 C 1176.043 657.671, 1172.985 659, 1172.603 659 C 1171.982 659, 1167.265 661.166, 1146.500 670.984 C 1135.846 676.022, 1097.608 694.932, 1094 696.947 C 1092.075 698.023, 1088.700 699.756, 1086.500 700.800 C 1084.300 701.844, 1077.775 705.289, 1072 708.456 C 1066.225 711.623, 1058.800 715.598, 1055.500 717.289 C 1052.200 718.981, 1048.367 721.139, 1046.982 722.085 C 1045.598 723.031, 1040.873 725.693, 1036.482 728 C 1032.092 730.307, 1028.003 732.602, 1027.395 733.099 C 1026.787 733.597, 1024.087 735.168, 1021.395 736.590 C 1018.703 738.012, 1014.250 740.650, 1011.500 742.453 C 1008.750 744.255, 1004.968 746.513, 1003.096 747.470 C 1001.224 748.428, 997.894 750.513, 995.696 752.105 C 993.498 753.697, 991.283 755, 990.774 755 C 990.264 755, 986.527 757.230, 982.469 759.956 C 978.411 762.682, 973.383 765.862, 971.296 767.022 C 964.277 770.923, 935.610 789.633, 921.500 799.523 C 918.750 801.450, 915.150 803.870, 913.500 804.901 C 906.331 809.378, 872.902 833.408, 859.107 844 C 855.884 846.475, 850.227 850.750, 846.536 853.500 C 832.681 863.822, 829.075 866.586, 825.339 869.749 C 820.195 874.102, 812.716 880.094, 805.903 885.320 C 802.824 887.681, 797.469 892.063, 794.003 895.056 C 782.721 904.800, 777.393 909.375, 768.451 917 C 756.364 927.306, 748.148 934.686, 724.475 956.500 C 687.429 990.636, 625.091 1055.906, 597.500 1089.447 C 594.750 1092.790, 591.584 1096.435, 590.464 1097.548 C 589.345 1098.661, 587.112 1101.355, 585.502 1103.536 C 583.893 1105.716, 580.759 1109.567, 578.538 1112.094 C 573.745 1117.548, 565.965 1127.295, 560.750 1134.380 C 558.004 1138.111, 557 1138.934, 557 1137.455 C 557 1136.344, 556.322 1132.975, 555.494 1129.968 C 554.666 1126.961, 553.333 1120.991, 552.532 1116.702 C 551.732 1112.413, 550.403 1106.338, 549.580 1103.202 C 548.133 1097.689, 544.452 1081.317, 539.530 1058.500 C 538.225 1052.450, 536.484 1044.575, 535.662 1041 C 534.840 1037.425, 531.843 1023.925, 529.003 1011 C 526.163 998.075, 523.181 984.575, 522.376 981 C 519.749 969.324, 517.183 957.677, 515.082 947.896 C 513.947 942.614, 511.709 934.964, 510.108 930.896 C 507.957 925.430, 507.059 921.152, 506.665 914.500 C 505.104 888.124, 484.540 863.581, 458.945 857.549 C 451.640 855.827, 434.742 855.552, 428 857.046 C 412.509 860.477, 396.420 872.272, 387.823 886.500 C 385.344 890.603, 380.373 904.042, 372.102 929 C 365.449 949.075, 359.282 967.525, 358.398 970 C 357.514 972.475, 355.688 978.100, 354.340 982.500 C 352.993 986.900, 351.075 992.300, 350.079 994.500 C 349.083 996.701, 347.947 1000.076, 347.555 1002 C 347.162 1003.925, 345.332 1009.550, 343.488 1014.500 C 341.643 1019.450, 339.827 1025.075, 339.452 1027 C 339.076 1028.925, 338.416 1030.950, 337.985 1031.500 C 337.554 1032.050, 335.996 1036.550, 334.523 1041.500 C 333.050 1046.450, 331.255 1051.625, 330.535 1053 C 329.814 1054.375, 328.248 1059.086, 327.055 1063.469 C 325.862 1067.852, 324.239 1072.802, 323.448 1074.469 C 322.658 1076.136, 321.165 1080.425, 320.131 1084 C 318.082 1091.083, 314.314 1102.152, 309.852 1114.199 C 308.283 1118.434, 306.990 1122.709, 306.978 1123.699 C 306.966 1124.690, 306.039 1127.521, 304.919 1129.992 C 303.798 1132.463, 302.040 1137.413, 301.011 1140.992 C 298.947 1148.174, 295.882 1157.320, 292.462 1166.500 C 291.232 1169.800, 288.349 1178.350, 286.054 1185.500 C 283.759 1192.650, 281.062 1200.750, 280.060 1203.500 C 276.914 1212.135, 275.836 1215.325, 273.977 1221.500 C 272.984 1224.800, 269.889 1234.025, 267.101 1242 C 264.312 1249.975, 262.021 1257.175, 262.009 1258 C 261.997 1258.825, 261.282 1260.850, 260.419 1262.500 C 259.557 1264.150, 258.223 1267.750, 257.454 1270.500 C 256.686 1273.250, 253.291 1283.600, 249.910 1293.500 C 246.529 1303.400, 243.083 1313.525, 242.252 1316 C 241.421 1318.475, 238.761 1326.350, 236.340 1333.500 C 233.920 1340.650, 231.087 1349.200, 230.046 1352.500 C 227.585 1360.299, 225.436 1366.637, 221.885 1376.572 C 220.298 1381.012, 218.997 1385.287, 218.994 1386.072 C 218.990 1386.858, 218.317 1388.787, 217.497 1390.359 C 216.676 1391.932, 215.370 1395.532, 214.593 1398.359 C 212.834 1404.763, 207.201 1421.469, 205.428 1425.542 C 204.700 1427.215, 203.662 1430.365, 203.122 1432.542 C 202.583 1434.719, 196.868 1452.025, 190.423 1471 C 183.978 1489.975, 178.026 1507.525, 177.195 1510 C 176.364 1512.475, 173.693 1520.350, 171.260 1527.500 C 168.827 1534.650, 166.151 1542.975, 165.312 1546 C 164.474 1549.025, 163.428 1551.950, 162.986 1552.500 C 162.545 1553.050, 161.515 1555.975, 160.697 1559 C 158.530 1567.015, 148.420 1596.791, 141.513 1615.500 C 136.391 1629.375, 135.392 1632.191, 125.549 1660.500 C 120.768 1674.250, 115.723 1688.650, 114.338 1692.500 C 109.241 1706.666, 108.072 1709.987, 99.549 1734.500 C 88.992 1764.861, 86.617 1771.468, 83.016 1780.500 C 79.668 1788.897, 76.754 1797.544, 73.414 1809 C 72.050 1813.675, 69.819 1821.325, 68.455 1826 C 67.091 1830.675, 65.980 1835.851, 65.987 1837.503 C 65.994 1839.155, 65.100 1843.654, 64 1847.500 C 62.900 1851.346, 62 1856.412, 62 1858.758 C 62 1861.103, 61.280 1867.404, 60.400 1872.761 C 57.437 1890.796, 58.164 1946.183, 61.574 1962.197 C 62.358 1965.881, 63 1970.671, 63 1972.842 C 63 1975.013, 63.867 1979.649, 64.927 1983.145 C 65.987 1986.640, 67.592 1993.525, 68.495 1998.444 C 69.398 2003.363, 70.566 2008.189, 71.091 2009.169 C 71.615 2010.149, 73.168 2015.276, 74.541 2020.563 C 75.915 2025.849, 77.738 2031.527, 78.593 2033.180 C 79.448 2034.832, 81.176 2039.406, 82.433 2043.342 C 83.691 2047.279, 86.133 2053.098, 87.860 2056.273 C 89.587 2059.447, 91 2062.664, 91 2063.421 C 91 2064.178, 92.404 2067.430, 94.120 2070.648 C 95.835 2073.867, 99.209 2080.261, 101.616 2084.858 C 106.129 2093.475, 109.865 2099.603, 118.500 2112.555 C 121.250 2116.679, 124.400 2121.429, 125.500 2123.109 C 126.600 2124.789, 129.402 2128.490, 131.726 2131.332 C 134.050 2134.174, 138.458 2139.737, 141.521 2143.693 C 153.148 2158.708, 182.595 2186.208, 202.376 2200.524 C 211.308 2206.987, 218.861 2212, 219.670 2212 C 220.022 2212, 221.919 2213.237, 223.884 2214.750 C 227.416 2217.469, 239.287 2223.993, 252.116 2230.265 L 258.733 2233.500 260.379 2243 C 261.285 2248.225, 262.495 2254.975, 263.069 2258 C 263.643 2261.025, 264.512 2266.152, 265 2269.393 C 265.878 2275.217, 266.425 2277.847, 270.013 2293.500 C 271.021 2297.900, 272.323 2304.200, 272.904 2307.500 C 273.486 2310.800, 274.405 2315.300, 274.947 2317.500 C 277.131 2326.365, 279.256 2335.768, 280.145 2340.500 C 280.662 2343.250, 281.696 2347.525, 282.444 2350 C 283.191 2352.475, 284.530 2357.425, 285.419 2361 C 287.926 2371.085, 290.754 2381.658, 293.577 2391.500 C 294.997 2396.450, 297.225 2404.325, 298.528 2409 C 299.831 2413.675, 301.596 2419.637, 302.449 2422.250 C 303.302 2424.863, 304.699 2429.137, 305.553 2431.750 C 306.407 2434.363, 307.710 2438.525, 308.449 2441 C 310.531 2447.968, 314.907 2460.728, 318.054 2469 C 319.623 2473.125, 321.411 2478.472, 322.027 2480.882 C 322.644 2483.293, 323.585 2485.993, 324.120 2486.882 C 324.654 2487.772, 326.372 2492.100, 327.938 2496.500 C 329.503 2500.900, 332.364 2508.550, 334.294 2513.500 C 336.224 2518.450, 339.462 2526.775, 341.490 2532 C 343.518 2537.225, 345.512 2541.950, 345.921 2542.500 C 346.330 2543.050, 347.246 2545.075, 347.957 2547 C 349.642 2551.561, 355.104 2564.077, 360.613 2576 C 363.028 2581.225, 365.002 2585.838, 365.002 2586.250 C 365 2587.036, 380.551 2619.579, 384.234 2626.500 C 387.121 2631.922, 388.654 2634.942, 390.328 2638.500 C 391.104 2640.150, 394.357 2646.450, 397.557 2652.500 C 400.757 2658.550, 404.531 2665.750, 405.943 2668.500 C 407.355 2671.250, 410.323 2676.650, 412.538 2680.500 C 414.753 2684.350, 417.309 2688.850, 418.220 2690.500 C 421.665 2696.746, 429.310 2709.830, 434.580 2718.500 C 437.589 2723.450, 440.827 2728.805, 441.775 2730.400 C 442.724 2731.994, 445.353 2736.128, 447.619 2739.586 C 449.884 2743.044, 451.982 2746.510, 452.281 2747.289 C 452.580 2748.068, 455.332 2752.484, 458.397 2757.103 C 463.771 2765.199, 465.255 2767.409, 474.107 2780.500 C 476.338 2783.800, 480.128 2789.425, 482.529 2793 C 484.930 2796.575, 489.169 2802.650, 491.949 2806.500 C 494.729 2810.350, 499.256 2816.650, 502.009 2820.500 C 504.762 2824.350, 509.919 2831.325, 513.469 2836 C 517.018 2840.675, 521.755 2846.975, 523.996 2850 C 526.236 2853.025, 530.866 2858.966, 534.284 2863.201 C 537.703 2867.437, 541.838 2872.612, 543.473 2874.701 C 545.108 2876.791, 550.733 2883.600, 555.973 2889.833 C 561.213 2896.066, 567.300 2903.335, 569.500 2905.986 C 575.988 2913.804, 583.214 2922.183, 587.622 2927 C 589.887 2929.475, 597.704 2938.025, 604.992 2946 C 619.508 2961.883, 666.838 3009.216, 682.486 3023.500 C 687.909 3028.450, 694.856 3034.797, 697.923 3037.604 C 706.462 3045.420, 714.853 3052.800, 723.956 3060.500 C 728.507 3064.350, 734.542 3069.565, 737.366 3072.090 C 740.190 3074.614, 744.975 3078.554, 748 3080.844 C 754.417 3085.702, 762.441 3092.179, 766 3095.373 C 767.375 3096.607, 772.056 3100.291, 776.403 3103.559 C 780.749 3106.826, 787.049 3111.633, 790.403 3114.239 C 793.756 3116.846, 799.200 3120.873, 802.500 3123.189 C 805.800 3125.505, 810.880 3129.335, 813.789 3131.700 C 816.698 3134.065, 819.440 3136, 819.883 3136 C 820.326 3136, 821.996 3137.134, 823.594 3138.520 C 825.193 3139.905, 829.650 3143.206, 833.500 3145.855 C 837.350 3148.503, 844.325 3153.305, 849 3156.525 C 853.675 3159.745, 859.750 3163.844, 862.500 3165.634 C 865.250 3167.423, 869.525 3170.273, 872 3171.967 C 874.475 3173.660, 881.225 3178.030, 887 3181.678 C 892.775 3185.326, 900.425 3190.192, 904 3192.492 C 910.230 3196.501, 914.714 3199.195, 928.309 3207.100 C 931.714 3209.080, 937.042 3212.230, 940.149 3214.100 C 951.932 3221.191, 957.814 3224.511, 978.386 3235.677 C 999.322 3247.040, 1034.528 3264.994, 1052.500 3273.473 C 1072.529 3282.922, 1074.668 3283.913, 1084.500 3288.304 C 1090 3290.760, 1099.450 3294.883, 1105.500 3297.466 C 1111.550 3300.050, 1117.850 3302.767, 1119.500 3303.504 C 1121.150 3304.241, 1124.975 3305.794, 1128 3306.955 C 1131.025 3308.117, 1134.850 3309.709, 1136.500 3310.493 C 1138.150 3311.277, 1144.900 3313.973, 1151.500 3316.484 C 1158.100 3318.994, 1165.750 3321.985, 1168.500 3323.129 C 1171.250 3324.273, 1175.750 3325.858, 1178.500 3326.651 C 1181.250 3327.444, 1184.378 3328.582, 1185.452 3329.181 C 1187.290 3330.205, 1194.610 3332.798, 1212 3338.582 C 1216.125 3339.955, 1221.750 3341.930, 1224.500 3342.973 C 1227.250 3344.015, 1234.900 3346.527, 1241.500 3348.555 C 1248.100 3350.583, 1255.750 3353.067, 1258.500 3354.074 C 1261.250 3355.082, 1264.850 3356.201, 1266.500 3356.561 C 1268.150 3356.921, 1272.875 3358.260, 1277 3359.538 C 1294.254 3364.881, 1310.501 3369.461, 1321 3371.941 C 1325.125 3372.915, 1330.975 3374.447, 1334 3375.345 C 1340.807 3377.366, 1350.594 3379.840, 1358.500 3381.538 C 1361.800 3382.246, 1369.450 3384.003, 1375.500 3385.442 C 1381.550 3386.880, 1393.475 3389.429, 1402 3391.105 C 1410.525 3392.781, 1419.649 3394.816, 1422.275 3395.626 C 1424.902 3396.437, 1429.402 3397.343, 1432.275 3397.641 C 1435.149 3397.938, 1438.879 3398.598, 1440.565 3399.107 C 1442.250 3399.616, 1446.525 3400.418, 1450.065 3400.889 C 1456.353 3401.725, 1478.931 3405.451, 1496.086 3408.483 C 1500.809 3409.317, 1506.437 3410, 1508.593 3410 C 1510.749 3410, 1514.085 3410.471, 1516.007 3411.046 C 1519.818 3412.187, 1523.665 3412.673, 1564 3417.104 C 1581.705 3419.049, 1591.452 3419.945, 1611 3421.426 C 1663.394 3425.397, 1665.735 3425.507, 1720.500 3426.588 C 1783.706 3427.836, 1861.113 3424.003, 1933 3416.067 C 1948.957 3414.305, 1959.496 3413.037, 1966 3412.095 C 1969.575 3411.577, 1976.100 3410.649, 1980.500 3410.032 C 1984.900 3409.415, 1991.200 3408.434, 1994.500 3407.852 C 1997.800 3407.270, 2003.632 3406.407, 2007.461 3405.935 C 2011.289 3405.463, 2016.464 3404.625, 2018.961 3404.073 C 2023.785 3403.007, 2033.860 3401.322, 2043.130 3400.030 C 2048.724 3399.251, 2051.625 3398.670, 2066 3395.449 C 2070.125 3394.525, 2076.875 3393.196, 2081 3392.496 C 2089.109 3391.119, 2098.102 3389.179, 2124.500 3383.109 C 2146.281 3378.101, 2148.477 3377.559, 2177.500 3370.031 C 2185.750 3367.891, 2194.075 3365.618, 2196 3364.980 C 2197.925 3364.341, 2201.975 3363.212, 2205 3362.469 C 2208.025 3361.727, 2215.675 3359.515, 2222 3357.553 C 2239.684 3352.067, 2252.901 3348.009, 2259.500 3346.039 C 2265.472 3344.256, 2273.520 3341.545, 2284 3337.786 C 2287.025 3336.701, 2292.422 3334.954, 2295.993 3333.903 C 2299.564 3332.852, 2304.396 3331.094, 2306.732 3329.996 C 2309.067 3328.898, 2311.546 3327.980, 2312.239 3327.956 C 2312.933 3327.932, 2315.075 3327.306, 2317 3326.564 C 2318.925 3325.823, 2325.647 3323.352, 2331.938 3321.074 C 2338.229 3318.796, 2343.854 3316.560, 2344.438 3316.104 C 2345.022 3315.649, 2346.850 3314.953, 2348.500 3314.560 C 2350.150 3314.166, 2355.100 3312.370, 2359.500 3310.568 C 2363.900 3308.767, 2369.975 3306.279, 2373 3305.038 C 2376.025 3303.798, 2381.650 3301.523, 2385.500 3299.982 C 2399.735 3294.286, 2405.684 3291.813, 2413.250 3288.448 C 2417.512 3286.551, 2424.713 3283.359, 2429.250 3281.353 C 2449.993 3272.184, 2475.292 3260.503, 2481.500 3257.229 C 2483.150 3256.359, 2485.175 3255.313, 2486 3254.904 C 2502.849 3246.558, 2515.021 3240.406, 2526 3234.690 C 2533.425 3230.824, 2541.300 3226.783, 2543.500 3225.710 C 2545.700 3224.638, 2549.975 3222.299, 2553 3220.513 C 2556.025 3218.727, 2563.225 3214.645, 2569 3211.442 C 2581.115 3204.722, 2607.172 3189.674, 2620.662 3181.607 C 2627.721 3177.386, 2640.338 3169.472, 2649.500 3163.519 C 2653.900 3160.660, 2658.946 3157.462, 2660.714 3156.411 C 2662.482 3155.360, 2666.419 3152.813, 2669.464 3150.750 C 2681.734 3142.439, 2686.334 3139.343, 2691.384 3136 C 2701.370 3129.390, 2713.509 3120.969, 2721 3115.457 C 2725.125 3112.421, 2731.038 3108.229, 2734.139 3106.141 C 2737.240 3104.053, 2741.708 3100.804, 2744.067 3098.922 C 2746.426 3097.040, 2750.253 3094.150, 2752.572 3092.500 C 2759.518 3087.557, 2781.447 3070.631, 2795.675 3059.229 C 2799.979 3055.780, 2806.631 3050.481, 2810.458 3047.452 C 2814.284 3044.424, 2817.659 3041.563, 2817.958 3041.094 C 2818.256 3040.626, 2820.750 3038.535, 2823.500 3036.448 C 2828.186 3032.891, 2833.245 3028.588, 2846.953 3016.500 C 2850.071 3013.750, 2855.953 3008.575, 2860.024 3005 C 2894.414 2974.795, 2944.833 2925.222, 2976.569 2890.413 C 3001.957 2862.565, 3030.263 2829.452, 3048.255 2806.552 C 3059.737 2791.938, 3067.739 2781.526, 3070.828 2777.181 C 3072.658 2774.606, 3075.182 2771.375, 3076.437 2770 C 3077.693 2768.625, 3080.584 2764.800, 3082.863 2761.500 C 3085.142 2758.200, 3089.506 2752.125, 3092.560 2748 C 3095.614 2743.875, 3100.227 2737.350, 3102.812 2733.500 C 3105.397 2729.650, 3108.859 2724.743, 3110.506 2722.595 C 3112.153 2720.448, 3114.400 2717.211, 3115.500 2715.402 C 3117.427 2712.233, 3121.427 2706.214, 3130.054 2693.500 C 3134.435 2687.043, 3144.034 2672.016, 3150.500 2661.491 C 3152.700 2657.910, 3156.115 2652.397, 3158.089 2649.240 C 3165.053 2638.101, 3171.394 2627.443, 3173.997 2622.500 C 3175.446 2619.750, 3177.851 2615.577, 3179.343 2613.226 C 3180.834 2610.876, 3182.812 2607.276, 3183.738 2605.226 C 3184.664 2603.177, 3185.989 2600.803, 3186.683 2599.952 C 3188.034 2598.294, 3205.443 2565.980, 3211.865 2553.210 C 3213.998 2548.969, 3216.450 2544.150, 3217.314 2542.500 C 3218.178 2540.850, 3220.328 2536.575, 3222.092 2533 C 3223.856 2529.425, 3225.655 2525.825, 3226.090 2525 C 3226.525 2524.175, 3228.707 2519.563, 3230.940 2514.750 C 3233.173 2509.938, 3236.800 2502.237, 3239 2497.637 C 3241.200 2493.037, 3243 2488.871, 3243 2488.379 C 3243 2487.887, 3244.063 2485.463, 3245.363 2482.992 C 3246.662 2480.521, 3250.302 2472.425, 3253.452 2465 C 3256.601 2457.575, 3260.341 2448.800, 3261.762 2445.500 C 3263.183 2442.200, 3265.125 2437.475, 3266.077 2435 C 3267.028 2432.525, 3269.695 2425.775, 3272.003 2420 C 3281.010 2397.462, 3298.464 2348.711, 3302.615 2334.500 C 3303.418 2331.750, 3305.348 2325.450, 3306.905 2320.500 C 3312.281 2303.402, 3314.899 2294.487, 3315.569 2291 C 3315.938 2289.075, 3316.823 2286.359, 3317.535 2284.965 C 3318.246 2283.571, 3319.115 2280.646, 3319.465 2278.465 C 3319.815 2276.284, 3321.193 2270.900, 3322.527 2266.500 C 3325.539 2256.568, 3332.685 2227.892, 3334.489 2218.500 C 3335.228 2214.650, 3336.260 2210.375, 3336.780 2209 C 3337.301 2207.625, 3338.049 2204.250, 3338.442 2201.500 C 3338.836 2198.750, 3339.968 2193.125, 3340.957 2189 C 3341.947 2184.875, 3343.507 2177.225, 3344.424 2172 C 3346.047 2162.748, 3348.655 2148.648, 3350.991 2136.500 C 3351.626 2133.200, 3352.526 2127.575, 3352.992 2124 C 3353.459 2120.425, 3354.735 2111.425, 3355.829 2104 C 3356.923 2096.575, 3358.342 2085.775, 3358.983 2080 C 3359.624 2074.225, 3360.539 2066.575, 3361.017 2063 C 3361.494 2059.425, 3362.380 2051.325, 3362.985 2045 C 3363.590 2038.675, 3364.522 2029.900, 3365.054 2025.500 C 3369.972 1984.896, 3371.065 1879.015, 3367.150 1822.500 C 3364.240 1780.486, 3361.833 1755.413, 3358.559 1733 C 3357.715 1727.225, 3356.566 1718.675, 3356.005 1714 C 3355.444 1709.325, 3353.398 1696.500, 3351.459 1685.500 C 3349.520 1674.500, 3347.275 1661.675, 3346.471 1657 C 3345.668 1652.325, 3344.071 1644.225, 3342.925 1639 C 3341.778 1633.775, 3340.297 1626.350, 3339.635 1622.500 C 3338.972 1618.650, 3338.099 1614.966, 3337.695 1614.313 C 3337.291 1613.661, 3336.349 1609.836, 3335.603 1605.813 C 3334.856 1601.791, 3332.444 1591.525, 3330.243 1583 C 3328.042 1574.475, 3325.922 1565.700, 3325.531 1563.500 C 3325.141 1561.300, 3324.481 1559.050, 3324.066 1558.500 C 3323.304 1557.492, 3322.070 1552.917, 3319.950 1543.247 C 3319.317 1540.358, 3318.433 1537.768, 3317.987 1537.492 C 3317.540 1537.215, 3316.867 1535.079, 3316.491 1532.745 C 3315.836 1528.668, 3313.887 1522.154, 3308.491 1506 C 3307.113 1501.875, 3305.139 1495.575, 3304.103 1492 C 3303.068 1488.425, 3299.182 1476.950, 3295.468 1466.500 C 3291.754 1456.050, 3287.638 1444.350, 3286.322 1440.500 C 3285.006 1436.650, 3283.045 1431.670, 3281.964 1429.434 C 3280.884 1427.198, 3280 1424.924, 3280 1424.380 C 3280 1423.271, 3272.026 1403.203, 3268.525 1395.500 C 3267.275 1392.750, 3265.706 1388.798, 3265.038 1386.719 C 3264.371 1384.639, 3262.789 1381.039, 3261.524 1378.719 C 3260.258 1376.398, 3258.691 1372.821, 3258.040 1370.768 C 3257.389 1368.716, 3255.314 1363.867, 3253.429 1359.992 C 3251.543 1356.117, 3250 1352.690, 3250 1352.376 C 3250 1349.814, 3210.125 1270.545, 3202.831 1258.605 C 3201.186 1255.913, 3199.475 1252.763, 3199.029 1251.605 C 3198.583 1250.447, 3196.144 1246.146, 3193.609 1242.046 C 3191.074 1237.946, 3189 1234.229, 3189 1233.786 C 3189 1233.342, 3187.405 1230.710, 3185.455 1227.935 C 3183.505 1225.161, 3181.501 1221.817, 3181.002 1220.505 C 3180.503 1219.192, 3178.109 1215.054, 3175.682 1211.309 C 3173.255 1207.564, 3170.053 1202.475, 3168.568 1200 C 3167.082 1197.525, 3163.419 1191.675, 3160.428 1187 C 3157.436 1182.325, 3154.204 1177.223, 3153.244 1175.663 C 3152.285 1174.103, 3149.700 1170.109, 3147.500 1166.789 C 3145.300 1163.468, 3141.700 1157.970, 3139.500 1154.571 C 3137.300 1151.173, 3134.103 1146.616, 3132.395 1144.446 C 3130.687 1142.276, 3128.703 1139.384, 3127.987 1138.021 C 3127.271 1136.658, 3125.068 1133.390, 3123.092 1130.759 C 3121.117 1128.128, 3116.575 1121.899, 3113 1116.916 C 3109.425 1111.933, 3104.475 1105.199, 3102 1101.951 C 3099.525 1098.704, 3094.575 1092.151, 3091 1087.389 C 3087.425 1082.628, 3082.222 1075.980, 3079.438 1072.616 C 3076.654 1069.252, 3073.954 1065.778, 3073.438 1064.896 C 3072.922 1064.014, 3070.631 1061.089, 3068.347 1058.396 C 3055.529 1043.287, 3053.303 1040.605, 3051.277 1037.829 C 3050.055 1036.155, 3046.680 1032.158, 3043.777 1028.948 C 3040.875 1025.739, 3035.125 1019.188, 3031 1014.391 C 2998.192 976.244, 2940.335 918.397, 2903.085 886.500 C 2897.947 882.100, 2891.166 876.250, 2888.017 873.500 C 2879.920 866.429, 2867.295 855.798, 2862 851.592 C 2840.759 834.719, 2812.585 812.780, 2808.621 810.027 C 2807.454 809.217, 2804.052 806.742, 2801.061 804.527 C 2789.836 796.217, 2771.383 783.271, 2760.500 776.069 C 2757.200 773.886, 2752.688 770.751, 2750.472 769.104 C 2748.257 767.456, 2744.432 764.943, 2741.972 763.519 C 2739.513 762.095, 2734.725 759.033, 2731.333 756.715 C 2727.942 754.397, 2721.491 750.250, 2716.999 747.500 C 2712.507 744.750, 2706.282 740.885, 2703.166 738.911 C 2693.652 732.886, 2681.792 725.830, 2676 722.750 C 2672.975 721.141, 2669.825 719.240, 2669 718.525 C 2668.175 717.810, 2664.575 715.774, 2661 714 C 2657.425 712.226, 2653.825 710.204, 2653 709.506 C 2652.175 708.808, 2648.575 706.754, 2645 704.943 C 2641.425 703.131, 2637.375 700.891, 2636 699.966 C 2629.372 695.506, 2542.683 652, 2540.425 652 C 2540.140 652, 2536.441 650.371, 2532.204 648.380 C 2527.967 646.389, 2522.707 644.122, 2520.516 643.342 C 2518.325 642.562, 2515.523 641.262, 2514.289 640.454 C 2513.055 639.645, 2509.222 637.906, 2505.772 636.590 C 2502.323 635.274, 2495 632.306, 2489.500 629.996 C 2476.514 624.540, 2461.412 618.519, 2452 615.045 C 2447.875 613.523, 2442.700 611.498, 2440.500 610.546 C 2438.300 609.594, 2434.250 608.136, 2431.500 607.306 C 2428.750 606.475, 2426.050 605.442, 2425.500 605.010 C 2424.950 604.578, 2421.800 603.450, 2418.500 602.504 C 2415.200 601.557, 2411.600 600.308, 2410.501 599.727 C 2407.824 598.314, 2390.135 592.306, 2381.849 589.995 C 2378.190 588.975, 2373.015 587.220, 2370.349 586.095 C 2367.682 584.971, 2363.700 583.613, 2361.500 583.078 C 2359.300 582.543, 2352.325 580.500, 2346 578.538 C 2320.587 570.654, 2292.573 562.785, 2273 558.033 C 2235.889 549.022, 2225.004 546.554, 2206.500 542.950 C 2200.450 541.772, 2193.231 540.183, 2190.458 539.419 C 2187.685 538.654, 2182.735 537.615, 2179.458 537.108 C 2171.247 535.839, 2161.371 534.083, 2156 532.937 C 2153.525 532.409, 2148.269 531.578, 2144.320 531.091 C 2140.371 530.603, 2136.681 529.921, 2136.120 529.574 C 2135.559 529.227, 2131.140 528.516, 2126.300 527.993 C 2121.460 527.470, 2115.250 526.596, 2112.500 526.050 C 2109.750 525.504, 2103.450 524.585, 2098.500 524.008 C 2093.550 523.432, 2086.350 522.471, 2082.500 521.874 C 2070.134 519.957, 2050.612 517.848, 2028.500 516.043 C 2020.800 515.414, 2011.575 514.465, 2008 513.935 C 1983.739 510.336, 1870.811 507.317, 1823 508.990 M 1823.500 637.015 C 1810.850 637.485, 1785.875 638.816, 1768 639.972 C 1732.914 642.241, 1718.183 643.601, 1681 648.004 C 1676.875 648.493, 1669.675 649.329, 1665 649.864 C 1660.325 650.398, 1654.025 651.303, 1651 651.874 C 1647.975 652.446, 1641.900 653.394, 1637.500 653.982 C 1625.824 655.540, 1611.457 657.924, 1603.857 659.565 C 1600.203 660.354, 1596.153 660.994, 1594.857 660.987 C 1592.598 660.975, 1588.391 661.778, 1568.500 666.016 C 1551.223 669.698, 1534.451 673.248, 1528 674.588 C 1524.425 675.331, 1517.900 676.815, 1513.500 677.886 C 1509.100 678.956, 1501.450 680.759, 1496.500 681.892 C 1491.550 683.025, 1485.925 684.439, 1484 685.036 C 1482.075 685.632, 1473.750 687.900, 1465.500 690.077 C 1445.824 695.267, 1424.614 701.259, 1414.500 704.486 C 1411.750 705.363, 1405.675 707.265, 1401 708.714 C 1393.328 711.090, 1380.418 715.369, 1372.500 718.160 C 1370.850 718.741, 1366.800 720.058, 1363.500 721.085 C 1360.200 722.113, 1353 724.594, 1347.500 726.598 C 1342 728.602, 1334.575 731.285, 1331 732.560 C 1327.425 733.836, 1319.100 736.972, 1312.500 739.529 C 1305.900 742.087, 1298.700 744.834, 1296.500 745.634 C 1294.300 746.435, 1291.150 747.709, 1289.500 748.466 C 1287.850 749.223, 1283.575 750.973, 1280 752.355 C 1268.920 756.637, 1258.612 760.939, 1256 762.372 C 1254.625 763.125, 1251.700 764.306, 1249.500 764.996 C 1247.300 765.685, 1243.475 767.300, 1241 768.584 C 1238.525 769.869, 1231.775 772.995, 1226 775.531 C 1220.225 778.068, 1212.426 781.574, 1208.670 783.322 C 1195.791 789.315, 1133.503 820.699, 1124 825.984 C 1118.775 828.889, 1111.575 832.831, 1108 834.743 C 1104.425 836.656, 1101.050 838.573, 1100.500 839.004 C 1099.950 839.434, 1097.025 841.138, 1094 842.788 C 1082.084 849.291, 1058.486 863.412, 1041.705 874.081 C 1037.742 876.600, 1033.109 879.525, 1031.408 880.581 C 1019.206 888.154, 1000.498 900.575, 976.500 917.035 C 962.828 926.413, 920.382 957.850, 909 967.028 C 895.343 978.041, 884.071 987.103, 878.196 991.792 C 874.550 994.702, 871.327 997.409, 871.033 997.808 C 870.740 998.206, 868.925 999.801, 867 1001.352 C 861.354 1005.901, 852.955 1013.124, 847.021 1018.533 C 843.985 1021.301, 839.025 1025.635, 836 1028.163 C 814.272 1046.324, 758.631 1101.387, 729 1134.053 C 724.875 1138.601, 718.800 1145.287, 715.500 1148.911 C 712.200 1152.535, 707.250 1158.168, 704.500 1161.430 C 701.750 1164.691, 697.665 1169.416, 695.421 1171.930 C 691.334 1176.510, 672.131 1199.861, 666.500 1207.100 C 664.850 1209.221, 660.598 1214.678, 657.051 1219.228 C 646.904 1232.245, 638.631 1243.054, 637.041 1245.372 C 636.238 1246.542, 633.964 1249.525, 631.987 1252 C 630.009 1254.475, 626.721 1258.975, 624.679 1262 C 622.637 1265.025, 618.586 1270.875, 615.676 1275 C 606.303 1288.288, 597.344 1301.444, 596.211 1303.584 C 594.798 1306.253, 595.836 1312.407, 603.540 1347 C 604.948 1353.325, 606.776 1360.975, 607.601 1364 C 608.426 1367.025, 609.515 1371.750, 610.020 1374.500 C 611.804 1384.208, 614.049 1394.538, 615.058 1397.680 C 615.619 1399.429, 616.689 1404.154, 617.435 1408.180 C 618.630 1414.625, 622.459 1432.118, 629.107 1461.500 C 630.227 1466.450, 632.046 1474.550, 633.150 1479.500 C 634.254 1484.450, 635.605 1490.300, 636.153 1492.500 C 636.700 1494.700, 637.772 1499.794, 638.535 1503.820 C 639.297 1507.846, 640.381 1512.571, 640.942 1514.320 C 641.504 1516.069, 642.661 1520.875, 643.514 1525 C 647.647 1544.994, 649.170 1551.848, 652.182 1564 C 652.795 1566.475, 653.862 1571.425, 654.554 1575 C 655.245 1578.575, 656.527 1584.425, 657.403 1588 C 658.278 1591.575, 663.286 1614.075, 668.531 1638 C 673.776 1661.925, 679.650 1688.475, 681.583 1697 C 683.517 1705.525, 686.229 1717.675, 687.610 1724 C 688.992 1730.325, 690.756 1737.975, 691.531 1741 C 692.306 1744.025, 693.581 1749.650, 694.365 1753.500 C 695.148 1757.350, 696.959 1765.675, 698.388 1772 C 699.818 1778.325, 701.903 1788, 703.022 1793.500 C 704.141 1799, 705.759 1805.623, 706.617 1808.217 C 707.475 1810.812, 708.547 1818.462, 708.999 1825.217 C 709.450 1831.973, 710.301 1838.742, 710.889 1840.259 C 711.477 1841.777, 712.912 1848.752, 714.079 1855.759 C 715.245 1862.767, 716.403 1868.832, 716.651 1869.237 C 718.020 1871.474, 719.425 1896.868, 719.460 1920 C 719.497 1944.200, 718.871 1954.433, 716.039 1976 C 714.885 1984.782, 709.540 2009.396, 707.214 2016.636 C 706.178 2019.861, 704.757 2024.975, 704.055 2028 C 703.353 2031.025, 702.171 2034.471, 701.427 2035.657 C 700.684 2036.844, 699.539 2039.994, 698.883 2042.657 C 698.227 2045.321, 696.010 2051.168, 693.955 2055.652 C 691.901 2060.135, 689.671 2065.467, 689 2067.501 C 688.329 2069.534, 686.349 2073.741, 684.601 2076.849 C 682.852 2079.957, 679.922 2085.623, 678.089 2089.440 C 676.256 2093.257, 673.065 2098.882, 670.999 2101.940 C 668.933 2104.998, 666.448 2109.075, 665.476 2111 C 664.504 2112.925, 661.840 2116.975, 659.556 2120 C 657.272 2123.025, 653.763 2127.975, 651.759 2131 C 649.754 2134.025, 646.491 2138.237, 644.508 2140.360 C 642.524 2142.482, 639.143 2146.532, 636.994 2149.360 C 629.355 2159.409, 596.974 2190.643, 590.374 2194.328 C 589.343 2194.904, 585.685 2197.695, 582.244 2200.531 C 578.804 2203.368, 573.629 2206.972, 570.744 2208.542 C 567.860 2210.112, 563.506 2212.918, 561.068 2214.778 C 558.631 2216.638, 553.047 2219.965, 548.659 2222.171 C 544.271 2224.378, 539.065 2227.227, 537.091 2228.502 C 535.116 2229.778, 531.025 2231.805, 528 2233.005 C 524.975 2234.206, 518.675 2236.938, 514 2239.077 C 509.325 2241.216, 503.925 2243.273, 502 2243.648 C 500.075 2244.023, 495.703 2245.581, 492.284 2247.108 C 488.865 2248.636, 483.240 2250.409, 479.784 2251.047 C 476.328 2251.686, 471.132 2253.057, 468.237 2254.095 C 465.343 2255.132, 459.268 2256.403, 454.737 2256.919 C 450.207 2257.434, 445.150 2258.394, 443.500 2259.051 C 440.205 2260.363, 425.029 2261.848, 406.677 2262.652 L 394.853 2263.171 395.475 2267.335 C 396.526 2274.369, 407.263 2320.822, 411.114 2335 C 412.235 2339.125, 413.958 2345.650, 414.943 2349.500 C 423.426 2382.647, 446.170 2449.809, 460.490 2484 C 461.757 2487.025, 463.130 2490.625, 463.541 2492 C 463.953 2493.375, 465.574 2497.031, 467.145 2500.124 C 468.715 2503.217, 470 2506.209, 470 2506.772 C 470 2507.336, 472.062 2512.230, 474.582 2517.648 C 477.102 2523.067, 480.187 2529.750, 481.437 2532.500 C 489.094 2549.339, 505.482 2582.590, 513.967 2598.500 C 521.250 2612.156, 525.419 2619.749, 527.970 2624 C 529.454 2626.475, 533.052 2632.775, 535.965 2638 C 538.878 2643.225, 542.252 2649.075, 543.464 2651 C 544.676 2652.925, 548.282 2658.775, 551.477 2664 C 560.158 2678.194, 581.520 2710.800, 591.205 2724.637 C 593.567 2728.013, 597.291 2733.413, 599.480 2736.637 C 601.669 2739.862, 605.269 2744.834, 607.480 2747.686 C 609.691 2750.538, 613.434 2755.488, 615.798 2758.686 C 629.220 2776.845, 641.879 2792.617, 670.858 2827.286 C 682.064 2840.693, 714.486 2875.524, 733.406 2894.481 C 759.841 2920.968, 788.893 2947.898, 809.482 2965 C 811.800 2966.925, 820.444 2974.125, 828.692 2981 C 836.940 2987.875, 847.921 2996.747, 853.094 3000.715 C 858.267 3004.683, 864.525 3009.517, 867 3011.456 C 869.475 3013.396, 875.550 3017.937, 880.500 3021.548 C 885.450 3025.159, 891.975 3029.923, 895 3032.135 C 898.025 3034.346, 903.650 3038.341, 907.500 3041.011 C 911.350 3043.682, 917.425 3047.948, 921 3050.491 C 928.189 3055.606, 950.839 3070.469, 964.448 3079 C 969.273 3082.025, 975.308 3085.876, 977.860 3087.557 C 982.093 3090.347, 990.871 3095.548, 998.500 3099.788 C 1000.150 3100.705, 1004.200 3103.080, 1007.500 3105.067 C 1030.809 3119.098, 1080.190 3144.901, 1114.500 3160.976 C 1119.450 3163.295, 1126.684 3166.725, 1130.575 3168.597 C 1134.466 3170.468, 1138.066 3172.001, 1138.575 3172.002 C 1139.084 3172.003, 1141.975 3173.294, 1145 3174.871 C 1148.025 3176.447, 1152.300 3178.305, 1154.500 3178.999 C 1156.700 3179.693, 1158.963 3180.625, 1159.530 3181.070 C 1160.096 3181.515, 1163.921 3183.204, 1168.030 3184.824 C 1193.092 3194.702, 1206.725 3200.206, 1208.311 3201.088 C 1209.308 3201.641, 1212.683 3202.947, 1215.811 3203.991 C 1218.940 3205.034, 1225.325 3207.300, 1230 3209.026 C 1234.675 3210.753, 1241.200 3213.079, 1244.500 3214.197 C 1247.800 3215.314, 1253.200 3217.258, 1256.500 3218.516 C 1262.314 3220.732, 1290.198 3229.651, 1306.500 3234.509 C 1310.900 3235.820, 1316.750 3237.614, 1319.500 3238.495 C 1335.750 3243.704, 1389.876 3257.574, 1415 3262.967 C 1422.975 3264.679, 1433.196 3266.962, 1437.714 3268.040 C 1442.231 3269.118, 1446.892 3270, 1448.071 3270 C 1449.249 3270, 1453.203 3270.650, 1456.857 3271.444 C 1472.427 3274.828, 1484.559 3277.036, 1501 3279.479 C 1510.625 3280.909, 1520.975 3282.550, 1524 3283.126 C 1527.025 3283.702, 1532.875 3284.558, 1537 3285.028 C 1541.125 3285.499, 1548.775 3286.389, 1554 3287.006 C 1584.642 3290.625, 1592.736 3291.439, 1617.368 3293.377 C 1628.295 3294.237, 1637.970 3295.172, 1638.868 3295.455 C 1641.119 3296.166, 1687.206 3297.882, 1724 3298.626 C 1777.257 3299.701, 1851.672 3296.203, 1906 3290.070 C 1910.675 3289.543, 1918.775 3288.635, 1924 3288.054 C 1944.818 3285.739, 1950.726 3285.020, 1956 3284.161 C 1959.025 3283.669, 1965.550 3282.733, 1970.500 3282.082 C 1975.450 3281.430, 1982.274 3280.245, 1985.664 3279.448 C 1989.054 3278.652, 1993.557 3278, 1995.671 3278 C 1997.784 3278, 2001.085 3277.514, 2003.007 3276.919 C 2004.928 3276.324, 2009.200 3275.461, 2012.500 3274.999 C 2015.800 3274.538, 2020.525 3273.723, 2023 3273.188 C 2025.475 3272.652, 2031.775 3271.481, 2037 3270.584 C 2042.225 3269.688, 2050.550 3268.060, 2055.500 3266.967 C 2060.450 3265.874, 2072.825 3263.183, 2083 3260.987 C 2099.255 3257.479, 2110.393 3254.811, 2131 3249.490 C 2134.025 3248.709, 2140.100 3247.219, 2144.500 3246.179 C 2148.900 3245.139, 2154.750 3243.556, 2157.500 3242.660 C 2164.691 3240.319, 2176.556 3236.971, 2183.436 3235.342 C 2186.700 3234.569, 2189.850 3233.553, 2190.436 3233.084 C 2191.021 3232.615, 2193.075 3231.914, 2195 3231.526 C 2196.925 3231.139, 2202.100 3229.681, 2206.500 3228.288 C 2226.200 3222.048, 2249.002 3214.513, 2254.500 3212.427 C 2257.800 3211.175, 2261.850 3209.854, 2263.500 3209.492 C 2265.150 3209.129, 2267.850 3208.198, 2269.500 3207.422 C 2271.150 3206.645, 2278.800 3203.742, 2286.500 3200.970 C 2294.200 3198.198, 2303.031 3194.821, 2306.125 3193.465 C 2309.219 3192.109, 2312.252 3191, 2312.866 3191 C 2313.480 3191, 2317.024 3189.677, 2320.741 3188.061 C 2327.647 3185.057, 2335.079 3181.990, 2347.500 3177.016 C 2351.350 3175.474, 2358.325 3172.539, 2363 3170.493 C 2367.675 3168.447, 2374.425 3165.514, 2378 3163.975 C 2381.575 3162.436, 2386.860 3160.012, 2389.745 3158.589 C 2392.630 3157.165, 2395.240 3156, 2395.546 3156 C 2397.006 3156, 2458.614 3125.708, 2468 3120.375 C 2471.025 3118.656, 2474.625 3116.916, 2476 3116.507 C 2477.375 3116.098, 2479.175 3115.200, 2480 3114.512 C 2480.825 3113.823, 2485.100 3111.330, 2489.500 3108.972 C 2506.862 3099.665, 2520.960 3091.685, 2538.030 3081.500 C 2543.561 3078.200, 2549.755 3074.600, 2551.793 3073.500 C 2555.254 3071.632, 2557.979 3069.908, 2572.726 3060.250 C 2575.875 3058.188, 2580.072 3055.600, 2582.052 3054.500 C 2585.645 3052.504, 2593.156 3047.654, 2604.500 3040.006 C 2607.800 3037.781, 2612.300 3034.782, 2614.500 3033.342 C 2616.700 3031.901, 2622.100 3028.215, 2626.500 3025.150 C 2630.900 3022.084, 2636.975 3017.868, 2640 3015.780 C 2643.025 3013.693, 2648.875 3009.541, 2653 3006.555 C 2657.125 3003.568, 2663.425 2999.050, 2667 2996.514 C 2670.575 2993.978, 2675.525 2990.323, 2678 2988.392 C 2680.475 2986.460, 2689.700 2979.324, 2698.500 2972.533 C 2707.300 2965.742, 2715.400 2959.356, 2716.501 2958.343 C 2717.601 2957.329, 2720.301 2955.183, 2722.501 2953.572 C 2724.700 2951.962, 2728.335 2949.037, 2730.579 2947.072 C 2732.822 2945.108, 2737.945 2940.800, 2741.963 2937.500 C 2791.937 2896.461, 2860.968 2828.942, 2905 2778.033 C 2908.025 2774.536, 2912.750 2769.103, 2915.500 2765.960 C 2925.153 2754.930, 2930.097 2749.026, 2933.651 2744.285 C 2935.624 2741.653, 2938.197 2738.490, 2939.369 2737.255 C 2940.541 2736.020, 2943.975 2731.827, 2947 2727.938 C 2950.025 2724.049, 2954.756 2718.084, 2957.513 2714.683 C 2960.270 2711.282, 2963.377 2707.150, 2964.416 2705.500 C 2965.455 2703.850, 2967.605 2700.925, 2969.193 2699 C 2974.655 2692.378, 2980.754 2684.328, 2983.624 2679.955 C 2985.206 2677.545, 2989.344 2671.731, 2992.819 2667.036 C 3000.124 2657.170, 3000.802 2656.214, 3005.273 2649.500 C 3007.104 2646.750, 3011.927 2639.550, 3015.990 2633.500 C 3023.706 2622.011, 3032.197 2609.010, 3037.542 2600.500 C 3039.270 2597.750, 3042.251 2593.025, 3044.168 2590 C 3046.085 2586.975, 3049.349 2581.575, 3051.420 2578 C 3053.491 2574.425, 3057.369 2567.900, 3060.037 2563.500 C 3062.706 2559.100, 3066.309 2552.800, 3068.045 2549.500 C 3069.781 2546.200, 3071.627 2542.978, 3072.148 2542.341 C 3072.668 2541.703, 3074.365 2538.778, 3075.917 2535.841 C 3077.470 2532.903, 3083.207 2522.175, 3088.667 2512 C 3098.132 2494.363, 3108.362 2473.926, 3119.204 2451 C 3121.935 2445.225, 3125.446 2437.800, 3127.006 2434.500 C 3128.567 2431.200, 3130.140 2427.471, 3130.501 2426.212 C 3130.863 2424.954, 3132.242 2422.029, 3133.567 2419.712 C 3134.892 2417.396, 3135.981 2414.780, 3135.988 2413.899 C 3135.995 2413.018, 3137.076 2410.275, 3138.390 2407.802 C 3139.705 2405.329, 3141.806 2400.425, 3143.059 2396.903 C 3144.312 2393.381, 3145.688 2390.032, 3146.116 2389.461 C 3146.544 2388.889, 3148.292 2384.632, 3150 2380 C 3151.708 2375.368, 3153.470 2371.111, 3153.915 2370.539 C 3154.360 2369.968, 3155.043 2368.150, 3155.432 2366.500 C 3155.821 2364.850, 3157.191 2361.025, 3158.477 2358 C 3159.763 2354.975, 3161.491 2350.475, 3162.319 2348 C 3163.146 2345.525, 3165.476 2339, 3167.495 2333.500 C 3169.515 2328, 3171.841 2321.250, 3172.664 2318.500 C 3173.488 2315.750, 3174.761 2312.150, 3175.494 2310.500 C 3176.227 2308.850, 3177.566 2304.800, 3178.470 2301.500 C 3179.374 2298.200, 3180.722 2293.925, 3181.464 2292 C 3184.051 2285.295, 3195.619 2246.125, 3198.593 2234 C 3199.815 2229.020, 3201.221 2223.495, 3205.464 2207 C 3208.808 2194, 3210.149 2188.168, 3210.984 2183 C 3211.472 2179.975, 3212.540 2175.250, 3213.358 2172.500 C 3214.175 2169.750, 3215.589 2163.225, 3216.499 2158 C 3217.409 2152.775, 3218.976 2144.675, 3219.981 2140 C 3220.986 2135.325, 3222.556 2127, 3223.470 2121.500 C 3224.385 2116, 3225.747 2107.900, 3226.496 2103.500 C 3227.246 2099.100, 3228.364 2091.450, 3228.980 2086.500 C 3230.024 2078.117, 3230.775 2072.459, 3233.028 2056 C 3235.090 2040.946, 3238.522 2002.721, 3240.212 1976 C 3240.915 1964.891, 3241.433 1935.631, 3241.415 1908 C 3241.384 1858.305, 3240.384 1835.974, 3236.058 1788.342 C 3233.366 1758.713, 3225.258 1702.662, 3220.530 1681 C 3219.749 1677.425, 3218.372 1670.225, 3217.469 1665 C 3216.566 1659.775, 3215.201 1653.475, 3214.436 1651 C 3213.671 1648.525, 3212.769 1644.475, 3212.434 1642 C 3212.098 1639.525, 3211.169 1635.414, 3210.369 1632.866 C 3209.570 1630.317, 3208.517 1626.042, 3208.030 1623.366 C 3206.574 1615.366, 3204.751 1608.390, 3194.998 1573.500 C 3190.747 1558.291, 3186.383 1544.102, 3182.808 1533.862 C 3181.726 1530.761, 3180.468 1526.711, 3180.013 1524.862 C 3179.086 1521.096, 3168.530 1491.376, 3162.657 1476 C 3161.292 1472.425, 3158.557 1465.267, 3156.580 1460.093 C 3154.602 1454.919, 3152.593 1450.194, 3152.115 1449.593 C 3151.636 1448.992, 3150.913 1447.375, 3150.507 1446 C 3149.750 1443.432, 3139.466 1418.903, 3137.962 1416.077 C 3137.500 1415.210, 3135.255 1410.225, 3132.973 1405 C 3127.385 1392.205, 3100.464 1338.190, 3092.851 1324.500 C 3089.487 1318.450, 3085.163 1310.575, 3083.243 1307 C 3081.322 1303.425, 3079.183 1299.825, 3078.489 1299 C 3077.796 1298.175, 3075.988 1295.025, 3074.472 1292 C 3072.956 1288.975, 3070.655 1285.108, 3069.358 1283.406 C 3068.061 1281.704, 3067 1279.973, 3067 1279.559 C 3067 1279.145, 3064.525 1275.010, 3061.500 1270.369 C 3058.475 1265.728, 3056 1261.700, 3056 1261.417 C 3056 1261.134, 3054.264 1258.337, 3052.141 1255.201 C 3050.019 1252.066, 3043.053 1241.625, 3036.662 1232 C 3021.857 1209.702, 3010.723 1193.847, 2999.445 1179 C 2995.894 1174.325, 2991.421 1168.167, 2989.506 1165.316 C 2987.590 1162.465, 2985.538 1159.832, 2984.944 1159.466 C 2984.351 1159.099, 2981.435 1155.582, 2978.465 1151.649 C 2975.495 1147.717, 2970.802 1141.800, 2968.035 1138.500 C 2965.269 1135.200, 2961.092 1130.025, 2958.753 1127 C 2956.414 1123.975, 2953.996 1121.050, 2953.379 1120.500 C 2952.763 1119.950, 2950.263 1117.025, 2947.824 1114 C 2935.746 1099.019, 2903.223 1064.075, 2877.072 1037.981 C 2851.460 1012.425, 2813.140 977.024, 2802.767 969.337 C 2801.161 968.148, 2799.320 966.535, 2798.674 965.752 C 2798.028 964.970, 2795.250 962.583, 2792.500 960.447 C 2789.750 958.312, 2785.451 954.750, 2782.947 952.532 C 2780.443 950.315, 2773.748 944.900, 2768.070 940.500 C 2762.392 936.100, 2757.121 931.898, 2756.356 931.161 C 2755.591 930.425, 2752.323 927.950, 2749.093 925.661 C 2745.863 923.373, 2739.707 918.800, 2735.412 915.500 C 2726.499 908.651, 2716.984 901.723, 2709 896.268 C 2705.975 894.201, 2701.398 890.933, 2698.828 889.005 C 2696.259 887.077, 2692.286 884.375, 2689.999 883 C 2687.713 881.625, 2685.048 879.760, 2684.077 878.856 C 2683.106 877.952, 2680.779 876.423, 2678.906 875.458 C 2675.073 873.484, 2668.674 868.890, 2668.167 867.750 C 2667.983 867.337, 2667.308 866.991, 2666.667 866.979 C 2666.025 866.968, 2661.570 864.381, 2656.766 861.229 C 2651.962 858.078, 2645.437 853.888, 2642.266 851.918 C 2639.095 849.948, 2632.391 845.785, 2627.369 842.668 C 2622.347 839.551, 2617.890 837, 2617.463 837 C 2617.037 837, 2615.296 835.953, 2613.594 834.673 C 2611.892 833.393, 2607.575 830.758, 2604 828.818 C 2589.861 821.144, 2580.747 816.037, 2579.650 815.174 C 2578.566 814.319, 2565.161 807.227, 2542.500 795.519 C 2537 792.677, 2531.600 789.858, 2530.500 789.255 C 2527.021 787.348, 2494.861 772.148, 2484 767.278 C 2480.975 765.921, 2476.700 763.993, 2474.500 762.992 C 2462.705 757.627, 2445.019 750, 2444.373 750 C 2443.965 750, 2441.802 749.138, 2439.566 748.084 C 2434.245 745.576, 2398.654 731.566, 2393.500 729.950 C 2391.300 729.261, 2388.600 728.134, 2387.500 727.447 C 2386.400 726.759, 2383.925 725.877, 2382 725.487 C 2380.075 725.096, 2376.250 723.770, 2373.500 722.539 C 2370.750 721.309, 2367.150 719.991, 2365.500 719.611 C 2363.850 719.231, 2359.800 717.864, 2356.500 716.573 C 2349.886 713.986, 2318.115 703.781, 2311 701.958 C 2308.525 701.323, 2306.050 700.447, 2305.500 700.011 C 2304.950 699.574, 2301.821 698.667, 2298.547 697.995 C 2295.273 697.323, 2291.223 696.184, 2289.547 695.463 C 2287.871 694.743, 2283.800 693.476, 2280.500 692.649 C 2274.552 691.157, 2269.006 689.698, 2255.500 686.071 C 2235.808 680.783, 2222.306 677.386, 2213.500 675.504 C 2202.675 673.190, 2183.662 669.035, 2175 667.091 C 2170.325 666.041, 2162 664.436, 2156.500 663.525 C 2151 662.614, 2143.919 661.223, 2140.765 660.434 C 2137.611 659.645, 2133.520 659, 2131.674 659 C 2129.828 659, 2126.109 658.330, 2123.409 657.511 C 2120.709 656.692, 2116.700 656.006, 2114.500 655.987 C 2112.300 655.968, 2108.700 655.476, 2106.500 654.894 C 2102.042 653.714, 2100.219 653.423, 2088 651.940 C 2083.325 651.373, 2075.450 650.285, 2070.500 649.523 C 2055.790 647.259, 2046.472 646.158, 2028 644.501 C 2018.375 643.638, 2007.125 642.488, 2003 641.947 C 1974.264 638.176, 1869.627 635.301, 1823.500 637.015 M 428.266 1164.701 C 427.099 1167.340, 425.638 1171.705, 425.020 1174.401 C 424.401 1177.097, 423.215 1180.617, 422.384 1182.225 C 421.552 1183.833, 420.036 1188.152, 419.014 1191.824 C 417.991 1195.496, 415.386 1203.675, 413.224 1210 C 406.517 1229.620, 406.011 1231.133, 401.499 1245 C 399.083 1252.425, 396.601 1259.850, 395.982 1261.500 C 394.695 1264.936, 379.453 1310.215, 377.300 1317 C 376.514 1319.475, 375.048 1323.750, 374.041 1326.500 C 371.154 1334.385, 362.015 1361.985, 360.464 1367.500 C 359.691 1370.250, 358.606 1373.400, 358.052 1374.500 C 356.825 1376.938, 349 1400.926, 349 1402.251 C 349 1402.772, 348.352 1404.616, 347.559 1406.349 C 346.767 1408.082, 343.879 1416.250, 341.141 1424.500 C 338.403 1432.750, 335.670 1440.850, 335.067 1442.500 C 333.146 1447.757, 323.967 1475.328, 322.582 1480 C 321.354 1484.140, 315.891 1499.991, 294.145 1562.500 C 280.125 1602.801, 272.490 1624.541, 258.501 1664 C 250.994 1685.175, 242.686 1708.800, 240.039 1716.500 C 237.393 1724.200, 233.186 1736.125, 230.690 1743 C 217.243 1780.047, 212 1796.328, 212 1801.042 C 212 1804.769, 210.825 1808.473, 207 1816.807 C 204.250 1822.799, 202 1828.343, 202 1829.128 C 202 1829.913, 201.363 1831.465, 200.583 1832.577 C 199.240 1834.496, 198.237 1837.599, 194.472 1851.500 C 190.924 1864.596, 190.022 1868.853, 188.963 1877.500 C 188.356 1882.450, 187.441 1889.237, 186.930 1892.582 C 185.733 1900.411, 185.757 1911.986, 187.008 1929.500 C 190.041 1971.981, 203.162 2009.611, 227.105 2044.500 C 246.023 2072.066, 260.792 2088.789, 274.189 2097.813 C 278.210 2100.521, 286.675 2106.245, 293 2110.533 C 332.881 2137.567, 377.009 2145.921, 421.500 2134.861 C 432.011 2132.248, 455.721 2124.632, 461.402 2122.045 C 463.870 2120.920, 466.166 2120, 466.502 2120 C 467.500 2120, 485.045 2111.240, 491.062 2107.738 C 494.122 2105.957, 498.397 2103.103, 500.562 2101.395 C 502.728 2099.687, 505.565 2097.730, 506.866 2097.047 C 508.168 2096.364, 511.051 2094.161, 513.272 2092.153 C 525.988 2080.656, 532.877 2074.051, 535.858 2070.500 C 537.705 2068.300, 539.955 2065.757, 540.858 2064.849 C 543.043 2062.653, 551.109 2051.847, 555.674 2045 C 565.135 2030.809, 576.420 2007.050, 580.450 1992.839 C 581.177 1990.275, 582.105 1987.638, 582.513 1986.979 C 584.084 1984.437, 587.911 1966.282, 590.098 1951 C 592.790 1932.182, 591.914 1891.054, 588.459 1874 C 586.855 1866.083, 571.403 1795.092, 570.067 1789.500 C 568.993 1785.006, 567.633 1778.826, 562.474 1755 C 560.509 1745.925, 557.797 1733.486, 556.446 1727.359 C 553.366 1713.385, 550.025 1691.925, 550.008 1686 C 549.994 1681.491, 546.479 1661.584, 545.383 1659.811 C 544.878 1658.993, 537.585 1629.210, 533.554 1611.500 C 532.803 1608.200, 529.455 1594.025, 526.115 1580 C 519.875 1553.803, 509.311 1508.932, 506.457 1496.500 C 505.573 1492.650, 501.984 1477.800, 498.480 1463.500 C 494.976 1449.200, 489.560 1426.700, 486.444 1413.500 C 480.737 1389.326, 471.676 1351.110, 462.031 1310.535 C 458.425 1295.365, 456.708 1285.929, 456.483 1280.035 C 456.303 1275.341, 455.478 1269.475, 454.648 1267 C 453.818 1264.525, 452.863 1260.700, 452.526 1258.500 C 452.189 1256.300, 451.077 1250.900, 450.056 1246.500 C 449.034 1242.100, 447.201 1234, 445.982 1228.500 C 444.763 1223, 442.950 1214.900, 441.953 1210.500 C 438.668 1196.001, 436.166 1184.615, 434.480 1176.500 C 433.565 1172.100, 432.271 1166.565, 431.603 1164.201 L 430.388 1159.902 428.266 1164.701 M 2850.147 1523.096 C 2826.532 1529.438, 2809.788 1546.522, 2803.972 1570.209 C 2802.853 1574.769, 2801.263 1580.750, 2800.440 1583.500 C 2799.616 1586.250, 2798.530 1590.525, 2798.027 1593 C 2796.710 1599.469, 2790.091 1623.211, 2785.481 1638 C 2784.023 1642.675, 2782.147 1648.975, 2781.310 1652 C 2780.473 1655.025, 2779.430 1657.950, 2778.992 1658.500 C 2778.554 1659.050, 2777.686 1661.525, 2777.063 1664 C 2776.440 1666.475, 2774.867 1671.200, 2773.566 1674.500 C 2772.265 1677.800, 2770.510 1682.525, 2769.666 1685 C 2766.748 1693.552, 2763.392 1702.507, 2762.358 1704.500 C 2761.788 1705.600, 2760.276 1709.425, 2758.998 1713 C 2757.720 1716.575, 2756.348 1719.950, 2755.950 1720.500 C 2755.551 1721.050, 2753.996 1724.650, 2752.494 1728.500 C 2746.760 1743.196, 2728.177 1779.879, 2715.767 1801 C 2709.064 1812.408, 2697 1830.800, 2689.174 1841.543 C 2674.590 1861.562, 2645.283 1893.538, 2633.381 1902.416 C 2631.108 1904.112, 2627.280 1907.134, 2624.874 1909.130 C 2608.996 1922.308, 2580.426 1937.977, 2560 1944.711 C 2537.422 1952.154, 2528.240 1953.506, 2500.500 1953.472 C 2482.143 1953.449, 2475.986 1953.089, 2470 1951.686 C 2465.875 1950.719, 2460.250 1949.455, 2457.500 1948.876 C 2435.774 1944.305, 2404.766 1931.564, 2381.006 1917.446 C 2358.649 1904.163, 2354.910 1901.574, 2332.500 1883.871 C 2298.481 1856.998, 2264.779 1822.054, 2227.982 1775.500 C 2222.543 1768.619, 2203.862 1743.193, 2201.461 1739.405 C 2200.383 1737.702, 2196.906 1732.527, 2193.737 1727.905 C 2190.567 1723.282, 2187.240 1718.375, 2186.344 1717 C 2185.448 1715.625, 2182.797 1711.575, 2180.452 1708 C 2178.107 1704.425, 2174.859 1699.250, 2173.234 1696.500 C 2171.609 1693.750, 2167.376 1686.775, 2163.828 1681 C 2160.280 1675.225, 2156.677 1669.150, 2155.822 1667.500 C 2154.967 1665.850, 2152.035 1660.675, 2149.307 1656 C 2137.407 1635.609, 2117.858 1597.918, 2106.597 1573.655 C 2098.154 1555.464, 2087.730 1544.776, 2071.500 1537.670 C 2063.163 1534.019, 2058.023 1533.053, 2046.799 1533.024 C 2034.420 1532.993, 2028.542 1534.265, 2018 1539.253 C 2002.369 1546.650, 1988.827 1563.096, 1984.345 1580.124 C 1982.298 1587.901, 1982.096 1604.275, 1983.951 1612 C 1985.267 1617.480, 1995.601 1640.367, 2001.650 1651.197 C 2003.400 1654.331, 2005.141 1657.931, 2005.520 1659.197 C 2005.899 1660.464, 2006.845 1662.510, 2007.624 1663.745 C 2008.402 1664.980, 2011.801 1671.280, 2015.175 1677.745 C 2022.510 1691.796, 2025.126 1696.636, 2031.800 1708.500 C 2034.584 1713.450, 2038.720 1720.875, 2040.989 1725 C 2043.259 1729.125, 2047.315 1736.100, 2050.003 1740.500 C 2052.690 1744.900, 2056.329 1750.975, 2058.089 1754 C 2059.849 1757.025, 2063.331 1762.650, 2065.828 1766.500 C 2068.325 1770.350, 2072.840 1777.325, 2075.863 1782 C 2078.885 1786.675, 2082.106 1791.625, 2083.019 1793 C 2091.400 1805.614, 2094.711 1810.466, 2099.056 1816.500 C 2118.800 1843.919, 2117.111 1841.661, 2131.201 1859.500 C 2134.676 1863.900, 2138.695 1869.075, 2140.132 1871 C 2141.568 1872.925, 2143.843 1875.625, 2145.187 1877 C 2146.530 1878.375, 2148.925 1881.300, 2150.508 1883.500 C 2152.091 1885.700, 2153.862 1887.953, 2154.443 1888.506 C 2155.024 1889.059, 2157.475 1891.759, 2159.889 1894.506 C 2173.556 1910.056, 2182.302 1919.328, 2198.560 1935.500 C 2225.053 1961.853, 2239.054 1974.164, 2263.142 1992.282 C 2266.639 1994.912, 2272.200 1999.096, 2275.500 2001.580 C 2283.921 2007.917, 2296.762 2016.568, 2301.500 2019.095 C 2303.700 2020.268, 2306.870 2022.254, 2308.543 2023.507 C 2321.596 2033.283, 2384.220 2063, 2391.766 2063 C 2392.775 2063, 2394.028 2063.409, 2394.550 2063.910 C 2395.785 2065.092, 2415.498 2070.884, 2424.500 2072.709 C 2428.350 2073.490, 2433.525 2074.773, 2436 2075.560 C 2438.475 2076.347, 2444.550 2077.426, 2449.500 2077.957 C 2454.450 2078.488, 2460.300 2079.480, 2462.500 2080.162 C 2468.145 2081.913, 2529.406 2081.932, 2541 2080.187 C 2553.298 2078.336, 2559.958 2077.169, 2564.500 2076.070 C 2566.700 2075.537, 2573.675 2073.887, 2580 2072.403 C 2586.325 2070.919, 2594.650 2068.599, 2598.500 2067.248 C 2615.810 2061.171, 2618.912 2059.999, 2625.500 2057.040 C 2660.002 2041.544, 2692.139 2021.162, 2719.827 1997.213 C 2734.353 1984.648, 2763.819 1954.076, 2774.284 1940.711 C 2776.528 1937.845, 2778.672 1935.275, 2779.049 1935 C 2780.020 1934.291, 2797.655 1910.398, 2802.795 1902.827 C 2805.157 1899.347, 2808.618 1894.250, 2810.485 1891.500 C 2813.255 1887.420, 2823.226 1871.366, 2826.943 1865 C 2836.635 1848.403, 2843.692 1835.420, 2847.054 1828 C 2848.176 1825.525, 2849.772 1822.375, 2850.601 1821 C 2851.430 1819.625, 2853.715 1815.125, 2855.677 1811 C 2857.640 1806.875, 2860.991 1799.884, 2863.123 1795.465 C 2865.255 1791.046, 2867 1786.992, 2867 1786.457 C 2867 1785.922, 2868.067 1783.463, 2869.371 1780.992 C 2870.675 1778.521, 2872.064 1775.375, 2872.458 1774 C 2872.852 1772.625, 2874.657 1768.125, 2876.470 1764 C 2880.613 1754.571, 2884.610 1744.425, 2887.565 1735.839 C 2888.825 1732.175, 2890.494 1727.900, 2891.273 1726.339 C 2892.051 1724.778, 2893.275 1721.250, 2893.992 1718.500 C 2894.709 1715.750, 2896.127 1711.616, 2897.144 1709.313 C 2898.161 1707.010, 2899.646 1702.617, 2900.445 1699.551 C 2901.243 1696.485, 2902.132 1693.596, 2902.418 1693.132 C 2903.121 1691.995, 2914.649 1654.543, 2915.849 1649.500 C 2917.388 1643.027, 2921.869 1625.907, 2923.439 1620.500 C 2931.553 1592.548, 2932.048 1576.678, 2925.308 1560.500 C 2921.628 1551.666, 2916.856 1544.962, 2909.360 1538.093 C 2901.195 1530.611, 2894.107 1526.669, 2883.043 1523.456 C 2872.427 1520.373, 2860.762 1520.245, 2850.147 1523.096 M 843 1540.054 C 818.575 1546.005, 799.355 1565.944, 794.373 1590.500 C 791.757 1603.392, 793.376 1615.720, 800.936 1640.500 C 802.111 1644.350, 804.163 1651.100, 805.496 1655.500 C 812.304 1677.972, 826.578 1718.420, 830.550 1726.500 C 831.362 1728.150, 833.324 1732.650, 834.911 1736.500 C 842.458 1754.807, 844.919 1760.140, 856.378 1783 C 868.459 1807.102, 875.399 1819.698, 886.407 1837.500 C 889.467 1842.450, 893.777 1849.502, 895.984 1853.171 C 898.190 1856.839, 901.045 1861.114, 902.328 1862.671 C 903.611 1864.227, 906.770 1868.650, 909.348 1872.500 C 918.589 1886.297, 933.411 1906.362, 936.861 1909.743 C 937.847 1910.709, 939.967 1913.300, 941.572 1915.500 C 943.177 1917.700, 946.369 1921.525, 948.664 1924 C 950.960 1926.475, 954.112 1930.088, 955.669 1932.030 C 965.783 1944.641, 1001.489 1979.551, 1019.143 1994.087 C 1027.439 2000.918, 1045.047 2014.521, 1051.759 2019.283 C 1061.743 2026.367, 1079.396 2037.979, 1080.200 2037.990 C 1080.585 2037.996, 1083.010 2039.424, 1085.589 2041.165 C 1094.293 2047.039, 1122.284 2061.318, 1139 2068.411 C 1158.781 2076.805, 1162.124 2078.120, 1168.500 2080.013 C 1171.800 2080.993, 1177.650 2082.919, 1181.500 2084.294 C 1193.134 2088.448, 1218.234 2094.494, 1238.500 2098.023 C 1255.103 2100.915, 1278.193 2102.855, 1296.991 2102.937 C 1316.972 2103.024, 1348.252 2101.150, 1355.564 2099.428 C 1358.899 2098.643, 1363.335 2098, 1365.421 2098 C 1367.507 2098, 1372.428 2097.273, 1376.357 2096.385 C 1390.197 2093.255, 1414.552 2087.081, 1419 2085.575 C 1421.475 2084.738, 1425.525 2083.411, 1428 2082.629 C 1456.931 2073.478, 1496.264 2054.389, 1523.910 2036.083 C 1526.886 2034.112, 1531.836 2030.895, 1534.910 2028.933 C 1553.443 2017.107, 1587.836 1987.972, 1607.609 1967.345 C 1623.199 1951.084, 1628.764 1944.703, 1649.283 1919.557 C 1654.387 1913.302, 1673.213 1886.641, 1677.436 1879.688 C 1678.501 1877.934, 1681.763 1872.831, 1684.686 1868.346 C 1687.609 1863.861, 1690 1859.759, 1690 1859.231 C 1690 1858.702, 1690.981 1857.022, 1692.181 1855.497 C 1695.805 1850.890, 1719.102 1806.397, 1724.821 1793.161 C 1738.538 1761.413, 1747.468 1738.144, 1754.525 1715.760 C 1756.997 1707.917, 1759.997 1698.575, 1761.190 1695 C 1762.383 1691.425, 1763.680 1686.925, 1764.071 1685 C 1764.463 1683.075, 1766.588 1674.750, 1768.795 1666.500 C 1771.001 1658.250, 1773.297 1649.025, 1773.897 1646 C 1775.339 1638.724, 1778.486 1623.850, 1780.020 1617.056 C 1782.799 1604.745, 1779.499 1585.474, 1772.615 1573.821 C 1763.782 1558.869, 1748.447 1547.204, 1732.760 1543.506 C 1725.319 1541.751, 1709.196 1541.550, 1701.874 1543.120 C 1686.092 1546.505, 1669.602 1558.706, 1661.246 1573.180 C 1658.138 1578.564, 1653.051 1592.654, 1653.007 1596 C 1652.956 1599.863, 1647.233 1626.135, 1644.511 1635 C 1643.751 1637.475, 1642.830 1641.075, 1642.464 1643 C 1640.073 1655.591, 1620.451 1713.166, 1614.007 1726.500 C 1612.944 1728.700, 1609.989 1735.225, 1607.442 1741 C 1602.850 1751.408, 1588.806 1779.051, 1584.618 1785.926 C 1583.420 1787.892, 1581.911 1790.400, 1581.263 1791.500 C 1575.417 1801.431, 1567.434 1813.713, 1557.500 1828.061 C 1549.317 1839.881, 1533.769 1858.928, 1523 1870.328 C 1506.487 1887.808, 1489.175 1903.567, 1475.024 1914 C 1471.667 1916.475, 1466.801 1920.092, 1464.210 1922.039 C 1455.618 1928.494, 1438.251 1938.603, 1422.108 1946.547 C 1397.646 1958.583, 1384.002 1963.057, 1346 1971.500 C 1330.117 1975.029, 1283.514 1975.898, 1267.500 1972.964 C 1238.963 1967.735, 1222.487 1963.649, 1210.815 1958.904 C 1208.238 1957.857, 1205.531 1957, 1204.800 1957 C 1204.069 1957, 1201.902 1956.166, 1199.985 1955.147 C 1198.068 1954.128, 1194.700 1952.713, 1192.500 1952.002 C 1188.919 1950.845, 1176.890 1945.287, 1173 1942.992 C 1172.175 1942.505, 1168.800 1940.704, 1165.500 1938.990 C 1151.657 1931.798, 1150.784 1931.270, 1132 1918.692 C 1106.388 1901.542, 1081.623 1879.815, 1057.062 1852.946 C 1029.771 1823.091, 1003.158 1785.797, 983.956 1750.500 C 974.020 1732.234, 970.655 1725.665, 964.494 1712.500 C 961.921 1707, 959.008 1700.925, 958.022 1699 C 957.036 1697.075, 955.899 1694.375, 955.494 1693 C 955.089 1691.625, 953.725 1688.250, 952.461 1685.500 C 947.091 1673.812, 936.166 1644.434, 932.008 1630.500 C 931.023 1627.200, 929.724 1623.150, 929.121 1621.500 C 927.826 1617.952, 920.722 1592.613, 919.067 1585.636 C 916.595 1575.209, 907.244 1560.787, 898.188 1553.433 C 891.879 1548.309, 880.294 1542.471, 872.540 1540.509 C 866.102 1538.879, 848.907 1538.614, 843 1540.054 M 1760 2247.602 C 1738.966 2248.157, 1685.062 2250.980, 1675 2252.053 C 1669.775 2252.610, 1659.650 2253.529, 1652.500 2254.094 C 1645.350 2254.659, 1635.900 2255.519, 1631.500 2256.003 C 1627.100 2256.488, 1619.450 2257.333, 1614.500 2257.881 C 1609.550 2258.429, 1601.192 2259.336, 1595.927 2259.896 C 1590.661 2260.457, 1585.120 2261.384, 1583.612 2261.958 C 1582.104 2262.531, 1578.987 2263, 1576.685 2262.999 C 1574.383 2262.999, 1568.900 2263.645, 1564.500 2264.436 C 1560.100 2265.226, 1552 2266.593, 1546.500 2267.473 C 1512.948 2272.840, 1484.495 2278.481, 1453.500 2285.909 C 1449.100 2286.964, 1442.800 2288.474, 1439.500 2289.266 C 1436.200 2290.058, 1430.350 2291.606, 1426.500 2292.707 C 1422.650 2293.808, 1415.675 2295.725, 1411 2296.967 C 1406.325 2298.209, 1396.200 2301.163, 1388.500 2303.532 C 1380.800 2305.902, 1372.925 2308.306, 1371 2308.875 C 1369.075 2309.444, 1363 2311.522, 1357.500 2313.492 C 1352 2315.462, 1345.475 2317.698, 1343 2318.461 C 1335.031 2320.919, 1300.988 2334.426, 1287.500 2340.482 C 1269.456 2348.584, 1249.183 2358.463, 1237.500 2364.848 C 1232 2367.853, 1224.953 2371.705, 1221.839 2373.406 C 1190.835 2390.351, 1152.399 2417.854, 1128.072 2440.500 C 1118.673 2449.250, 1099.754 2468.741, 1096.183 2473.354 C 1094.707 2475.259, 1090.800 2480.214, 1087.500 2484.365 C 1077.578 2496.844, 1072.364 2504.154, 1068.504 2511 C 1066.488 2514.575, 1064.254 2518.175, 1063.538 2519 C 1062.822 2519.825, 1060.790 2523.425, 1059.022 2527 C 1057.254 2530.575, 1054.862 2535.300, 1053.706 2537.500 C 1049.593 2545.331, 1049.007 2546.604, 1045.419 2555.500 C 1043.422 2560.450, 1040.971 2567.425, 1039.971 2571 C 1038.972 2574.575, 1037.452 2579.447, 1036.595 2581.826 C 1035.737 2584.205, 1034.322 2590.261, 1033.451 2595.283 C 1032.579 2600.306, 1031.211 2606.909, 1030.411 2609.958 C 1028.330 2617.881, 1027.330 2657.009, 1028.869 2670.266 C 1031.942 2696.721, 1036.624 2716.049, 1045.641 2739.500 C 1050.521 2752.191, 1060.756 2773.647, 1063.531 2777 C 1064.214 2777.825, 1065.998 2780.975, 1067.496 2784 C 1068.995 2787.025, 1071.880 2791.750, 1073.908 2794.500 C 1075.936 2797.250, 1078.772 2801.525, 1080.210 2804 C 1083.296 2809.314, 1093.987 2823.426, 1100.285 2830.500 C 1102.733 2833.250, 1106.913 2838.200, 1109.574 2841.500 C 1118.658 2852.765, 1156.226 2889.057, 1166.369 2896.367 C 1168.641 2898.004, 1172.075 2900.804, 1174 2902.588 C 1181.622 2909.653, 1216.734 2934.883, 1230.500 2943.186 C 1234.350 2945.508, 1238.625 2948.257, 1240 2949.295 C 1242.870 2951.461, 1257.120 2960.021, 1264.500 2964.013 C 1267.250 2965.500, 1272.200 2968.355, 1275.500 2970.356 C 1278.800 2972.357, 1281.881 2973.996, 1282.346 2973.997 C 1282.811 2973.999, 1284.386 2974.841, 1285.846 2975.869 C 1290.665 2979.263, 1334.723 3000.955, 1353 3008.934 C 1358.225 3011.215, 1364.300 3013.942, 1366.500 3014.995 C 1368.700 3016.048, 1372.750 3017.788, 1375.500 3018.862 C 1378.250 3019.936, 1383.875 3022.252, 1388 3024.008 C 1392.125 3025.764, 1397.750 3028.025, 1400.500 3029.032 C 1403.250 3030.039, 1411.575 3033.235, 1419 3036.135 L 1432.500 3041.406 1447.500 3041.431 C 1461.028 3041.454, 1463.040 3041.227, 1468 3039.115 C 1471.025 3037.828, 1476.759 3036.397, 1480.742 3035.937 C 1489.397 3034.935, 1500.346 3031.150, 1507.956 3026.526 C 1518.821 3019.926, 1529.585 3007.072, 1533.896 2995.547 C 1535.768 2990.544, 1541.258 2979.547, 1545.670 2971.962 C 1547.490 2968.832, 1552 2962.399, 1562.279 2948.271 C 1567.750 2940.751, 1592.204 2917.668, 1604.191 2908.709 C 1616.583 2899.448, 1628.848 2891, 1629.900 2891 C 1630.250 2891, 1632.110 2889.931, 1634.033 2888.623 C 1645.962 2880.517, 1682.406 2863.101, 1698 2858.054 C 1701.025 2857.075, 1705.075 2855.578, 1707 2854.727 C 1708.925 2853.876, 1714.550 2851.961, 1719.500 2850.472 C 1724.450 2848.983, 1730.975 2846.959, 1734 2845.975 C 1740.169 2843.968, 1750.973 2841.269, 1758.500 2839.855 C 1761.250 2839.338, 1765.525 2838.301, 1768 2837.550 C 1773.371 2835.920, 1788.818 2833, 1792.068 2833 C 1793.335 2833, 1797.101 2832.369, 1800.436 2831.598 C 1816.582 2827.866, 1885 2822.490, 1885 2824.953 C 1885 2825.363, 1898.162 2826.013, 1914.250 2826.397 C 1930.338 2826.781, 1949.575 2827.740, 1957 2828.528 C 1985.252 2831.526, 1990.675 2832.219, 1996.564 2833.589 C 1999.899 2834.365, 2003.665 2835, 2004.932 2835 C 2008.182 2835, 2023.629 2837.920, 2029 2839.550 C 2031.475 2840.301, 2035.750 2841.338, 2038.500 2841.855 C 2046.027 2843.269, 2056.831 2845.968, 2063 2847.975 C 2066.025 2848.959, 2072.550 2850.983, 2077.500 2852.472 C 2082.450 2853.961, 2088.075 2855.876, 2090 2856.727 C 2091.925 2857.578, 2095.975 2859.075, 2099 2860.054 C 2114.594 2865.101, 2151.038 2882.517, 2162.967 2890.623 C 2164.890 2891.931, 2166.750 2893, 2167.100 2893 C 2168.152 2893, 2180.417 2901.448, 2192.809 2910.709 C 2204.796 2919.668, 2229.250 2942.751, 2234.721 2950.271 C 2245 2964.399, 2249.510 2970.832, 2251.330 2973.962 C 2255.742 2981.547, 2261.232 2992.544, 2263.104 2997.547 C 2267.415 3009.072, 2278.179 3021.926, 2289.044 3028.526 C 2296.654 3033.150, 2307.603 3036.935, 2316.258 3037.937 C 2320.241 3038.397, 2325.975 3039.828, 2329 3041.115 C 2333.960 3043.227, 2335.972 3043.454, 2349.500 3043.431 L 2364.500 3043.406 2378 3038.135 C 2385.425 3035.235, 2393.750 3032.039, 2396.500 3031.032 C 2399.250 3030.025, 2404.875 3027.764, 2409 3026.008 C 2413.125 3024.252, 2418.750 3021.936, 2421.500 3020.862 C 2424.250 3019.788, 2428.300 3018.048, 2430.500 3016.995 C 2432.700 3015.942, 2438.775 3013.215, 2444 3010.934 C 2462.277 3002.955, 2506.335 2981.263, 2511.154 2977.869 C 2512.614 2976.841, 2514.189 2975.999, 2514.654 2975.997 C 2515.119 2975.996, 2518.200 2974.357, 2521.500 2972.356 C 2524.800 2970.355, 2529.750 2967.500, 2532.500 2966.013 C 2539.880 2962.021, 2554.130 2953.461, 2557 2951.295 C 2558.375 2950.257, 2562.650 2947.508, 2566.500 2945.186 C 2580.266 2936.883, 2615.378 2911.653, 2623 2904.588 C 2624.925 2902.804, 2628.359 2900.004, 2630.631 2898.367 C 2640.774 2891.057, 2678.342 2854.765, 2687.426 2843.500 C 2690.087 2840.200, 2694.267 2835.250, 2696.715 2832.500 C 2703.013 2825.426, 2713.704 2811.314, 2716.790 2806 C 2718.228 2803.525, 2721.064 2799.250, 2723.092 2796.500 C 2725.120 2793.750, 2728.005 2789.025, 2729.504 2786 C 2731.002 2782.975, 2732.786 2779.825, 2733.469 2779 C 2736.244 2775.647, 2746.479 2754.191, 2751.359 2741.500 C 2760.376 2718.049, 2765.058 2698.721, 2768.131 2672.266 C 2769.670 2659.009, 2768.670 2619.881, 2766.589 2611.958 C 2765.789 2608.909, 2764.421 2602.306, 2763.549 2597.283 C 2762.678 2592.261, 2761.263 2586.205, 2760.405 2583.826 C 2759.548 2581.447, 2758.028 2576.575, 2757.029 2573 C 2756.029 2569.425, 2753.578 2562.450, 2751.581 2557.500 C 2747.993 2548.604, 2747.407 2547.331, 2743.294 2539.500 C 2742.138 2537.300, 2739.746 2532.575, 2737.978 2529 C 2736.210 2525.425, 2734.178 2521.825, 2733.462 2521 C 2732.746 2520.175, 2730.512 2516.575, 2728.496 2513 C 2724.636 2506.154, 2719.422 2498.844, 2709.500 2486.365 C 2706.200 2482.214, 2702.293 2477.259, 2700.817 2475.354 C 2697.246 2470.741, 2678.327 2451.250, 2668.928 2442.500 C 2644.601 2419.854, 2606.165 2392.351, 2575.161 2375.406 C 2572.047 2373.705, 2565 2369.853, 2559.500 2366.848 C 2547.817 2360.463, 2527.544 2350.584, 2509.500 2342.482 C 2496.012 2336.426, 2461.969 2322.919, 2454 2320.461 C 2451.525 2319.698, 2445 2317.462, 2439.500 2315.492 C 2434 2313.522, 2427.925 2311.444, 2426 2310.875 C 2424.075 2310.306, 2416.200 2307.902, 2408.500 2305.532 C 2400.800 2303.163, 2390.675 2300.209, 2386 2298.967 C 2381.325 2297.725, 2374.350 2295.808, 2370.500 2294.707 C 2366.650 2293.606, 2360.800 2292.058, 2357.500 2291.266 C 2333.145 2285.422, 2326.257 2283.859, 2306 2279.575 C 2288.320 2275.836, 2274.130 2273.253, 2250.500 2269.473 C 2245 2268.593, 2236.900 2267.226, 2232.500 2266.436 C 2228.100 2265.645, 2222.617 2264.999, 2220.315 2264.999 C 2218.013 2265, 2214.896 2264.531, 2213.388 2263.958 C 2211.880 2263.384, 2206.339 2262.457, 2201.073 2261.896 C 2195.808 2261.336, 2187.450 2260.429, 2182.500 2259.881 C 2177.550 2259.333, 2169.900 2258.487, 2165.500 2258.001 C 2161.100 2257.514, 2151.200 2256.639, 2143.500 2256.055 C 2135.800 2255.471, 2128.375 2254.780, 2127 2254.519 C 2125.625 2254.258, 2108.750 2253.138, 2089.500 2252.031 C 2047.832 2249.634, 1977.586 2248.531, 1941.748 2249.711 C 1923.828 2250.302, 1909.686 2250.189, 1895.248 2249.340 C 1874.697 2248.131, 1784.080 2246.967, 1760 2247.602 M 1749.500 2376.112 C 1707.465 2377.563, 1668.444 2380.590, 1623.500 2385.887 C 1619.100 2386.405, 1610.964 2387.300, 1605.420 2387.875 C 1599.876 2388.450, 1594.109 2389.388, 1592.605 2389.960 C 1591.100 2390.532, 1588.212 2391, 1586.185 2390.999 C 1584.158 2390.999, 1578.900 2391.660, 1574.500 2392.468 C 1570.100 2393.275, 1559.750 2395.119, 1551.500 2396.564 C 1531.725 2400.028, 1513.809 2403.570, 1501.500 2406.449 C 1496 2407.736, 1487.225 2409.765, 1482 2410.959 C 1476.775 2412.153, 1470.475 2413.716, 1468 2414.432 C 1465.525 2415.149, 1459.675 2416.757, 1455 2418.005 C 1435.410 2423.235, 1406.948 2431.769, 1401 2434.197 C 1399.625 2434.758, 1395.249 2436.285, 1391.276 2437.590 C 1384.648 2439.767, 1376.224 2442.925, 1359 2449.691 C 1338.615 2457.698, 1288.500 2481.606, 1284 2485.471 C 1283.175 2486.179, 1280.925 2487.549, 1279 2488.514 C 1272.081 2491.985, 1250.492 2506.247, 1239.664 2514.500 C 1235.334 2517.800, 1230.282 2521.625, 1228.436 2523 C 1221.589 2528.101, 1201.261 2547.754, 1194.986 2555.339 C 1179.933 2573.535, 1176.418 2578.660, 1169.385 2592.674 C 1160.873 2609.635, 1157.189 2623.618, 1156.336 2642.203 C 1155.693 2656.201, 1156.028 2659.292, 1160.056 2676.544 C 1165.506 2699.885, 1179.793 2725.976, 1201.375 2752 C 1215.920 2769.539, 1245.622 2797.072, 1266.372 2812.251 C 1269.192 2814.314, 1272.175 2816.566, 1273 2817.256 C 1274.975 2818.906, 1284.622 2825.480, 1292.520 2830.558 C 1295.992 2832.790, 1299.456 2835.133, 1300.217 2835.765 C 1302.110 2837.336, 1323.043 2850, 1323.746 2850 C 1324.057 2850, 1325.704 2851.058, 1327.406 2852.350 C 1329.108 2853.643, 1332.525 2855.666, 1335 2856.847 C 1337.475 2858.028, 1343.100 2860.982, 1347.500 2863.412 C 1367.842 2874.646, 1413.652 2896.316, 1430.958 2902.892 L 1435.977 2904.799 1439.352 2900.150 C 1441.208 2897.592, 1443.266 2894.465, 1443.925 2893.201 C 1445.641 2889.908, 1459.267 2871.950, 1467.608 2861.989 C 1476.598 2851.254, 1499.014 2828.717, 1508.157 2821.222 C 1514.914 2815.684, 1521.525 2810.486, 1533 2801.690 C 1543.319 2793.780, 1565.395 2779.605, 1579.500 2771.833 C 1588.472 2766.890, 1592.361 2764.838, 1602.500 2759.698 C 1610.384 2755.701, 1621.031 2750.821, 1625.998 2748.929 C 1629.021 2747.777, 1631.946 2746.463, 1632.498 2746.009 C 1633.537 2745.154, 1652.111 2737.940, 1660 2735.327 C 1662.475 2734.507, 1667.965 2732.523, 1672.199 2730.918 C 1676.434 2729.313, 1680.450 2728, 1681.124 2728 C 1681.798 2728, 1685.533 2726.906, 1689.425 2725.568 C 1693.316 2724.230, 1703.025 2721.520, 1711 2719.545 C 1718.975 2717.571, 1727.558 2715.300, 1730.074 2714.499 C 1732.590 2713.698, 1737.765 2712.587, 1741.574 2712.031 C 1745.383 2711.474, 1750.709 2710.339, 1753.409 2709.509 C 1756.109 2708.679, 1760.076 2708, 1762.225 2708 C 1764.373 2708, 1766.992 2707.539, 1768.044 2706.976 C 1769.096 2706.413, 1774.228 2705.549, 1779.447 2705.055 C 1784.667 2704.561, 1789.424 2703.856, 1790.019 2703.489 C 1791.155 2702.786, 1801.724 2701.494, 1818.500 2700.007 C 1824 2699.520, 1833.450 2698.658, 1839.500 2698.093 C 1856.587 2696.498, 1912.051 2695.467, 1912.841 2696.731 C 1913.241 2697.372, 1923.498 2698.261, 1939 2698.997 C 1953.025 2699.663, 1964.877 2700.437, 1965.337 2700.716 C 1965.797 2700.996, 1971.197 2701.605, 1977.337 2702.069 C 1993.233 2703.270, 2005.723 2704.711, 2006.981 2705.489 C 2007.576 2705.856, 2012.333 2706.561, 2017.553 2707.055 C 2022.772 2707.549, 2027.904 2708.413, 2028.956 2708.976 C 2030.008 2709.539, 2032.627 2710, 2034.775 2710 C 2036.924 2710, 2040.891 2710.679, 2043.591 2711.509 C 2046.291 2712.339, 2051.617 2713.474, 2055.426 2714.031 C 2059.235 2714.587, 2064.410 2715.698, 2066.926 2716.499 C 2069.442 2717.300, 2078.025 2719.571, 2086 2721.545 C 2093.975 2723.520, 2103.684 2726.230, 2107.575 2727.568 C 2111.467 2728.906, 2115.202 2730, 2115.876 2730 C 2116.550 2730, 2120.566 2731.313, 2124.801 2732.918 C 2129.035 2734.523, 2134.525 2736.507, 2137 2737.327 C 2144.889 2739.940, 2163.463 2747.154, 2164.502 2748.009 C 2165.054 2748.463, 2167.979 2749.777, 2171.002 2750.929 C 2175.969 2752.821, 2186.616 2757.701, 2194.500 2761.698 C 2218.344 2773.785, 2228.242 2779.523, 2250 2793.869 C 2258.110 2799.216, 2261.639 2801.804, 2275.681 2812.703 C 2294.603 2827.389, 2315.262 2847.115, 2329.392 2863.989 C 2337.733 2873.950, 2351.359 2891.908, 2353.075 2895.201 C 2353.734 2896.465, 2355.792 2899.592, 2357.648 2902.150 L 2361.023 2906.799 2366.042 2904.892 C 2383.348 2898.316, 2429.158 2876.646, 2449.500 2865.412 C 2453.900 2862.982, 2459.525 2860.028, 2462 2858.847 C 2464.475 2857.666, 2467.892 2855.643, 2469.594 2854.350 C 2471.296 2853.058, 2472.943 2852, 2473.254 2852 C 2473.957 2852, 2494.890 2839.336, 2496.783 2837.765 C 2497.544 2837.133, 2501.008 2834.790, 2504.480 2832.558 C 2512.378 2827.480, 2522.025 2820.906, 2524 2819.256 C 2524.825 2818.566, 2527.808 2816.314, 2530.628 2814.251 C 2551.378 2799.072, 2581.080 2771.539, 2595.625 2754 C 2617.207 2727.976, 2631.494 2701.885, 2636.944 2678.544 C 2640.972 2661.292, 2641.307 2658.201, 2640.664 2644.203 C 2639.811 2625.618, 2636.127 2611.635, 2627.615 2594.674 C 2620.582 2580.660, 2617.067 2575.535, 2602.014 2557.339 C 2595.739 2549.754, 2575.411 2530.101, 2568.564 2525 C 2566.718 2523.625, 2561.666 2519.800, 2557.336 2516.500 C 2546.508 2508.247, 2524.919 2493.985, 2518 2490.514 C 2516.075 2489.549, 2513.825 2488.179, 2513 2487.471 C 2508.072 2483.238, 2456.824 2458.978, 2434.889 2450.494 C 2429.725 2448.496, 2422.800 2445.800, 2419.500 2444.501 C 2416.200 2443.202, 2410.125 2441.032, 2406 2439.678 C 2401.875 2438.325, 2397.375 2436.758, 2396 2436.197 C 2390.052 2433.769, 2361.590 2425.235, 2342 2420.005 C 2337.325 2418.757, 2331.475 2417.149, 2329 2416.432 C 2326.525 2415.716, 2320.225 2414.153, 2315 2412.959 C 2309.775 2411.765, 2301 2409.736, 2295.500 2408.449 C 2283.191 2405.570, 2265.275 2402.028, 2245.500 2398.564 C 2237.250 2397.119, 2226.900 2395.275, 2222.500 2394.468 C 2218.100 2393.660, 2212.842 2392.999, 2210.815 2392.999 C 2208.788 2393, 2205.900 2392.532, 2204.395 2391.960 C 2202.891 2391.388, 2197.124 2390.450, 2191.580 2389.875 C 2186.036 2389.300, 2177.900 2388.405, 2173.500 2387.887 C 2139.378 2383.865, 2121.561 2382.278, 2085.500 2380.045 C 2027.564 2376.458, 1972.293 2376.352, 1896.595 2379.683 C 1883.786 2380.247, 1882.582 2380.149, 1881.328 2378.434 C 1880.099 2376.753, 1877.773 2376.505, 1857.234 2375.868 C 1828.409 2374.974, 1779.237 2375.085, 1749.500 2376.112" stroke="none" fill="#fc040c" fill-rule="evenodd"/><path d="" stroke="none" fill="#fc0404" fill-rule="evenodd"/></svg>