<svg xmlns="http://www.w3.org/2000/svg" width="3600" height="3600" viewBox="0 0 3600 3600" version="1.1"><path d="M 1748.500 497.002 C 1741.350 497.475, 1719.525 498.622, 1700 499.551 C 1680.475 500.481, 1664.112 501.470, 1663.638 501.749 C 1663.164 502.028, 1658.214 502.644, 1652.638 503.118 C 1635.852 504.543, 1625.157 505.785, 1624.114 506.430 C 1623.571 506.765, 1618.936 507.467, 1613.814 507.989 C 1608.691 508.512, 1600 509.643, 1594.500 510.502 C 1589 511.361, 1581.125 512.512, 1577 513.060 C 1572.875 513.607, 1566.825 514.942, 1563.556 516.027 C 1560.287 517.112, 1556.325 518, 1554.753 518 C 1553.181 518, 1548.656 518.679, 1544.697 519.508 C 1540.739 520.338, 1533 521.950, 1527.500 523.092 C 1514.696 525.749, 1506.915 527.596, 1477.500 534.958 C 1446.005 542.842, 1443.189 543.585, 1432 546.970 C 1426.775 548.551, 1418.225 551.083, 1413 552.596 C 1407.775 554.109, 1395.625 557.993, 1386 561.228 C 1376.375 564.462, 1366.044 567.797, 1363.043 568.639 C 1360.042 569.481, 1355.992 570.977, 1354.043 571.963 C 1352.094 572.949, 1348.964 574.088, 1347.086 574.494 C 1345.208 574.899, 1340.812 576.514, 1337.317 578.082 C 1333.823 579.650, 1329.196 581.409, 1327.036 581.990 C 1324.876 582.572, 1320.410 584.387, 1317.111 586.024 C 1313.811 587.661, 1310.501 589, 1309.753 589 C 1309.006 589, 1304.791 590.743, 1300.386 592.873 C 1295.982 595.003, 1291.280 597.063, 1289.939 597.450 C 1287.283 598.218, 1281.617 600.875, 1258 612.429 C 1238.128 622.150, 1228.778 627.166, 1217 634.421 C 1211.775 637.640, 1205.547 641.398, 1203.161 642.772 C 1200.774 644.146, 1196.274 647.598, 1193.161 650.443 C 1190.047 653.288, 1185.250 656.893, 1182.500 658.454 C 1179.750 660.016, 1175.250 663.186, 1172.500 665.499 C 1169.750 667.813, 1165.925 670.514, 1164 671.501 C 1145.341 681.072, 1131.160 701.913, 1129.092 722.803 C 1126.603 747.946, 1136.011 769.185, 1156.500 784.675 C 1175.723 799.208, 1204.776 800.896, 1227 788.772 C 1236.827 783.410, 1266.751 768.357, 1275.566 764.340 C 1279.380 762.603, 1285.425 759.826, 1289 758.170 C 1292.575 756.515, 1297.750 754.268, 1300.500 753.178 C 1303.250 752.088, 1310.450 749.104, 1316.500 746.548 C 1328.374 741.532, 1339.139 737.294, 1351 732.967 C 1355.125 731.462, 1363 728.578, 1368.500 726.559 C 1382.001 721.600, 1419.756 709, 1421.111 709 C 1421.708 709, 1423.616 708.355, 1425.349 707.566 C 1427.082 706.777, 1430.975 705.463, 1434 704.645 C 1437.025 703.828, 1447.375 700.871, 1457 698.075 C 1478.459 691.842, 1491.611 688.188, 1499.500 686.270 C 1502.800 685.468, 1507.750 684.201, 1510.500 683.456 C 1513.250 682.710, 1521.350 680.715, 1528.500 679.022 C 1535.650 677.330, 1543.750 675.311, 1546.500 674.537 C 1549.250 673.763, 1553.750 672.820, 1556.500 672.441 C 1559.250 672.063, 1563.017 671.134, 1564.872 670.377 C 1566.727 669.620, 1569.454 669, 1570.932 669 C 1572.410 669, 1577.192 668.141, 1581.560 667.091 C 1585.927 666.040, 1593.775 664.409, 1599 663.465 C 1604.225 662.522, 1611.200 661.101, 1614.500 660.308 C 1620.484 658.871, 1633.416 656.577, 1644.174 655.044 C 1647.295 654.600, 1652.020 653.765, 1654.674 653.190 C 1657.328 652.615, 1663.775 651.633, 1669 651.008 C 1674.225 650.382, 1680.525 649.412, 1683 648.853 C 1685.475 648.293, 1691.325 647.409, 1696 646.889 C 1700.675 646.368, 1708.100 645.473, 1712.500 644.899 C 1767.246 637.760, 1805.197 634.894, 1844.651 634.919 C 1870.725 634.935, 1926.519 637.211, 1933 638.523 C 1934.375 638.801, 1941.350 639.471, 1948.500 640.011 C 1967.700 641.461, 1978.243 642.545, 2007 646.026 C 2011.125 646.525, 2018.550 647.375, 2023.500 647.914 C 2028.450 648.452, 2034.072 649.367, 2035.993 649.947 C 2037.915 650.526, 2041.515 651.005, 2043.993 651.012 C 2046.472 651.018, 2050.975 651.688, 2054 652.500 C 2057.025 653.312, 2061.383 653.982, 2063.685 653.988 C 2065.987 653.995, 2069.018 654.437, 2070.422 654.970 C 2071.826 655.504, 2076.243 656.383, 2080.237 656.922 C 2084.232 657.462, 2092.225 658.837, 2098 659.978 C 2103.775 661.119, 2111.425 662.525, 2115 663.103 C 2118.575 663.681, 2123.769 664.788, 2126.542 665.562 C 2129.315 666.337, 2134.265 667.399, 2137.542 667.921 C 2140.819 668.444, 2146.425 669.572, 2150 670.428 C 2153.575 671.284, 2161.450 673.134, 2167.500 674.540 C 2173.550 675.946, 2180.975 677.757, 2184 678.565 C 2187.025 679.373, 2192.200 680.672, 2195.500 681.452 C 2202.350 683.072, 2215.524 686.594, 2231.500 691.078 C 2261.003 699.357, 2273.076 702.967, 2276.651 704.579 C 2278.384 705.361, 2280.339 706, 2280.995 706 C 2282.420 706, 2326.195 720.621, 2330.500 722.535 C 2333.622 723.923, 2344.178 727.722, 2354.500 731.172 C 2357.800 732.275, 2361.317 733.610, 2362.315 734.138 C 2363.314 734.666, 2367.589 736.382, 2371.815 737.950 C 2376.042 739.519, 2382.425 742.020, 2386 743.508 C 2389.575 744.996, 2395.875 747.589, 2400 749.270 C 2410.930 753.724, 2429.876 761.807, 2434.500 763.989 C 2436.700 765.028, 2444.125 768.425, 2451 771.539 C 2464.694 777.741, 2494.160 791.886, 2500.500 795.300 C 2502.700 796.485, 2506.300 798.289, 2508.500 799.309 C 2510.700 800.329, 2513.625 801.820, 2515 802.624 C 2516.375 803.427, 2521.050 805.862, 2525.389 808.035 C 2529.728 810.208, 2533.778 812.391, 2534.389 812.887 C 2535 813.383, 2538.875 815.564, 2543 817.735 C 2555.180 824.144, 2569.274 832.059, 2572.140 834.100 C 2573.608 835.145, 2575.200 836, 2575.677 836 C 2576.155 836, 2579.010 837.623, 2582.023 839.607 C 2585.035 841.591, 2589.281 844.123, 2591.458 845.233 C 2593.634 846.344, 2597.535 848.658, 2600.125 850.376 C 2602.715 852.094, 2608.489 855.750, 2612.957 858.500 C 2635.118 872.142, 2678.349 900.894, 2692 911.071 C 2695.025 913.326, 2701.775 918.313, 2707 922.153 C 2723.650 934.391, 2744.575 950.273, 2748.208 953.431 C 2751.065 955.915, 2764.916 967.223, 2770.953 972 C 2776.576 976.450, 2782.866 981.783, 2793.950 991.500 C 2797.088 994.250, 2802.743 999.200, 2806.517 1002.500 C 2843.642 1034.957, 2904.326 1096.359, 2934.500 1131.997 C 2938.350 1136.544, 2943.750 1142.830, 2946.500 1145.965 C 2950.989 1151.084, 2956.914 1158.335, 2970.166 1174.927 C 2979.551 1186.678, 2984.208 1192.729, 2987.924 1198 C 2990.056 1201.025, 2992.633 1204.417, 2993.651 1205.538 C 2994.668 1206.658, 2996.611 1209.133, 2997.970 1211.038 C 2999.328 1212.942, 3003.828 1219.179, 3007.970 1224.899 C 3024.515 1247.746, 3047.591 1281.965, 3056.592 1297 C 3058.074 1299.475, 3061.394 1304.875, 3063.969 1309 C 3070.964 1320.201, 3074.950 1326.883, 3078.287 1333 C 3079.938 1336.025, 3081.691 1339.018, 3082.184 1339.650 C 3083.491 1341.329, 3091.625 1356.122, 3105.197 1381.500 C 3112.018 1394.256, 3126.162 1422.728, 3133.761 1439 C 3141.637 1455.864, 3143.795 1460.661, 3144.416 1462.673 C 3144.784 1463.868, 3146.578 1467.918, 3148.402 1471.673 C 3150.226 1475.428, 3152.062 1479.625, 3152.482 1481 C 3152.903 1482.375, 3154.541 1486.294, 3156.123 1489.708 C 3157.705 1493.123, 3159 1496.384, 3159 1496.956 C 3159 1497.527, 3160.279 1500.808, 3161.842 1504.247 C 3165.367 1512.004, 3173 1531.745, 3173 1533.105 C 3173 1533.658, 3173.879 1536.038, 3174.953 1538.396 C 3177.008 1542.907, 3181.827 1556.384, 3185.003 1566.500 C 3186.039 1569.800, 3187.780 1574.975, 3188.873 1578 C 3191.952 1586.523, 3198 1605.774, 3198 1607.052 C 3198 1607.682, 3198.641 1609.616, 3199.425 1611.349 C 3200.209 1613.082, 3201.309 1616.525, 3201.869 1619 C 3202.429 1621.475, 3203.822 1626.650, 3204.964 1630.500 C 3208.226 1641.491, 3215.186 1668.034, 3216.107 1673 C 3216.567 1675.475, 3217.621 1679.750, 3218.450 1682.500 C 3220.205 1688.319, 3223.487 1703.377, 3228.365 1728 C 3233.581 1754.327, 3234.267 1758.018, 3235.052 1764 C 3235.720 1769.092, 3236.192 1771.915, 3239.144 1788.500 C 3239.731 1791.800, 3240.558 1797.875, 3240.982 1802 C 3241.405 1806.125, 3242.893 1818.950, 3244.287 1830.500 C 3250.491 1881.886, 3252.688 1923.228, 3252.287 1981 C 3251.965 2027.366, 3248.701 2079.121, 3243.488 2120.500 C 3243.211 2122.700, 3242.516 2128.325, 3241.945 2133 C 3240.944 2141.184, 3239.592 2150.316, 3236.541 2169.500 C 3235.754 2174.450, 3234.845 2180.525, 3234.521 2183 C 3234.197 2185.475, 3233.322 2190.200, 3232.578 2193.500 C 3231.833 2196.800, 3230.467 2203.775, 3229.542 2209 C 3228.618 2214.225, 3227.031 2222.325, 3226.017 2227 C 3220.953 2250.344, 3218.814 2259.775, 3217.940 2262.596 C 3217.413 2264.299, 3216.107 2269.474, 3215.039 2274.096 C 3211.841 2287.928, 3209.972 2295.329, 3208.878 2298.500 C 3208.308 2300.150, 3206.751 2305.680, 3205.418 2310.789 C 3204.085 2315.898, 3202.371 2321.569, 3201.610 2323.391 C 3200.849 2325.213, 3199.904 2328.607, 3199.511 2330.934 C 3199.118 2333.260, 3198.170 2336.364, 3197.404 2337.832 C 3196.639 2339.299, 3196.010 2341.093, 3196.006 2341.818 C 3195.994 2344.410, 3178.011 2396.669, 3169.447 2419 C 3167.443 2424.225, 3164.667 2431.650, 3163.278 2435.500 C 3161.889 2439.350, 3160.396 2442.950, 3159.961 2443.500 C 3159.526 2444.050, 3158.061 2447.425, 3156.706 2451 C 3155.350 2454.575, 3153.062 2460.059, 3151.620 2463.186 C 3150.179 2466.313, 3149 2469.213, 3149 2469.629 C 3149 2470.046, 3147.474 2473.562, 3145.609 2477.443 C 3143.745 2481.325, 3141.255 2486.750, 3140.077 2489.500 C 3133.210 2505.529, 3099.619 2572.487, 3093.719 2581.908 C 3092.498 2583.856, 3090.150 2588.020, 3088.500 2591.160 C 3084.682 2598.427, 3078.382 2609.478, 3075.479 2614 C 3074.243 2615.925, 3069.552 2623.575, 3065.054 2631 C 3053.480 2650.107, 3051.687 2652.942, 3042.073 2667.341 C 3037.358 2674.403, 3031.925 2682.561, 3030 2685.470 C 3023.245 2695.676, 3014.984 2707.567, 3009.767 2714.595 C 3006.870 2718.497, 3002.925 2723.847, 3001 2726.484 C 2999.075 2729.121, 2996.150 2733.071, 2994.500 2735.262 C 2992.850 2737.452, 2990 2741.327, 2988.166 2743.872 C 2986.333 2746.417, 2983.623 2749.850, 2982.143 2751.500 C 2980.664 2753.150, 2978.345 2756.075, 2976.989 2758 C 2975.634 2759.925, 2970.919 2765.905, 2966.513 2771.289 C 2962.106 2776.673, 2956.772 2783.198, 2954.660 2785.789 C 2952.548 2788.380, 2948.730 2792.918, 2946.175 2795.874 C 2943.620 2798.830, 2940.623 2802.461, 2939.515 2803.944 C 2938.407 2805.426, 2935.475 2808.835, 2933 2811.519 C 2928.409 2816.497, 2922.341 2823.205, 2909 2838.051 C 2904.875 2842.640, 2899.250 2848.696, 2896.500 2851.508 C 2893.750 2854.319, 2884.274 2864.018, 2875.442 2873.060 C 2858.908 2889.987, 2839.171 2909.125, 2825.366 2921.618 C 2805.903 2939.230, 2798.156 2946.108, 2791.006 2952.127 C 2787.978 2954.677, 2783.956 2958.166, 2782.070 2959.881 C 2780.183 2961.597, 2778.383 2963.002, 2778.070 2963.005 C 2777.756 2963.007, 2776.150 2964.272, 2774.500 2965.815 C 2770.808 2969.268, 2736.299 2997.022, 2731.751 3000.197 C 2728.255 3002.636, 2721.318 3007.867, 2712.714 3014.550 C 2709.846 3016.777, 2704.651 3020.602, 2701.168 3023.050 C 2697.686 3025.497, 2691.161 3030.099, 2686.668 3033.275 C 2682.176 3036.451, 2675.125 3041.350, 2671 3044.163 C 2666.875 3046.975, 2663.275 3049.573, 2663 3049.936 C 2662.725 3050.299, 2660.272 3051.884, 2657.549 3053.458 C 2654.827 3055.032, 2650.681 3057.710, 2648.336 3059.410 C 2645.992 3061.109, 2639.765 3065.200, 2634.499 3068.500 C 2629.233 3071.800, 2621.362 3076.750, 2617.007 3079.500 C 2592.021 3095.280, 2569.992 3107.965, 2534.293 3127.130 C 2512.857 3138.638, 2507.216 3141.575, 2500 3144.980 C 2497.525 3146.148, 2493.700 3148.059, 2491.500 3149.228 C 2484.655 3152.865, 2472.200 3158.740, 2454 3166.917 C 2447.675 3169.759, 2441.150 3172.800, 2439.500 3173.676 C 2437.850 3174.551, 2432.900 3176.742, 2428.500 3178.544 C 2424.100 3180.346, 2417.575 3183.020, 2414 3184.485 C 2410.425 3185.950, 2405.925 3187.865, 2404 3188.740 C 2396.025 3192.366, 2382.842 3197.515, 2355 3207.881 C 2345.925 3211.260, 2336.250 3214.871, 2333.500 3215.905 C 2330.750 3216.939, 2326.475 3218.452, 2324 3219.267 C 2301.235 3226.762, 2287.543 3231.326, 2282.500 3233.103 C 2279.200 3234.265, 2274.700 3235.640, 2272.500 3236.158 C 2270.300 3236.676, 2266.025 3237.926, 2263 3238.936 C 2259.975 3239.946, 2252.325 3242.218, 2246 3243.985 C 2239.675 3245.753, 2231.373 3248.094, 2227.552 3249.188 C 2215.288 3252.700, 2189.711 3259.218, 2182.712 3260.615 C 2178.979 3261.360, 2175.071 3262.427, 2174.028 3262.985 C 2172.985 3263.543, 2171.062 3264, 2169.754 3264 C 2168.447 3264, 2164.029 3264.834, 2159.938 3265.854 C 2155.847 3266.874, 2147.775 3268.711, 2142 3269.937 C 2136.225 3271.162, 2128.350 3272.871, 2124.500 3273.733 C 2118.161 3275.153, 2109.432 3276.725, 2095.500 3278.955 C 2092.750 3279.395, 2088.025 3280.231, 2085 3280.812 C 2081.975 3281.392, 2075 3282.593, 2069.500 3283.481 C 2064 3284.368, 2055.900 3285.750, 2051.500 3286.551 C 2047.100 3287.353, 2041.697 3288.007, 2039.493 3288.005 C 2037.290 3288.002, 2033.915 3288.474, 2031.993 3289.053 C 2030.072 3289.633, 2024.450 3290.543, 2019.500 3291.077 C 2014.550 3291.610, 2006.450 3292.502, 2001.500 3293.057 C 1979.295 3295.551, 1973.482 3296.136, 1957.500 3297.488 C 1905.721 3301.869, 1895.317 3302.264, 1829 3302.362 C 1770.600 3302.448, 1759.868 3302.211, 1730 3300.176 C 1673.841 3296.351, 1663.336 3295.376, 1641.385 3291.953 C 1638.021 3291.429, 1633.521 3291.003, 1631.385 3291.007 C 1629.248 3291.010, 1623.675 3290.364, 1619 3289.570 C 1607.601 3287.634, 1596.882 3285.994, 1589 3284.981 C 1585.425 3284.521, 1580.025 3283.678, 1577 3283.106 C 1573.975 3282.535, 1567 3281.351, 1561.500 3280.477 C 1556 3279.602, 1547.628 3278.012, 1542.896 3276.943 C 1538.163 3275.874, 1532.932 3275, 1531.271 3275 C 1529.610 3275, 1526.342 3274.326, 1524.008 3273.503 C 1521.673 3272.679, 1516.779 3271.573, 1513.132 3271.045 C 1505.095 3269.882, 1484.462 3265.390, 1481 3264.049 C 1479.625 3263.517, 1476.700 3262.781, 1474.500 3262.415 C 1472.300 3262.049, 1463.525 3259.958, 1455 3257.769 C 1446.475 3255.580, 1436.800 3253.170, 1433.500 3252.414 C 1430.200 3251.658, 1425.700 3250.375, 1423.500 3249.564 C 1421.300 3248.752, 1418.825 3248.077, 1418 3248.064 C 1416.666 3248.043, 1412.227 3246.789, 1389.500 3240.014 C 1375.219 3235.757, 1356.006 3229.633, 1350 3227.425 C 1346.425 3226.111, 1341.925 3224.738, 1340 3224.375 C 1338.075 3224.012, 1335.322 3223.123, 1333.881 3222.399 C 1332.441 3221.676, 1327.266 3219.748, 1322.381 3218.114 C 1317.497 3216.480, 1309 3213.487, 1303.500 3211.461 C 1298 3209.436, 1291.025 3206.920, 1288 3205.869 C 1284.975 3204.819, 1280.025 3202.899, 1277 3201.601 C 1273.975 3200.304, 1267.225 3197.555, 1262 3195.491 C 1236.279 3185.335, 1231.373 3183.327, 1223 3179.529 C 1218.875 3177.659, 1210.775 3174.036, 1205 3171.479 C 1199.225 3168.921, 1192.250 3165.789, 1189.500 3164.519 C 1179.050 3159.689, 1162.341 3151.768, 1158.500 3149.822 C 1156.300 3148.708, 1152.250 3146.690, 1149.500 3145.339 C 1146.750 3143.987, 1143.150 3142.177, 1141.500 3141.316 C 1139.850 3140.456, 1133.550 3137.180, 1127.500 3134.038 C 1121.450 3130.895, 1112.900 3126.372, 1108.500 3123.985 C 1104.100 3121.599, 1098.195 3118.447, 1095.377 3116.982 C 1092.560 3115.516, 1088.906 3113.357, 1087.258 3112.184 C 1085.610 3111.010, 1083.094 3109.606, 1081.668 3109.064 C 1080.242 3108.522, 1076.471 3106.446, 1073.288 3104.451 C 1070.104 3102.456, 1062.550 3097.951, 1056.500 3094.441 C 1044.407 3087.424, 1037.694 3083.362, 1029.142 3077.889 C 1024.067 3074.640, 1001.914 3060.402, 991.975 3054 C 986.711 3050.609, 969.999 3039.113, 961.841 3033.269 C 958.179 3030.646, 951.879 3026.137, 947.841 3023.250 C 930.102 3010.563, 900.442 2988.077, 892.898 2981.595 C 890.916 2979.893, 885.332 2975.350, 880.487 2971.500 C 875.643 2967.650, 869.326 2962.475, 866.449 2960 C 863.572 2957.525, 857.285 2952.125, 852.476 2948 C 802.024 2904.716, 740.331 2842.618, 702 2796.533 C 698.425 2792.234, 693.700 2786.616, 691.500 2784.046 C 689.300 2781.477, 684.350 2775.438, 680.500 2770.626 C 676.650 2765.815, 671.450 2759.318, 668.945 2756.189 C 666.439 2753.060, 660.663 2745.550, 656.110 2739.500 C 651.556 2733.450, 647.151 2727.657, 646.320 2726.627 C 644.142 2723.927, 633.383 2709.023, 627.190 2700.127 C 613.278 2680.145, 606.264 2669.742, 600.234 2660.150 C 598.730 2657.758, 595.250 2652.323, 592.500 2648.074 C 581.684 2631.360, 573.232 2617.602, 569.417 2610.500 C 567.940 2607.750, 565.443 2603.622, 563.869 2601.326 C 562.296 2599.030, 560.576 2596.014, 560.047 2594.624 C 559.519 2593.234, 557.838 2590.163, 556.312 2587.799 C 554.786 2585.434, 552.127 2580.800, 550.402 2577.500 C 548.677 2574.200, 545.784 2568.800, 543.973 2565.500 C 530.049 2540.132, 500.419 2478.311, 493.407 2460 C 492.459 2457.525, 491.334 2455.040, 490.908 2454.477 C 490.481 2453.914, 489.025 2450.539, 487.672 2446.977 C 486.319 2443.415, 482.868 2434.650, 480.002 2427.500 C 477.137 2420.350, 473.978 2412.250, 472.982 2409.500 C 471.987 2406.750, 469.518 2400, 467.496 2394.500 C 462.035 2379.644, 458.127 2368.293, 455.961 2361 C 454.899 2357.425, 453.384 2352.925, 452.593 2351 C 449.855 2344.330, 437 2300.095, 431.961 2280 C 430.789 2275.325, 429.193 2269.250, 428.414 2266.500 C 426.669 2260.338, 423.382 2245.942, 421.503 2236.233 C 420.730 2232.236, 419.826 2228.527, 419.494 2227.991 C 419.163 2227.454, 418.461 2224.199, 417.935 2220.758 C 417.409 2217.316, 416.347 2211.800, 415.575 2208.500 C 414.803 2205.200, 413.452 2198.225, 412.573 2193 C 411.694 2187.775, 410.474 2180.800, 409.862 2177.500 C 409.249 2174.200, 408.417 2169.025, 408.013 2166 C 407.609 2162.975, 406.743 2157.125, 406.089 2153 C 402.644 2131.281, 401.988 2126.646, 400.993 2117 C 400.397 2111.225, 399.479 2103.488, 398.954 2099.807 C 398.430 2096.126, 398 2091.086, 398 2088.607 C 398 2086.127, 397.570 2081.939, 397.044 2079.299 C 393.536 2061.700, 391.216 1960.137, 393.792 1937 C 395.329 1923.198, 396.445 1912.906, 397.856 1899.500 C 398.436 1894, 399.341 1887.250, 399.869 1884.500 C 400.397 1881.750, 401.342 1875.450, 401.969 1870.500 C 404.119 1853.533, 406.732 1837.474, 411.453 1812.230 C 412.304 1807.681, 413 1802.699, 413 1801.158 C 413 1799.617, 413.656 1796.364, 414.458 1793.928 C 415.260 1791.493, 416.385 1785.984, 416.957 1781.687 C 417.529 1777.389, 418.403 1773.114, 418.898 1772.187 C 419.393 1771.259, 420.103 1767.800, 420.477 1764.500 C 420.850 1761.200, 421.772 1756.475, 422.525 1754 C 423.278 1751.525, 424.176 1747.250, 424.520 1744.500 C 424.863 1741.750, 425.568 1738.375, 426.085 1737 C 426.602 1735.625, 427.682 1731.125, 428.485 1727 C 429.288 1722.875, 430.839 1715.675, 431.932 1711 C 433.025 1706.325, 434.807 1698.675, 435.893 1694 C 437.826 1685.673, 440.569 1674.500, 445.589 1654.500 C 446.969 1649, 448.933 1641.002, 449.952 1636.726 C 450.971 1632.450, 452.123 1628.175, 452.513 1627.226 C 453.201 1625.547, 456.613 1613.129, 459.444 1602 C 460.879 1596.355, 466.580 1576.412, 469.305 1567.500 C 470.146 1564.750, 472.242 1557.775, 473.963 1552 C 478.524 1536.700, 483.114 1522.010, 484.587 1518 C 485.295 1516.075, 487.042 1510.900, 488.469 1506.500 C 498.345 1476.070, 501.306 1467.561, 513.004 1436 C 520.852 1414.825, 532.790 1387.308, 536.757 1381.250 C 537.624 1379.925, 537.794 1379, 537.170 1379 C 535.958 1379, 538.177 1373.665, 549.648 1349 C 556.199 1334.913, 566.611 1315.297, 570.613 1309.500 C 579.088 1297.226, 582.772 1290.318, 586.080 1280.500 C 589.430 1270.560, 589.506 1250.835, 586.234 1240.408 C 579.929 1220.310, 566.217 1204.867, 546.899 1196.108 C 537.389 1191.796, 529.949 1190.655, 515.239 1191.253 C 504.823 1191.676, 501.304 1192.233, 495.941 1194.305 C 486.802 1197.836, 478.146 1203.100, 471.517 1209.158 C 465.701 1214.474, 454.039 1231.232, 447.592 1243.537 C 445.585 1247.367, 442.572 1252.718, 440.896 1255.429 C 439.220 1258.140, 436.819 1263.090, 435.561 1266.429 C 434.303 1269.768, 431.852 1274.605, 430.115 1277.178 C 428.377 1279.752, 425.780 1284.477, 424.345 1287.678 C 422.910 1290.880, 420.029 1297.100, 417.944 1301.500 C 412.126 1313.778, 408 1322.943, 408 1323.591 C 408 1323.913, 406.601 1327.174, 404.891 1330.838 C 403.181 1334.502, 401.206 1339.103, 400.502 1341.061 C 398.896 1345.529, 396.107 1351.755, 390.002 1364.500 C 378.402 1388.717, 376 1393.896, 376 1394.688 C 376 1395.151, 375.062 1397.280, 373.915 1399.420 C 372.768 1401.560, 370.322 1406.954, 368.481 1411.406 C 366.639 1415.857, 363.021 1424.450, 360.442 1430.500 C 357.863 1436.550, 354.876 1443.942, 353.804 1446.928 C 352.733 1449.913, 350.088 1456.493, 347.928 1461.549 C 345.768 1466.606, 344 1471.492, 344 1472.407 C 344 1473.322, 343.372 1475.067, 342.604 1476.285 C 341.836 1477.503, 340.015 1482.100, 338.559 1486.500 C 337.102 1490.900, 335.477 1495.400, 334.948 1496.500 C 333.123 1500.293, 325.866 1521.515, 324.378 1527.410 C 323.558 1530.660, 322.290 1534.485, 321.561 1535.910 C 320.831 1537.334, 319.273 1542.100, 318.098 1546.500 C 316.922 1550.900, 315.517 1555.400, 314.976 1556.500 C 313.823 1558.840, 308.486 1576.838, 306.375 1585.500 C 305.571 1588.800, 304.435 1592.850, 303.849 1594.500 C 302.724 1597.675, 299.461 1609.893, 295.971 1624 C 294.814 1628.675, 293.248 1634.750, 292.490 1637.500 C 291.732 1640.250, 290.600 1645.200, 289.975 1648.500 C 289.350 1651.800, 287.975 1657.360, 286.919 1660.855 C 285.864 1664.351, 285 1668.753, 285 1670.637 C 285 1672.522, 284.335 1675.655, 283.523 1677.600 C 282.710 1679.545, 281.597 1684.713, 281.049 1689.085 C 280.500 1693.458, 279.613 1697.854, 279.077 1698.855 C 278.541 1699.857, 277.646 1704.237, 277.087 1708.588 C 276.528 1712.940, 275.380 1719.109, 274.536 1722.299 C 273.691 1725.488, 272.995 1729.763, 272.989 1731.799 C 272.983 1733.834, 272.308 1737.709, 271.489 1740.409 C 270.670 1743.109, 269.984 1747.159, 269.964 1749.409 C 269.945 1751.659, 269.277 1756.200, 268.480 1759.500 C 267.683 1762.800, 267.027 1767.075, 267.022 1769 C 267.017 1770.925, 266.362 1776.325, 265.565 1781 C 263.369 1793.891, 257.249 1850.568, 257.197 1858.500 C 257.190 1859.600, 256.708 1867.025, 256.126 1875 C 255.105 1889.001, 253.520 1924.004, 252.464 1955.883 C 252.183 1964.343, 251.725 1971.636, 251.445 1972.089 C 250.490 1973.634, 250.900 2030.463, 251.964 2044 C 252.547 2051.425, 253.727 2060.200, 254.585 2063.500 C 256.698 2071.626, 257.796 2079.175, 259.021 2094 C 260.081 2106.840, 261.561 2121.431, 262.519 2128.500 C 262.817 2130.700, 263.733 2138.125, 264.555 2145 C 265.945 2156.633, 267.174 2165.013, 270.052 2182.500 C 270.686 2186.350, 271.554 2192.200, 271.981 2195.500 C 272.844 2202.166, 273.978 2208.169, 281.235 2244.500 C 283.981 2258.250, 286.565 2270.175, 286.976 2271 C 287.387 2271.825, 288.013 2274.718, 288.367 2277.429 C 288.721 2280.141, 289.675 2284.641, 290.486 2287.429 C 292.141 2293.118, 295.671 2307.295, 297.037 2313.742 C 297.532 2316.075, 299.306 2322.825, 300.979 2328.742 C 302.653 2334.659, 305.165 2343.550, 306.562 2348.500 C 311.304 2365.306, 318.714 2389.134, 323.200 2402 C 324.830 2406.675, 326.588 2412.228, 327.107 2414.340 C 327.626 2416.452, 329.113 2420.727, 330.411 2423.840 C 331.709 2426.953, 333.099 2431.075, 333.501 2433 C 333.902 2434.925, 334.564 2436.950, 334.970 2437.500 C 335.377 2438.050, 336.275 2440.075, 336.965 2442 C 344.917 2464.166, 354.322 2488.253, 362.539 2507.500 C 365.122 2513.550, 368.782 2522.265, 370.671 2526.867 C 372.561 2531.469, 374.741 2536.202, 375.516 2537.384 C 376.290 2538.566, 377.559 2541.333, 378.335 2543.534 C 381.489 2552.471, 408.002 2605.909, 424.213 2636 C 433.632 2653.485, 439.311 2663.639, 440.430 2665 C 441.109 2665.825, 442.925 2668.975, 444.465 2672 C 446.005 2675.025, 448.494 2679.300, 449.996 2681.500 C 451.498 2683.700, 453.641 2687.300, 454.759 2689.500 C 455.877 2691.700, 458.301 2695.832, 460.146 2698.682 C 461.991 2701.533, 466.200 2708.205, 469.500 2713.510 C 481.761 2733.222, 487.666 2742.256, 500.537 2761 C 502.991 2764.575, 506.237 2769.487, 507.750 2771.915 C 509.262 2774.344, 512.315 2778.619, 514.533 2781.415 C 516.750 2784.212, 519.937 2788.525, 521.614 2791 C 526.232 2797.817, 539.189 2815.455, 546.592 2825 C 561.273 2843.931, 564.324 2847.821, 570.283 2855.206 C 573.702 2859.445, 578.718 2865.745, 581.428 2869.206 C 584.138 2872.668, 588.413 2877.807, 590.928 2880.627 C 593.443 2883.447, 598.875 2889.673, 603 2894.464 C 614.681 2908.030, 631.800 2927.145, 645.500 2941.920 C 669.817 2968.147, 727.183 3023.453, 753.974 3046.500 C 759.089 3050.900, 765.349 3056.348, 767.887 3058.606 C 770.424 3060.864, 774.587 3064.286, 777.138 3066.212 C 779.689 3068.137, 783.561 3071.364, 785.743 3073.383 C 787.926 3075.402, 791.950 3078.729, 794.687 3080.777 C 797.424 3082.825, 800.469 3085.311, 801.455 3086.302 C 802.440 3087.293, 806.453 3090.559, 810.373 3093.560 C 817.972 3099.378, 823.014 3103.314, 832.286 3110.664 C 835.468 3113.186, 839.807 3116.431, 841.929 3117.875 C 844.050 3119.319, 847.522 3121.925, 849.643 3123.667 C 853.413 3126.762, 855.508 3128.271, 870.234 3138.500 C 874.193 3141.250, 880.431 3145.750, 884.096 3148.500 C 887.762 3151.250, 892.052 3154.283, 893.630 3155.240 C 895.209 3156.197, 899.425 3158.994, 903 3161.456 C 915.632 3170.154, 921.603 3174.149, 931 3180.190 C 936.225 3183.550, 943.425 3188.189, 947 3190.501 C 950.575 3192.813, 955.525 3195.922, 958 3197.412 C 960.475 3198.901, 966.775 3202.793, 972 3206.060 C 977.225 3209.327, 984.200 3213.401, 987.500 3215.113 C 990.800 3216.824, 994.175 3218.794, 995 3219.490 C 995.825 3220.186, 999.425 3222.337, 1003 3224.269 C 1010.090 3228.101, 1022.742 3235.266, 1027.500 3238.143 C 1029.150 3239.141, 1033.875 3241.729, 1038 3243.896 C 1042.125 3246.062, 1050.675 3250.551, 1057 3253.871 C 1079.903 3265.893, 1124.179 3287.572, 1142 3295.492 C 1147.775 3298.058, 1156.325 3301.886, 1161 3303.998 C 1165.675 3306.110, 1170.625 3308.151, 1172 3308.533 C 1173.375 3308.915, 1175.850 3310.028, 1177.500 3311.006 C 1179.150 3311.984, 1183.875 3313.985, 1188 3315.452 C 1192.125 3316.919, 1196.400 3318.699, 1197.500 3319.406 C 1198.600 3320.114, 1201.975 3321.498, 1205 3322.482 C 1208.025 3323.466, 1211.850 3324.956, 1213.500 3325.794 C 1218.674 3328.422, 1269.973 3347.393, 1283.500 3351.681 C 1286.250 3352.553, 1291.875 3354.553, 1296 3356.126 C 1300.125 3357.698, 1305.075 3359.285, 1307 3359.652 C 1308.925 3360.019, 1312.449 3361.148, 1314.832 3362.160 C 1317.215 3363.171, 1322.840 3364.938, 1327.332 3366.085 C 1331.824 3367.232, 1335.954 3368.547, 1336.510 3369.008 C 1337.065 3369.469, 1341.565 3370.834, 1346.510 3372.042 C 1351.454 3373.250, 1356.362 3374.691, 1357.416 3375.243 C 1359.141 3376.148, 1371.110 3379.470, 1387.500 3383.592 C 1390.800 3384.422, 1395.664 3385.808, 1398.308 3386.672 C 1400.952 3387.536, 1406.577 3389.038, 1410.808 3390.009 C 1415.039 3390.981, 1422.100 3392.712, 1426.500 3393.855 C 1441.608 3397.782, 1455.774 3401, 1457.952 3401 C 1459.151 3401, 1461.087 3401.511, 1462.255 3402.137 C 1463.423 3402.762, 1468.006 3403.875, 1472.440 3404.612 C 1476.873 3405.348, 1489.050 3407.728, 1499.500 3409.901 C 1528.713 3415.976, 1534.253 3417.010, 1537.568 3417.005 C 1539.255 3417.002, 1543.980 3417.889, 1548.068 3418.976 C 1552.155 3420.064, 1557.391 3420.964, 1559.701 3420.976 C 1562.012 3420.989, 1566.494 3421.675, 1569.661 3422.500 C 1572.829 3423.325, 1577.554 3424, 1580.161 3424 C 1582.769 3424, 1587.494 3424.675, 1590.661 3425.500 C 1593.829 3426.325, 1598.688 3427.011, 1601.460 3427.024 C 1604.232 3427.037, 1608.300 3427.502, 1610.500 3428.058 C 1614.338 3429.028, 1623.138 3430.116, 1642.500 3432.015 C 1647.450 3432.501, 1656.450 3433.392, 1662.500 3433.995 C 1714.170 3439.146, 1757.086 3441.205, 1816 3441.360 C 1863.211 3441.484, 1919.423 3440.457, 1921.089 3439.440 C 1921.413 3439.243, 1925.238 3438.855, 1929.589 3438.579 C 1933.940 3438.303, 1944.925 3437.606, 1954 3437.029 C 1963.075 3436.453, 1972.216 3435.716, 1974.313 3435.392 C 1976.411 3435.068, 1982.936 3434.408, 1988.813 3433.926 C 2009.487 3432.231, 2018.799 3431.243, 2019.775 3430.639 C 2020.317 3430.304, 2025.877 3429.519, 2032.130 3428.894 C 2047.576 3427.351, 2055.307 3426.412, 2063 3425.144 C 2066.575 3424.554, 2072.425 3423.588, 2076 3422.997 C 2079.575 3422.406, 2086.202 3421.511, 2090.726 3421.009 C 2095.251 3420.507, 2099.834 3419.624, 2100.911 3419.048 C 2101.987 3418.472, 2104.714 3418, 2106.970 3418 C 2109.227 3418, 2114.769 3417.143, 2119.286 3416.095 C 2123.804 3415.047, 2132 3413.425, 2137.500 3412.490 C 2143 3411.555, 2151.180 3409.938, 2155.677 3408.895 C 2160.175 3407.853, 2164.660 3407, 2165.645 3407 C 2166.630 3407, 2171.050 3406.127, 2175.468 3405.060 C 2179.885 3403.992, 2189.800 3401.722, 2197.500 3400.014 C 2205.200 3398.307, 2213.750 3396.283, 2216.500 3395.517 C 2219.250 3394.750, 2227.350 3392.733, 2234.500 3391.032 C 2241.650 3389.332, 2250.425 3387.075, 2254 3386.017 C 2257.575 3384.958, 2261.850 3383.796, 2263.500 3383.435 C 2269.897 3382.035, 2316.549 3368.173, 2329.500 3363.824 C 2332.800 3362.716, 2338.200 3360.993, 2341.500 3359.995 C 2344.800 3358.996, 2353.575 3356.061, 2361 3353.471 C 2368.425 3350.881, 2376.525 3348.092, 2379 3347.273 C 2381.475 3346.453, 2386.650 3344.536, 2390.500 3343.012 C 2394.350 3341.488, 2399.975 3339.452, 2403 3338.488 C 2406.025 3337.524, 2408.950 3336.398, 2409.500 3335.987 C 2410.050 3335.575, 2413.875 3334.078, 2418 3332.661 C 2426.624 3329.698, 2441.093 3323.944, 2448.777 3320.420 C 2451.680 3319.089, 2454.484 3318, 2455.009 3318 C 2455.534 3318, 2459.753 3316.249, 2464.384 3314.110 C 2469.015 3311.970, 2474.415 3309.688, 2476.383 3309.038 C 2478.352 3308.389, 2483.009 3306.378, 2486.732 3304.570 C 2490.454 3302.761, 2494.625 3300.935, 2496 3300.510 C 2497.375 3300.085, 2501.425 3298.281, 2505 3296.500 C 2508.575 3294.719, 2512.581 3292.926, 2513.902 3292.515 C 2515.223 3292.105, 2518.373 3290.563, 2520.902 3289.089 C 2523.431 3287.615, 2527.525 3285.647, 2530 3284.715 C 2537.972 3281.713, 2608.615 3245.693, 2614.882 3241.434 C 2616.852 3240.095, 2618.796 3239, 2619.201 3239 C 2619.607 3239, 2623.762 3236.742, 2628.434 3233.982 C 2633.106 3231.222, 2637.733 3228.674, 2638.715 3228.319 C 2639.697 3227.965, 2643.425 3225.817, 2647 3223.547 C 2650.575 3221.277, 2655.975 3218.138, 2659 3216.570 C 2662.025 3215.002, 2665.850 3212.711, 2667.500 3211.478 C 2669.150 3210.245, 2672.075 3208.457, 2674 3207.505 C 2675.925 3206.553, 2680.425 3203.855, 2684 3201.510 C 2687.575 3199.165, 2692.525 3196.033, 2695 3194.550 C 2704.415 3188.908, 2724.122 3176.189, 2734.500 3169.056 C 2749.068 3159.043, 2753.901 3155.747, 2760 3151.666 C 2763.575 3149.274, 2769.650 3144.999, 2773.500 3142.166 C 2777.350 3139.333, 2782.975 3135.199, 2786 3132.978 C 2789.025 3130.757, 2794.370 3126.816, 2797.878 3124.220 C 2801.385 3121.624, 2806.335 3117.995, 2808.878 3116.156 C 2811.420 3114.316, 2816.425 3110.457, 2820 3107.579 C 2823.575 3104.701, 2835.406 3095.181, 2846.292 3086.423 C 2874.208 3063.964, 2874.794 3063.482, 2881.810 3057.197 C 2885.280 3054.088, 2888.492 3051.309, 2888.946 3051.022 C 2891.061 3049.686, 2910.082 3032.394, 2934.054 3010.014 C 2967.543 2978.750, 3027.860 2915.912, 3041.500 2898.078 C 3042.600 2896.640, 3045.630 2893.222, 3048.233 2890.482 C 3050.836 2887.742, 3052.974 2885.129, 3052.983 2884.676 C 3052.992 2884.222, 3055.381 2881.297, 3058.292 2878.176 C 3061.202 2875.054, 3065.495 2870.025, 3067.832 2867 C 3073.863 2859.192, 3080.987 2850.160, 3086.637 2843.157 C 3094.764 2833.085, 3108.238 2815.388, 3116.500 2803.935 C 3132.282 2782.059, 3139.539 2771.708, 3148.088 2758.883 C 3150.062 2755.922, 3152.987 2751.537, 3154.588 2749.138 C 3156.190 2746.738, 3159.300 2741.938, 3161.500 2738.471 C 3163.700 2735.003, 3167.300 2729.459, 3169.500 2726.151 C 3171.700 2722.842, 3174.829 2717.968, 3176.453 2715.318 C 3188.910 2694.996, 3192.624 2688.811, 3195.258 2684 C 3196.914 2680.975, 3199.446 2676.700, 3200.884 2674.500 C 3202.323 2672.300, 3204.378 2668.700, 3205.450 2666.500 C 3206.523 2664.300, 3207.938 2661.825, 3208.595 2661 C 3209.252 2660.175, 3211.919 2655.450, 3214.521 2650.500 C 3217.123 2645.550, 3219.597 2641.050, 3220.018 2640.500 C 3224.568 2634.559, 3273 2535.584, 3273 2532.226 C 3273 2531.811, 3273.962 2529.677, 3275.138 2527.485 C 3276.313 2525.293, 3278.370 2520.575, 3279.708 2517 C 3281.047 2513.425, 3282.996 2508.700, 3284.041 2506.500 C 3286.629 2501.048, 3292.645 2486.150, 3296.035 2476.794 C 3297.571 2472.555, 3299.160 2468.550, 3299.566 2467.893 C 3299.972 2467.236, 3301.749 2462.604, 3303.516 2457.600 C 3305.283 2452.595, 3308.848 2442.650, 3311.440 2435.500 C 3314.032 2428.350, 3316.756 2420.347, 3317.495 2417.716 C 3318.233 2415.085, 3319.737 2410.585, 3320.837 2407.716 C 3321.937 2404.847, 3324.481 2397.100, 3326.489 2390.500 C 3339.389 2348.110, 3342.805 2336.152, 3346.915 2319 C 3347.904 2314.875, 3349.433 2309.025, 3350.314 2306 C 3351.194 2302.975, 3353.316 2294.200, 3355.028 2286.500 C 3356.741 2278.800, 3358.798 2270.025, 3359.600 2267 C 3360.403 2263.975, 3361.479 2258.800, 3361.993 2255.500 C 3362.837 2250.080, 3363.866 2244.764, 3367.026 2229.500 C 3368.855 2220.664, 3369.948 2214.704, 3371.426 2205.500 C 3374.941 2183.615, 3377.116 2170.061, 3378.023 2164.385 C 3378.560 2161.021, 3379 2156.518, 3379 2154.378 C 3379 2152.238, 3379.455 2148.915, 3380.012 2146.993 C 3380.568 2145.072, 3381.481 2138.775, 3382.041 2133 C 3382.601 2127.225, 3383.517 2118, 3384.078 2112.500 C 3393.463 2020.352, 3393.438 1918.367, 3384.010 1830.500 C 3383.420 1825, 3382.513 1816.450, 3381.995 1811.500 C 3379.960 1792.077, 3379.124 1785.286, 3378.117 1780 C 3376.982 1774.039, 3375.478 1763.752, 3374.051 1752.179 C 3373.555 1748.152, 3372.696 1742.752, 3372.142 1740.179 C 3370.588 1732.948, 3367.852 1718.345, 3366.396 1709.500 C 3365.671 1705.100, 3364.631 1699.700, 3364.083 1697.500 C 3362.612 1691.587, 3360.120 1679.549, 3358.554 1670.797 C 3357.796 1666.560, 3356.903 1662.653, 3356.570 1662.114 C 3356.237 1661.574, 3355.113 1657.166, 3354.073 1652.317 C 3347.870 1623.407, 3333.931 1574.032, 3321.236 1536 C 3318.207 1526.925, 3315.078 1517.475, 3314.283 1515 C 3313.488 1512.525, 3311.332 1506.450, 3309.492 1501.500 C 3307.652 1496.550, 3305.604 1490.700, 3304.943 1488.500 C 3304.281 1486.300, 3303.408 1484.050, 3303.002 1483.500 C 3302.597 1482.950, 3300.895 1478.675, 3299.219 1474 C 3295.107 1462.529, 3290.396 1450.618, 3287.439 1444.223 C 3286.098 1441.320, 3285 1438.516, 3285 1437.991 C 3285 1437.466, 3283.249 1433.247, 3281.110 1428.616 C 3278.970 1423.985, 3276.671 1418.533, 3276 1416.500 C 3275.329 1414.467, 3273.263 1409.811, 3271.409 1406.152 C 3269.555 1402.493, 3268.029 1399.084, 3268.019 1398.576 C 3268.008 1398.068, 3266.148 1393.793, 3263.884 1389.076 C 3261.621 1384.359, 3257.738 1376.225, 3255.256 1371 C 3252.774 1365.775, 3249.393 1358.800, 3247.742 1355.500 C 3246.092 1352.200, 3244.237 1348.400, 3243.620 1347.056 C 3236.748 1332.062, 3209.890 1282.424, 3195.705 1258.500 C 3186.332 1242.691, 3180.347 1232.941, 3176.361 1226.987 C 3173.962 1223.404, 3172 1220.138, 3172 1219.728 C 3172 1219.067, 3164.718 1207.831, 3155.973 1195 C 3151.986 1189.150, 3143.342 1176.068, 3139.378 1169.885 C 3137.660 1167.207, 3134.457 1162.650, 3132.260 1159.758 C 3130.062 1156.866, 3127.420 1153.150, 3126.388 1151.500 C 3125.357 1149.850, 3122.159 1145.350, 3119.283 1141.500 C 3116.407 1137.650, 3112.229 1132.025, 3109.998 1129 C 3097.038 1111.424, 3077.009 1085.841, 3064.590 1071 C 3062.059 1067.975, 3057.853 1062.820, 3055.244 1059.544 C 3052.635 1056.268, 3048.250 1051.030, 3045.500 1047.903 C 3042.750 1044.776, 3036.675 1037.818, 3032 1032.441 C 3023.891 1023.115, 3020.214 1019.055, 3004.434 1002.011 C 2978.641 974.151, 2924.948 921.001, 2913.500 911.996 C 2911.300 910.265, 2908.116 907.421, 2906.424 905.675 C 2904.732 903.929, 2898.931 898.675, 2893.534 894 C 2888.136 889.325, 2880.970 883.081, 2877.610 880.124 C 2874.249 877.167, 2869.925 873.567, 2868.001 872.124 C 2866.076 870.681, 2863.601 868.666, 2862.501 867.647 C 2857.458 862.977, 2830.265 841.093, 2823 835.859 C 2820.525 834.075, 2816.250 830.705, 2813.500 828.370 C 2810.750 826.034, 2806.391 822.633, 2803.814 820.811 C 2796.200 815.431, 2787.226 808.785, 2781.682 804.421 C 2778.832 802.177, 2774.475 799.155, 2772 797.705 C 2769.525 796.254, 2766.375 794.030, 2765 792.761 C 2763.625 791.493, 2759.350 788.349, 2755.500 785.776 C 2751.650 783.203, 2742.518 777.026, 2735.206 772.049 C 2727.895 767.072, 2721.688 763, 2721.413 763 C 2721.139 763, 2718.571 761.278, 2715.707 759.173 C 2712.843 757.068, 2707.350 753.445, 2703.500 751.122 C 2699.650 748.799, 2692 744.009, 2686.500 740.479 C 2681 736.949, 2674.408 732.937, 2671.851 731.565 C 2669.294 730.192, 2665.244 727.768, 2662.851 726.178 C 2658.451 723.255, 2654.410 720.919, 2639 712.391 C 2634.325 709.804, 2629.825 707.134, 2629 706.459 C 2628.175 705.783, 2624.125 703.453, 2620 701.280 C 2615.875 699.108, 2606.425 694.032, 2599 690.001 C 2591.575 685.970, 2584.150 682.041, 2582.500 681.270 C 2580.850 680.500, 2578.375 679.216, 2577 678.416 C 2572.139 675.591, 2526.465 653.213, 2524.098 652.496 C 2522.777 652.096, 2519.583 650.523, 2517 649 C 2514.417 647.477, 2511.223 645.896, 2509.902 645.486 C 2508.581 645.076, 2504.496 643.265, 2500.825 641.462 C 2497.153 639.658, 2493.103 637.850, 2491.825 637.445 C 2490.546 637.039, 2485.900 635.027, 2481.500 632.973 C 2477.100 630.919, 2472.375 628.897, 2471 628.478 C 2469.625 628.060, 2465.516 626.269, 2461.869 624.497 C 2458.221 622.726, 2453.961 620.956, 2452.401 620.565 C 2450.841 620.173, 2447.300 618.801, 2444.532 617.516 C 2437.061 614.046, 2411.182 604, 2409.715 604 C 2409.017 604, 2407.557 603.392, 2406.473 602.650 C 2405.388 601.907, 2400.450 599.905, 2395.500 598.201 C 2386.408 595.071, 2366.448 587.888, 2360 585.425 C 2358.075 584.689, 2355.726 584.068, 2354.780 584.044 C 2353.833 584.020, 2350.600 582.875, 2347.594 581.500 C 2344.588 580.125, 2341.590 579, 2340.933 579 C 2340.275 579, 2335.859 577.700, 2331.119 576.110 C 2326.378 574.521, 2317.325 571.628, 2311 569.681 C 2304.675 567.735, 2295.675 564.938, 2291 563.467 C 2286.325 561.995, 2280.025 560.195, 2277 559.465 C 2273.975 558.736, 2264.975 556.273, 2257 553.991 C 2249.025 551.710, 2239.800 549.279, 2236.500 548.588 C 2233.200 547.897, 2228.250 546.630, 2225.500 545.772 C 2222.750 544.913, 2214.200 542.798, 2206.500 541.071 C 2198.800 539.344, 2190.231 537.278, 2187.458 536.480 C 2184.685 535.682, 2179.735 534.598, 2176.458 534.071 C 2173.181 533.544, 2167.575 532.446, 2164 531.631 C 2160.425 530.815, 2152.550 529.195, 2146.500 528.029 C 2140.450 526.863, 2132.359 525.191, 2128.520 524.314 C 2124.681 523.436, 2118.606 522.344, 2115.020 521.887 C 2111.434 521.431, 2106.475 520.578, 2104 519.993 C 2101.525 519.407, 2096.301 518.561, 2092.392 518.111 C 2088.482 517.661, 2084.809 517, 2084.229 516.641 C 2083.648 516.283, 2079.422 515.576, 2074.837 515.071 C 2070.252 514.565, 2064.025 513.687, 2061 513.119 C 2057.975 512.551, 2051.450 511.574, 2046.500 510.947 C 2041.550 510.320, 2034.575 509.401, 2031 508.904 C 2014.683 506.638, 1975.500 502.806, 1944.500 500.444 C 1932.950 499.564, 1918.550 498.457, 1912.500 497.985 C 1896.889 496.765, 1764.105 495.969, 1748.500 497.002 M 838.757 699.566 C 838.616 699.702, 836.025 700.089, 833 700.426 C 825.343 701.279, 824.156 701.511, 823.362 702.304 C 822.980 702.687, 821.617 703, 820.333 703 C 819.050 703, 818 703.450, 818 704 C 818 704.550, 817.663 704.909, 817.250 704.798 C 815.724 704.387, 807.964 709.114, 804.045 712.843 C 801.820 714.959, 800 716.500, 800 716.268 C 800 716.036, 798.875 717.184, 797.500 718.818 C 796.125 720.452, 795 722.286, 795 722.894 C 795 723.502, 794.550 724, 794 724 C 793.450 724, 793 724.437, 793 724.970 C 793 725.504, 791.890 728.367, 790.534 731.332 C 788.121 736.607, 787.447 739.655, 786.577 749.227 C 786.340 751.826, 785.814 754.492, 785.407 755.150 C 785 755.808, 784.579 757.506, 784.470 758.923 C 783.799 767.664, 782.701 776.982, 781.986 780 C 781.530 781.925, 781.262 784.625, 781.391 786 C 781.521 787.375, 781.215 789.342, 780.713 790.371 C 780.211 791.400, 779.613 795, 779.384 798.371 C 779.155 801.742, 778.677 805.625, 778.321 807 C 777.965 808.375, 777.782 810.127, 777.914 810.894 C 778.046 811.660, 777.557 812.666, 776.827 813.128 C 775.934 813.695, 775.886 813.974, 776.680 813.985 C 777.562 813.996, 777.593 814.822, 776.803 817.250 C 776.221 819.038, 775.624 822.300, 775.476 824.500 C 774.758 835.151, 773.694 843.662, 772.890 845.184 C 772.400 846.111, 772 848.425, 772 850.327 C 772 855.011, 770.918 855.272, 758.500 853.590 C 755.750 853.218, 751.053 852.709, 748.061 852.460 C 745.070 852.211, 742.370 851.668, 742.061 851.253 C 741.352 850.301, 739.706 849.943, 734.032 849.505 C 731.539 849.313, 727.454 848.871, 724.954 848.523 C 722.454 848.176, 718.166 847.759, 715.424 847.598 C 712.683 847.437, 709.471 846.787, 708.286 846.153 C 707.101 845.519, 703.961 845, 701.309 845 C 698.657 845, 694.915 844.516, 692.993 843.924 C 691.072 843.332, 687.411 842.713, 684.857 842.549 C 682.304 842.385, 679.682 841.922, 679.031 841.519 C 678.380 841.117, 673.045 840.892, 667.174 841.018 C 652.877 841.327, 653 841.317, 653 842.214 C 653 842.646, 652.605 843, 652.122 843 C 651.639 843, 649.616 843.680, 647.627 844.511 C 645.637 845.343, 643.670 846.069, 643.255 846.125 C 642.256 846.261, 633.103 853.358, 630.250 856.210 C 629.013 857.446, 628 859.030, 628 859.729 C 628 860.428, 627.377 861, 626.617 861 C 625.856 861, 624.945 861.788, 624.592 862.750 C 624.239 863.712, 623.240 865.783, 622.372 867.352 C 621.503 868.921, 620.703 870.721, 620.592 871.352 C 620.481 871.983, 619.554 874.075, 618.532 876 C 617.009 878.866, 616.664 881.808, 616.624 892.237 C 616.592 900.465, 616.976 905.376, 617.709 906.109 C 618.333 906.733, 618.606 907.864, 618.315 908.622 C 618.024 909.380, 618.311 910, 618.952 910 C 619.593 910, 619.840 910.450, 619.500 911 C 619.160 911.550, 619.323 912, 619.862 912 C 620.400 912, 621.138 913.350, 621.500 915 C 621.862 916.650, 622.565 918, 623.060 918 C 623.556 918, 624.235 919.088, 624.569 920.418 C 624.902 921.747, 626.486 923.840, 628.088 925.067 C 629.689 926.295, 631 927.907, 631 928.650 C 631 929.392, 631.445 930, 631.989 930 C 632.918 930, 634.031 930.812, 639.334 935.356 C 641.575 937.275, 645.986 939.428, 647.182 939.184 C 647.557 939.108, 649.431 939.700, 651.346 940.500 C 653.261 941.300, 656.217 942.061, 657.914 942.190 C 659.611 942.320, 661 942.733, 661 943.108 C 661 943.484, 662.838 943.666, 665.084 943.514 C 667.330 943.361, 670.474 943.889, 672.071 944.685 C 673.668 945.482, 675.430 945.852, 675.987 945.508 C 676.544 945.164, 677.004 945.246, 677.009 945.691 C 677.013 946.136, 680.479 946.633, 684.711 946.795 C 688.942 946.958, 692.944 947.539, 693.605 948.087 C 694.265 948.635, 694.962 948.684, 695.153 948.197 C 695.344 947.709, 698.200 947.926, 701.500 948.680 C 708.414 950.259, 711.810 950.762, 717.750 951.090 C 720.087 951.219, 722 951.619, 722 951.980 C 722 952.341, 723.237 952.707, 724.750 952.794 C 728.471 953.006, 734.500 953.730, 734.500 953.964 C 734.500 954.424, 738.862 954.891, 744.927 955.080 C 748.542 955.192, 751.978 955.655, 752.561 956.108 C 753.145 956.561, 756.295 957.185, 759.561 957.494 C 762.828 957.804, 766.625 958.322, 768 958.647 C 769.375 958.971, 772.847 959.384, 775.715 959.564 C 778.583 959.744, 781.733 960.322, 782.715 960.847 C 783.697 961.372, 788.258 962.080, 792.852 962.420 C 797.445 962.760, 802 963.465, 802.974 963.986 C 803.949 964.508, 805.679 964.754, 806.820 964.535 C 807.960 964.315, 812.318 963.875, 816.503 963.556 C 821.752 963.157, 825.645 962.200, 829.056 960.472 C 831.775 959.094, 834.014 958.311, 834.032 958.733 C 834.049 959.155, 834.683 958.683, 835.441 957.683 C 836.198 956.684, 837.095 955.911, 837.433 955.966 C 838.985 956.215, 855.500 941.745, 855.500 940.136 C 855.500 939.761, 856.513 938.366, 857.750 937.038 C 858.987 935.710, 860 934.033, 860 933.311 C 860 932.590, 860.340 932, 860.756 932 C 861.647 932, 863.808 927.360, 864.249 924.500 C 864.419 923.400, 864.909 921.938, 865.338 921.250 C 865.767 920.563, 865.811 920, 865.437 920 C 865.062 920, 865.226 919.433, 865.801 918.740 C 866.376 918.047, 867.124 914.785, 867.463 911.490 C 868.595 900.476, 870.512 887.500, 871.007 887.500 C 871.329 887.500, 871.835 882.348, 872.065 876.716 C 872.195 873.535, 872.664 870.708, 873.107 870.434 C 873.550 870.160, 873.659 869.275, 873.349 868.468 C 873.040 867.661, 873.132 866.212, 873.555 865.250 C 873.977 864.288, 874.433 862.375, 874.567 861 C 874.702 859.625, 875.126 856.700, 875.511 854.500 C 875.896 852.300, 876.224 848.250, 876.239 845.500 C 876.254 842.750, 876.541 840.050, 876.876 839.500 C 877.212 838.950, 877.553 837.375, 877.636 836 C 877.718 834.625, 877.892 833.500, 878.023 833.500 C 878.153 833.500, 878.358 832.375, 878.478 831 C 878.598 829.625, 878.972 827.375, 879.310 826 C 879.648 824.625, 880.163 821.025, 880.454 818 C 880.744 814.975, 881.189 811.375, 881.441 810 C 882.275 805.459, 882.976 800.568, 883.521 795.500 C 883.817 792.750, 884.285 788.674, 884.562 786.442 C 884.838 784.210, 885.303 780.410, 885.594 777.998 C 885.884 775.585, 886.415 773.138, 886.772 772.560 C 887.129 771.982, 887.520 769.707, 887.641 767.505 C 887.762 765.302, 888.150 761.250, 888.503 758.500 C 889.369 751.766, 889.267 747.461, 888.101 741.500 C 886.526 733.443, 885.816 731.005, 884.881 730.426 C 884.396 730.127, 884 729.234, 884 728.441 C 884 727.648, 883.100 726.100, 882 725 C 880.900 723.900, 880 722.325, 880 721.500 C 880 720.675, 879.374 720, 878.608 720 C 877.843 720, 876.934 718.875, 876.589 717.500 C 876.184 715.886, 875.260 715, 873.981 715 C 872.667 715, 872 714.327, 872 713 C 872 711.750, 871.333 711, 870.222 711 C 869.244 711, 867.674 710.100, 866.732 709 C 865.790 707.900, 864.340 707, 863.510 707 C 862.679 707, 862 706.523, 862 705.941 C 862 705.359, 861.550 705.160, 861 705.500 C 860.450 705.840, 860 705.697, 860 705.182 C 860 703.913, 839.794 698.571, 838.757 699.566 M 967.750 719.749 C 966.788 719.968, 966 720.579, 966 721.109 C 966 721.688, 965.205 721.645, 964 721 C 962.469 720.181, 962 720.240, 962 721.251 C 962 722.497, 960.509 722.910, 955.250 723.121 C 954.013 723.171, 953 723.662, 953 724.213 C 953 724.763, 952.325 724.955, 951.500 724.638 C 950.586 724.288, 950 724.637, 950 725.531 C 950 726.950, 948.870 727.415, 946.250 727.075 C 945.563 726.985, 945 727.655, 945 728.563 C 945 729.614, 944.459 730.006, 943.512 729.643 C 942.652 729.313, 942.124 729.584, 942.262 730.286 C 942.393 730.954, 941.938 731.388, 941.250 731.250 C 940.121 731.024, 939.565 732.243, 939.882 734.250 C 939.947 734.663, 939.570 735, 939.045 735 C 938.520 735, 937.032 736.059, 935.739 737.352 C 934.445 738.646, 932.737 739.960, 931.943 740.273 C 930.930 740.673, 930.884 740.866, 931.789 740.921 C 932.638 740.973, 932.382 741.747, 931.039 743.189 C 929.918 744.392, 929 745.967, 929 746.689 C 929 747.410, 928.550 748, 928 748 C 927.450 748, 927 748.900, 927 750 C 927 751.100, 926.594 752, 926.098 752 C 924.946 752, 922.953 757.619, 923.803 758.469 C 924.154 758.821, 923.780 759.569, 922.971 760.131 C 921.819 760.931, 921.780 761.265, 922.792 761.673 C 923.769 762.068, 923.806 762.529, 922.946 763.566 C 922.320 764.320, 921.617 769.079, 921.383 774.141 C 921.150 779.203, 920.496 783.902, 919.931 784.583 C 919.224 785.435, 919.236 786.028, 919.968 786.480 C 920.553 786.842, 920.820 787.483, 920.559 787.905 C 919.635 789.400, 917.142 803.539, 917.368 806 C 917.495 807.375, 917.270 809.737, 916.869 811.250 C 916.377 813.106, 916.523 814.005, 917.320 814.015 C 918.168 814.026, 918.186 814.237, 917.385 814.765 C 916.772 815.169, 916.362 816.962, 916.474 818.750 C 916.587 820.538, 916.301 822, 915.839 822 C 915.378 822, 915 823.321, 915 824.935 C 915 826.549, 914.561 829.024, 914.025 830.435 C 913.345 832.223, 913.382 833, 914.147 833 C 914.925 833, 914.936 833.373, 914.184 834.278 C 913.600 834.981, 912.855 839.594, 912.528 844.528 C 911.890 854.152, 911.224 861.500, 910.991 861.500 C 910.569 861.500, 909.862 866.261, 909.431 872 C 909.163 875.575, 908.539 879.711, 908.044 881.191 C 907.420 883.060, 907.505 884.029, 908.323 884.365 C 909.091 884.680, 909.153 885.135, 908.500 885.674 C 907.513 886.489, 907.314 887.675, 906.515 897.500 C 906.291 900.250, 905.720 903.850, 905.246 905.500 C 904.772 907.150, 904.444 910.862, 904.517 913.750 C 904.591 916.638, 904.327 919, 903.930 919 C 903.534 919, 903.042 920.762, 902.837 922.916 C 902.631 925.070, 902.789 926.630, 903.188 926.384 C 904.029 925.864, 903.461 931.445, 902.517 932.972 C 902.168 933.537, 902.414 934, 903.063 934 C 903.944 934, 903.928 934.382, 903 935.500 C 901.993 936.713, 902.026 937, 903.174 937 C 904.081 937, 904.554 937.991, 904.485 939.750 C 904.425 941.263, 904.837 943.400, 905.401 944.500 C 905.964 945.600, 906.321 946.862, 906.195 947.304 C 906.068 947.746, 906.647 948.790, 907.482 949.625 C 908.317 950.460, 909 951.911, 909 952.849 C 909 953.788, 909.788 955.299, 910.750 956.207 C 913.687 958.979, 914.909 960.758, 914.297 961.370 C 913.976 961.691, 914.453 962.237, 915.357 962.583 C 916.261 962.930, 917 963.733, 917 964.367 C 917 965.446, 920.055 968.970, 923.351 971.694 C 924.146 972.351, 924.955 973.330, 925.148 973.869 C 925.342 974.409, 926.157 974.996, 926.961 975.175 C 929.174 975.667, 930.858 977.377, 930.235 978.500 C 929.929 979.050, 930.052 979.162, 930.509 978.748 C 930.965 978.334, 932.049 978.637, 932.919 979.420 C 934.923 981.226, 942.720 984.168, 946 984.356 C 947.375 984.435, 948.773 984.871, 949.106 985.325 C 949.439 985.779, 953.687 986.338, 958.546 986.566 C 963.405 986.794, 967.802 987.402, 968.317 987.917 C 968.880 988.480, 970.188 988.499, 971.592 987.965 C 972.877 987.476, 974.159 987.448, 974.440 987.903 C 974.721 988.357, 975.974 988.659, 977.225 988.574 C 978.476 988.489, 980.962 989.006, 982.750 989.723 C 984.919 990.593, 986 990.670, 986 989.954 C 986 989.359, 986.548 989.221, 987.232 989.644 C 989.052 990.768, 992 990.810, 992 989.710 C 992 989.185, 992.675 989.315, 993.500 990 C 994.325 990.685, 995 990.910, 995 990.500 C 995 990.090, 995.563 990.159, 996.250 990.652 C 996.938 991.146, 1000.650 991.519, 1004.500 991.482 C 1008.350 991.445, 1011.814 991.872, 1012.197 992.431 C 1012.580 992.989, 1015.280 993.519, 1018.197 993.608 C 1021.114 993.697, 1024.625 994.055, 1026 994.403 C 1027.375 994.752, 1032.042 995.202, 1036.371 995.405 C 1040.700 995.608, 1044.525 996.162, 1044.871 996.637 C 1045.798 997.910, 1050 998.149, 1050 996.929 C 1050 996.353, 1050.524 996.206, 1051.164 996.602 C 1051.805 996.997, 1053.492 997.445, 1054.914 997.596 C 1056.337 997.747, 1058.537 998.104, 1059.804 998.389 C 1061.072 998.673, 1064.447 999.006, 1067.304 999.127 C 1070.162 999.249, 1074.022 999.976, 1075.882 1000.743 C 1078.065 1001.643, 1079.607 1001.793, 1080.233 1001.167 C 1080.803 1000.597, 1082.374 1000.534, 1084.046 1001.013 C 1085.958 1001.562, 1087.046 1001.447, 1087.366 1000.664 C 1087.648 999.975, 1087.874 1000.118, 1087.921 1001.013 C 1087.988 1002.289, 1089.914 1002.491, 1100.250 1002.305 C 1115.952 1002.023, 1117.295 1001.874, 1118.502 1000.281 C 1119.053 999.553, 1120.628 998.752, 1122.002 998.502 C 1125.296 997.901, 1132.568 994.160, 1132.250 993.230 C 1132.112 992.829, 1132.411 992.500, 1132.914 992.500 C 1134.065 992.500, 1143 983.105, 1143 981.895 C 1143 981.403, 1143.401 981, 1143.892 981 C 1144.382 981, 1145.070 979.857, 1145.421 978.459 C 1145.807 976.922, 1146.503 976.193, 1147.184 976.614 C 1147.825 977.010, 1148.033 976.863, 1147.668 976.272 C 1147.316 975.702, 1147.854 974.170, 1148.864 972.868 C 1149.875 971.565, 1150.501 969.922, 1150.256 969.216 C 1150.011 968.510, 1150.334 967.303, 1150.973 966.533 C 1151.612 965.763, 1152.190 962.853, 1152.259 960.066 C 1152.327 957.280, 1152.684 955, 1153.054 955 C 1153.423 955, 1153.567 953.763, 1153.374 952.250 C 1153.181 950.737, 1152.760 947.025, 1152.438 944 C 1151.843 938.399, 1151.327 934.898, 1150.965 934 C 1150.854 933.725, 1150.816 933.163, 1150.882 932.750 C 1150.947 932.337, 1150.580 932, 1150.067 932 C 1149.118 932, 1147.441 928.115, 1147.802 926.750 C 1147.911 926.337, 1147.339 926, 1146.531 926 C 1145.685 926, 1145.290 925.408, 1145.599 924.604 C 1145.893 923.836, 1145.155 922.522, 1143.959 921.684 C 1142.762 920.846, 1142.084 919.674, 1142.451 919.080 C 1142.819 918.483, 1142.421 918, 1141.559 918 C 1140.702 918, 1140 917.325, 1140 916.500 C 1140 915.675, 1139.518 915, 1138.929 915 C 1137.506 915, 1135 912.441, 1135 910.988 C 1135 910.353, 1134.478 910.007, 1133.839 910.220 C 1133.201 910.433, 1131.667 909.669, 1130.430 908.523 C 1129.194 907.377, 1127.159 906.362, 1125.908 906.268 C 1124.657 906.174, 1123.245 905.402, 1122.769 904.553 C 1122.014 903.203, 1114.819 901.221, 1112.750 901.793 C 1112.338 901.907, 1112 901.520, 1112 900.933 C 1112 900.320, 1111.147 900.136, 1110 900.500 C 1108.694 900.915, 1107.995 900.678, 1107.985 899.817 C 1107.973 898.812, 1107.754 898.840, 1107.061 899.936 C 1106.308 901.126, 1105.883 901.147, 1104.576 900.063 C 1103.685 899.323, 1103 899.200, 1103 899.780 C 1103 900.429, 1101.343 900.306, 1098.472 899.442 C 1095.982 898.692, 1091.703 898.207, 1088.963 898.363 C 1086.222 898.519, 1083.772 898.438, 1083.517 898.183 C 1083.262 897.928, 1081.221 897.613, 1078.982 897.482 C 1076.743 897.352, 1074.660 896.993, 1074.353 896.686 C 1074.046 896.379, 1072.762 896.520, 1071.500 897 C 1070.238 897.480, 1068.897 897.564, 1068.519 897.186 C 1068.142 896.809, 1067.421 896.444, 1066.917 896.375 C 1066.413 896.306, 1065.775 896.138, 1065.500 896 C 1065.225 895.862, 1064.550 895.638, 1064 895.500 C 1063.450 895.362, 1062.888 895.139, 1062.750 895.003 C 1062.375 894.632, 1049.341 893.736, 1042.500 893.610 C 1039.200 893.550, 1036.238 893.145, 1035.917 892.712 C 1035.597 892.278, 1032.672 891.679, 1029.417 891.381 C 1012.229 889.805, 1010.538 889.472, 1010.167 887.592 C 1009.985 886.664, 1010.361 885.270, 1011.004 884.496 C 1011.646 883.721, 1011.901 882.649, 1011.570 882.113 C 1011.238 881.577, 1011.390 880.877, 1011.907 880.558 C 1012.424 880.238, 1012.648 878.376, 1012.405 876.418 C 1012.162 874.461, 1012.318 873.078, 1012.750 873.346 C 1013.183 873.613, 1013.598 871.282, 1013.672 868.166 C 1013.862 860.245, 1014.981 850.230, 1016.205 845.500 C 1017.271 841.378, 1017.930 835.344, 1018.300 826.327 C 1018.417 823.482, 1018.816 820.851, 1019.187 820.479 C 1019.558 820.108, 1019.620 819.173, 1019.324 818.402 C 1019.028 817.631, 1019.195 817, 1019.695 817 C 1020.195 817, 1020.526 815.200, 1020.432 813 C 1020.337 810.800, 1020.548 809, 1020.901 809 C 1021.254 809, 1021.611 805.962, 1021.694 802.250 C 1022.109 783.796, 1022.431 780.118, 1024.038 775.418 C 1025.836 770.162, 1025.834 766.325, 1024.032 761.584 C 1023.456 760.070, 1023.217 758.458, 1023.499 758.001 C 1023.781 757.545, 1023.503 757.001, 1022.881 756.794 C 1022.259 756.586, 1021.750 755.222, 1021.750 753.763 C 1021.750 752.303, 1021.019 750.272, 1020.125 749.250 C 1017.980 746.796, 1016.223 744.030, 1014.990 741.164 C 1014.126 739.158, 1009.061 733.862, 1004.782 730.490 C 1004.077 729.935, 1001.250 728.360, 998.500 726.990 C 995.750 725.621, 993.275 724.231, 993 723.901 C 992.725 723.572, 991.712 723.234, 990.750 723.151 C 986.481 722.782, 986 722.586, 986 721.211 C 986 719.970, 985.756 719.958, 984.346 721.128 C 982.620 722.560, 982.349 722.534, 980.167 720.723 C 978.674 719.485, 975 718.970, 975 720 C 975 720.756, 971.967 720.674, 970.482 719.879 C 969.942 719.589, 968.712 719.531, 967.750 719.749 M 624.413 988.140 C 624.075 988.688, 623.205 988.909, 622.482 988.631 C 621.758 988.354, 620.906 988.801, 620.590 989.627 C 620.273 990.452, 619.635 990.893, 619.172 990.606 C 617.747 989.726, 611 992.254, 611 993.668 C 611 994.401, 610.480 995, 609.844 995 C 609.209 995, 607.214 996.125, 605.411 997.500 C 603.608 998.875, 601.653 1000, 601.067 1000 C 600.480 1000, 600 1000.427, 600 1000.948 C 600 1001.470, 598.819 1003.158, 597.375 1004.698 C 595.932 1006.239, 593.887 1009.300, 592.832 1011.500 C 591.777 1013.700, 590.288 1016.625, 589.523 1018 C 588.759 1019.375, 587.915 1021.850, 587.649 1023.500 C 587.382 1025.150, 587.076 1026.500, 586.968 1026.500 C 586.430 1026.500, 585.675 1033.131, 585.659 1038 C 585.645 1042.690, 586.444 1049.500, 587.009 1049.500 C 587.105 1049.500, 587.403 1051.075, 587.671 1053 C 587.939 1054.925, 588.714 1057.175, 589.392 1058 C 590.070 1058.825, 591.453 1061.412, 592.464 1063.750 C 593.476 1066.088, 594.685 1068, 595.152 1068 C 595.618 1068, 596.007 1068.563, 596.017 1069.250 C 596.036 1070.695, 603.389 1077.824, 607.029 1079.928 C 608.388 1080.713, 610.850 1082.063, 612.499 1082.928 C 614.149 1083.792, 615.743 1084.826, 616.043 1085.225 C 616.342 1085.623, 617.692 1086.152, 619.043 1086.400 C 620.395 1086.648, 621.612 1086.941, 621.750 1087.051 C 621.888 1087.160, 622.337 1087.345, 622.750 1087.461 C 623.163 1087.578, 624.392 1088.060, 625.483 1088.533 C 626.573 1089.006, 630.511 1089.371, 634.233 1089.345 C 637.955 1089.319, 641 1089.666, 641 1090.117 C 641 1090.568, 641.675 1090.678, 642.500 1090.362 C 643.325 1090.045, 644 1090.205, 644 1090.717 C 644 1091.229, 646.490 1091.568, 649.532 1091.471 C 652.575 1091.375, 655.262 1091.615, 655.504 1092.006 C 655.746 1092.398, 659.020 1092.795, 662.779 1092.890 C 669.747 1093.066, 673.928 1093.583, 677.500 1094.709 C 678.600 1095.056, 681.300 1095.437, 683.500 1095.555 C 685.700 1095.673, 688.850 1096.009, 690.500 1096.302 C 692.150 1096.594, 696.538 1096.970, 700.250 1097.136 C 703.962 1097.302, 707 1097.725, 707 1098.075 C 707 1098.425, 709.362 1098.746, 712.250 1098.788 C 719.098 1098.887, 722 1099.275, 722 1100.089 C 722 1100.453, 723.159 1100.750, 724.575 1100.750 C 725.991 1100.750, 727.656 1101.256, 728.275 1101.875 C 729.108 1102.708, 729.105 1103, 728.262 1103 C 727.636 1103, 727.117 1103.787, 727.109 1104.750 C 727.100 1105.713, 726.874 1107.850, 726.607 1109.500 C 726.183 1112.120, 725.070 1124.170, 724.645 1130.750 C 724.564 1132.011, 723.841 1133.007, 723 1133.015 C 722.092 1133.025, 721.906 1133.321, 722.529 1133.765 C 723.095 1134.169, 723.445 1135.400, 723.305 1136.500 C 722.557 1142.418, 722.108 1145.553, 721.947 1146 C 721.847 1146.275, 721.846 1149.088, 721.943 1152.250 C 722.096 1157.193, 721.867 1158.002, 720.310 1158.015 C 719.296 1158.024, 718.940 1158.354, 719.500 1158.765 C 720.658 1159.616, 720.757 1165.967, 719.640 1167.774 C 719.223 1168.448, 719.189 1169, 719.563 1169 C 719.938 1169, 719.756 1169.589, 719.158 1170.310 C 718.560 1171.030, 718.051 1174.068, 718.026 1177.060 C 718.001 1180.052, 717.730 1184.975, 717.424 1188 C 717.118 1191.025, 716.807 1194.513, 716.734 1195.750 C 716.660 1196.987, 716.293 1198, 715.918 1198 C 715.031 1198, 714.817 1201.776, 714.844 1217 C 714.870 1232.493, 714.909 1233, 716.062 1233 C 716.578 1233, 716.926 1233.338, 716.836 1233.750 C 716.515 1235.216, 718.231 1240, 719.077 1240 C 719.550 1240, 719.678 1240.675, 719.362 1241.500 C 718.992 1242.463, 719.382 1243, 720.452 1243 C 721.368 1243, 721.843 1243.445, 721.507 1243.988 C 721.172 1244.531, 722.045 1246.214, 723.448 1247.728 C 724.852 1249.241, 726 1250.756, 726 1251.094 C 726 1252.169, 730.862 1257, 731.944 1257 C 732.515 1257, 733.517 1257.855, 734.170 1258.900 C 734.822 1259.945, 735.951 1260.572, 736.678 1260.293 C 737.436 1260.002, 738 1260.472, 738 1261.393 C 738 1262.277, 738.788 1263.003, 739.750 1263.007 C 740.712 1263.010, 742.850 1263.907, 744.500 1265 C 746.150 1266.093, 748.662 1266.990, 750.083 1266.993 C 751.504 1266.997, 752.976 1267.309, 753.354 1267.687 C 754.908 1269.241, 774.470 1269.660, 776.334 1268.179 C 776.975 1267.669, 779.652 1266.941, 782.283 1266.560 C 785.281 1266.126, 787.493 1265.183, 788.211 1264.034 C 788.841 1263.025, 789.951 1262.428, 790.678 1262.707 C 791.405 1262.986, 792 1262.716, 792 1262.107 C 792 1261.498, 792.514 1261, 793.142 1261 C 793.770 1261, 795.574 1259.650, 797.150 1258 C 798.727 1256.350, 800.688 1255, 801.509 1255 C 802.329 1255, 803 1254.152, 803 1253.117 C 803 1252.074, 803.893 1251, 805 1250.710 C 806.174 1250.403, 807 1249.346, 807 1248.150 C 807 1247.030, 807.891 1245.489, 808.980 1244.726 C 810.070 1243.963, 811.115 1242.326, 811.304 1241.087 C 811.493 1239.849, 812.216 1238.485, 812.909 1238.056 C 813.603 1237.627, 814.132 1236.989, 814.085 1236.638 C 814.038 1236.287, 814.034 1235.888, 814.077 1235.750 C 814.419 1234.632, 814.994 1231.011, 815.189 1228.750 C 815.319 1227.237, 815.667 1226, 815.963 1226 C 816.258 1226, 816.571 1224.088, 816.658 1221.750 C 816.876 1215.859, 817.335 1213.621, 818.500 1212.765 C 819.149 1212.289, 819.119 1212.025, 818.417 1212.015 C 817.255 1211.999, 817.163 1209.163, 818.267 1207.377 C 818.637 1206.778, 819.002 1203.636, 819.078 1200.394 C 819.154 1197.152, 819.639 1192.700, 820.155 1190.500 C 820.672 1188.300, 821.261 1184.157, 821.466 1181.294 C 821.670 1178.430, 822.126 1175.179, 822.478 1174.068 C 823.287 1171.519, 824.032 1163.923, 824.079 1157.750 C 824.098 1155.138, 824.426 1153, 824.807 1153 C 825.458 1153, 825.709 1151.081, 826.081 1143.250 C 826.166 1141.463, 826.527 1140, 826.883 1140 C 827.239 1140, 827.604 1137.412, 827.695 1134.250 C 827.786 1131.088, 827.922 1128.500, 827.998 1128.500 C 828.212 1128.500, 829.185 1118.819, 829.279 1115.750 C 829.326 1114.237, 829.690 1113, 830.088 1113 C 830.487 1113, 830.577 1112.100, 830.290 1111 C 830.002 1109.900, 830.170 1109, 830.662 1109 C 831.155 1109, 831.522 1107.537, 831.478 1105.750 C 831.394 1102.316, 832.463 1090.553, 833.545 1083 C 833.899 1080.525, 834.208 1077.825, 834.231 1077 C 834.254 1076.175, 834.595 1075.050, 834.988 1074.500 C 835.890 1073.239, 835.685 1053.355, 834.735 1050 C 832.231 1041.161, 826.008 1029.343, 822.500 1026.765 C 821.934 1026.350, 821.907 1026.024, 822.439 1026.015 C 822.955 1026.007, 822.392 1025.082, 821.189 1023.961 C 819.985 1022.840, 819 1021.490, 819 1020.961 C 819 1020.432, 818.422 1020, 817.716 1020 C 817.009 1020, 815.629 1018.642, 814.649 1016.982 C 813.668 1015.323, 812.493 1014.195, 812.038 1014.477 C 811.582 1014.758, 810.941 1014.288, 810.612 1013.431 C 810.283 1012.574, 809.608 1012.124, 809.112 1012.431 C 808.616 1012.738, 807.949 1012.309, 807.630 1011.479 C 807.056 1009.983, 803.276 1008.034, 799.578 1007.327 C 798.522 1007.125, 797.130 1006.523, 796.486 1005.989 C 795.843 1005.454, 795.020 1005.313, 794.658 1005.675 C 794.296 1006.037, 794 1005.836, 794 1005.229 C 794 1004.621, 793.212 1004.129, 792.250 1004.136 C 786.393 1004.174, 773.399 1002.674, 771 1001.682 C 770.175 1001.341, 767.700 1001.200, 765.500 1001.369 C 763.300 1001.539, 760.947 1001.252, 760.270 1000.733 C 759.091 999.827, 747.891 998.860, 735.750 998.616 C 732.587 998.552, 730 998.237, 730 997.917 C 730 997.596, 729.438 997.285, 728.750 997.225 C 727.077 997.081, 723.500 996.206, 723.500 995.942 C 723.500 995.708, 717.367 995.290, 705.967 994.745 C 701.823 994.548, 697.773 993.962, 696.967 993.443 C 696.160 992.924, 692.800 992.431, 689.500 992.347 C 686.200 992.263, 681.025 991.829, 678 991.384 C 674.975 990.938, 670.813 990.556, 668.750 990.536 C 666.688 990.516, 665 990.114, 665 989.643 C 665 989.172, 664.339 989.040, 663.532 989.349 C 662.725 989.659, 661.837 989.545, 661.559 989.095 C 661.281 988.646, 658.382 988.332, 655.117 988.398 C 651.852 988.464, 649.374 988.204, 649.611 987.820 C 649.849 987.436, 644.415 987.127, 637.536 987.133 C 630.324 987.140, 624.768 987.566, 624.413 988.140 M 940.754 1030.579 C 940.522 1030.812, 938.119 1031.259, 935.416 1031.573 C 930.431 1032.152, 917 1037.708, 917 1039.191 C 917 1039.636, 916.433 1040, 915.741 1040 C 915.048 1040, 913.919 1040.900, 913.232 1042 C 912.545 1043.100, 911.312 1044, 910.492 1044 C 909.671 1044, 909 1044.578, 909 1045.284 C 909 1045.991, 907.650 1047.366, 906 1048.341 C 904.350 1049.316, 903 1050.564, 903 1051.116 C 903 1051.667, 902.550 1051.840, 902 1051.500 C 901.450 1051.160, 901 1051.700, 901 1052.700 C 901 1053.701, 900.100 1055.081, 899 1055.768 C 897.900 1056.455, 897 1057.495, 897 1058.080 C 897 1058.665, 896.365 1059.778, 895.590 1060.553 C 894.011 1062.131, 889.317 1074.330, 890.185 1074.596 C 890.358 1074.649, 890.009 1075.324, 889.410 1076.096 C 888.810 1076.868, 888.201 1079.750, 888.055 1082.500 C 887.759 1088.093, 887.275 1092.500, 886.956 1092.500 C 886.840 1092.500, 886.606 1093.400, 886.436 1094.500 C 885.272 1102.025, 884.874 1105.200, 884.429 1110.500 C 884.152 1113.800, 883.646 1117.175, 883.304 1118 C 882.962 1118.825, 882.769 1119.882, 882.874 1120.348 C 882.979 1120.814, 882.561 1123.739, 881.946 1126.848 C 880.500 1134.144, 880.205 1136.241, 879.600 1143.500 C 879.326 1146.800, 879.030 1149.500, 878.943 1149.500 C 878.857 1149.500, 878.718 1150.625, 878.636 1152 C 878.553 1153.375, 878.120 1155.070, 877.674 1155.767 C 877.227 1156.463, 876.942 1158.038, 877.041 1159.267 C 877.140 1160.495, 877.114 1161.725, 876.982 1162 C 876.850 1162.275, 876.635 1163.625, 876.504 1165 C 875.599 1174.521, 874.974 1179.803, 874.522 1181.750 C 874.235 1182.987, 873.768 1185.013, 873.484 1186.250 C 872.994 1188.387, 872.638 1191.421, 871.507 1203.084 C 871.236 1205.880, 870.718 1208.648, 870.356 1209.234 C 869.994 1209.819, 869.561 1212.144, 869.394 1214.399 C 868.608 1225.018, 867.795 1232.633, 867.302 1234 C 867.004 1234.825, 866.634 1236.625, 866.480 1238 C 866.327 1239.375, 865.993 1241.737, 865.738 1243.250 C 865.483 1244.763, 865.567 1246, 865.923 1246 C 866.280 1246, 866.618 1246.787, 866.675 1247.750 C 866.898 1251.524, 868.269 1258.583, 869.078 1260.119 C 869.546 1261.009, 869.645 1262.021, 869.298 1262.369 C 868.951 1262.716, 869.156 1263, 869.754 1263 C 870.352 1263, 871.138 1264.350, 871.500 1266 C 871.862 1267.650, 872.497 1269, 872.910 1269 C 873.324 1269, 874.301 1270.232, 875.081 1271.738 C 876.769 1274.995, 884.512 1283, 885.974 1283 C 886.538 1283, 887 1283.413, 887 1283.918 C 887 1284.699, 893.508 1289.305, 895 1289.581 C 895.275 1289.631, 896.175 1289.918, 897 1290.218 C 899.294 1291.053, 907.435 1293.491, 908 1293.512 C 908.275 1293.522, 909.033 1293.869, 909.683 1294.283 C 910.995 1295.117, 926 1294.826, 926 1293.966 C 926 1293.669, 927.445 1293.315, 929.211 1293.181 C 930.977 1293.046, 932.714 1292.462, 933.073 1291.883 C 933.431 1291.303, 934.018 1290.902, 934.378 1290.990 C 935.708 1291.318, 941 1289.817, 941 1289.113 C 941 1288.713, 942.805 1287.589, 945.011 1286.615 C 947.217 1285.642, 948.774 1284.443, 948.470 1283.952 C 948.167 1283.461, 949.062 1282.772, 950.459 1282.421 C 951.857 1282.070, 953 1281.457, 953 1281.058 C 953 1280.659, 954.688 1278.487, 956.750 1276.230 C 960.672 1271.940, 966.088 1262.214, 967.459 1257 C 968.903 1251.509, 969.488 1247.264, 970.352 1236 C 970.626 1232.425, 971.323 1228.263, 971.901 1226.750 C 972.478 1225.237, 972.748 1224, 972.500 1224 C 972.252 1224, 972.477 1222.875, 973 1221.500 C 973.656 1219.774, 973.610 1219, 972.853 1219 C 972.137 1219, 972.084 1218.566, 972.701 1217.750 C 973.222 1217.063, 973.756 1214.660, 973.889 1212.411 C 974.143 1208.099, 974.185 1207.820, 975.531 1201.500 C 975.999 1199.300, 976.432 1196.375, 976.493 1195 C 976.554 1193.625, 976.913 1191.375, 977.290 1190 C 977.905 1187.757, 978.384 1183.250, 979.372 1170.408 C 979.545 1168.158, 980.002 1165.806, 980.387 1165.183 C 980.772 1164.559, 981.320 1161.226, 981.605 1157.775 C 981.889 1154.324, 982.521 1150.263, 983.009 1148.750 C 983.642 1146.788, 983.553 1145.996, 982.698 1145.985 C 981.912 1145.975, 981.980 1145.666, 982.896 1145.086 C 983.663 1144.600, 984.018 1143.488, 983.683 1142.616 C 983.077 1141.038, 986.156 1138.490, 987.294 1139.627 C 987.601 1139.934, 991.067 1140.362, 994.998 1140.578 C 998.928 1140.794, 1002.661 1141.291, 1003.293 1141.681 C 1003.924 1142.071, 1006.119 1142.485, 1008.170 1142.601 C 1010.221 1142.717, 1013.384 1143.267, 1015.200 1143.825 C 1017.015 1144.382, 1021.539 1145.073, 1025.253 1145.362 C 1028.968 1145.650, 1032.546 1146.219, 1033.205 1146.626 C 1033.863 1147.034, 1036.674 1147.456, 1039.451 1147.564 C 1048.515 1147.919, 1058.441 1149.130, 1061.342 1150.236 C 1062.905 1150.831, 1065.605 1151.423, 1067.342 1151.550 C 1069.079 1151.677, 1073.200 1152.275, 1076.500 1152.878 C 1082.975 1154.061, 1098.361 1153.574, 1102.343 1152.060 C 1103.691 1151.547, 1105.066 1151.399, 1105.397 1151.731 C 1105.729 1152.062, 1106 1151.808, 1106 1151.167 C 1106 1150.525, 1106.421 1150, 1106.935 1150 C 1107.449 1150, 1109.137 1149.518, 1110.685 1148.930 C 1112.233 1148.341, 1113.685 1147.931, 1113.910 1148.019 C 1114.136 1148.107, 1114.721 1147.464, 1115.210 1146.590 C 1115.699 1145.715, 1116.736 1145, 1117.515 1145 C 1118.293 1145, 1119.411 1144.100, 1120 1143 C 1120.589 1141.900, 1121.653 1141, 1122.366 1141 C 1123.079 1141, 1124.256 1139.890, 1124.982 1138.534 C 1125.708 1137.178, 1126.684 1136.304, 1127.151 1136.593 C 1127.618 1136.882, 1128 1136.442, 1128 1135.616 C 1128 1134.789, 1128.835 1133.525, 1129.857 1132.807 C 1130.878 1132.088, 1132.058 1130.375, 1132.479 1129 C 1132.900 1127.625, 1133.731 1125.894, 1134.326 1125.152 C 1134.920 1124.411, 1135.549 1122.872, 1135.723 1121.731 C 1135.897 1120.590, 1136.419 1119.172, 1136.882 1118.578 C 1140.071 1114.495, 1140.559 1098.469, 1137.776 1089.212 C 1136.667 1085.520, 1135.354 1081.825, 1134.859 1081 C 1134.365 1080.175, 1133.280 1078.018, 1132.448 1076.206 C 1131.617 1074.395, 1130.276 1072.659, 1129.468 1072.350 C 1128.661 1072.040, 1128 1070.934, 1128 1069.893 C 1128 1068.852, 1127.355 1068, 1126.567 1068 C 1125.779 1068, 1124.841 1067.074, 1124.482 1065.943 C 1124.123 1064.811, 1122.715 1063.462, 1121.354 1062.945 C 1119.855 1062.375, 1119.161 1061.548, 1119.594 1060.847 C 1119.994 1060.200, 1119.874 1059.960, 1119.322 1060.301 C 1118.778 1060.637, 1116.708 1059.806, 1114.720 1058.456 C 1112.732 1057.105, 1110.482 1056, 1109.720 1056 C 1108.957 1056, 1107.996 1055.662, 1107.583 1055.250 C 1107.171 1054.838, 1106.533 1054.481, 1106.167 1054.457 C 1105.800 1054.434, 1103.925 1053.886, 1102 1053.241 C 1100.075 1052.595, 1095.773 1051.848, 1092.441 1051.581 C 1089.108 1051.314, 1085.058 1050.586, 1083.441 1049.963 C 1081.823 1049.339, 1078.025 1048.628, 1075 1048.382 C 1068.394 1047.845, 1062.500 1047.183, 1062.500 1046.979 C 1062.500 1046.898, 1060.176 1046.694, 1057.335 1046.527 C 1054.494 1046.360, 1051.575 1045.855, 1050.848 1045.406 C 1050.121 1044.957, 1046.378 1044.425, 1042.529 1044.223 C 1038.681 1044.021, 1034.962 1043.384, 1034.266 1042.806 C 1033.570 1042.228, 1033 1042.090, 1033 1042.500 C 1033 1042.910, 1032.438 1042.833, 1031.750 1042.329 C 1031.063 1041.825, 1028.700 1041.451, 1026.500 1041.498 C 1024.300 1041.545, 1022.260 1041.247, 1021.967 1040.835 C 1021.675 1040.423, 1017.951 1040.005, 1013.692 1039.906 C 1009.433 1039.807, 1005.721 1039.358, 1005.443 1038.907 C 1005.164 1038.456, 1004.270 1038.343, 1003.455 1038.656 C 1002.641 1038.968, 1001.418 1038.785, 1000.737 1038.249 C 1000.057 1037.713, 996.350 1036.945, 992.500 1036.543 C 980.194 1035.259, 974.500 1034.454, 974.500 1034 C 974.500 1033.491, 969.450 1032.810, 962.609 1032.396 C 958.269 1032.134, 953.994 1031.555, 953.109 1031.109 C 951.435 1030.267, 941.493 1029.840, 940.754 1030.579 M 1193.500 1240.421 C 1192.950 1240.620, 1189.800 1241.567, 1186.500 1242.524 C 1162.158 1249.585, 1144.687 1267.546, 1138.043 1292.338 C 1134.274 1306.404, 1136.019 1326.205, 1142.085 1338.207 C 1144.915 1343.806, 1155.430 1361.022, 1160.229 1367.916 C 1162.303 1370.894, 1164 1373.721, 1164 1374.198 C 1164 1374.675, 1166.138 1378.255, 1168.750 1382.153 C 1171.362 1386.052, 1174.890 1391.775, 1176.588 1394.871 C 1178.286 1397.967, 1181.549 1403.162, 1183.838 1406.416 C 1186.127 1409.669, 1188 1412.861, 1188 1413.509 C 1188 1414.157, 1190.171 1417.794, 1192.824 1421.593 C 1195.477 1425.392, 1198.330 1429.850, 1199.164 1431.500 C 1200.632 1434.407, 1206.927 1444.633, 1215.476 1458 C 1217.763 1461.575, 1219.886 1465.175, 1220.195 1466 C 1220.504 1466.825, 1222.723 1470.508, 1225.128 1474.184 C 1229.787 1481.307, 1234.921 1489.582, 1239 1496.539 C 1240.375 1498.885, 1243.807 1504.560, 1246.626 1509.152 C 1249.445 1513.743, 1253.648 1520.650, 1255.966 1524.500 C 1258.284 1528.350, 1261.490 1533.374, 1263.090 1535.663 C 1264.691 1537.953, 1266 1540.091, 1266 1540.415 C 1266 1540.738, 1268.138 1544.356, 1270.750 1548.454 C 1273.362 1552.553, 1279.775 1562.961, 1285 1571.583 C 1290.225 1580.205, 1296.353 1590.097, 1298.619 1593.566 C 1300.884 1597.035, 1302.974 1600.490, 1303.264 1601.245 C 1303.553 1601.999, 1305.975 1606.027, 1308.645 1610.196 C 1311.315 1614.364, 1315.300 1620.761, 1317.500 1624.412 C 1319.700 1628.062, 1323.112 1633.625, 1325.081 1636.774 C 1329.607 1644.010, 1344.061 1667.444, 1349.275 1676 C 1351.454 1679.575, 1354.421 1684.375, 1355.868 1686.666 C 1357.316 1688.957, 1360.750 1694.504, 1363.500 1698.992 C 1366.250 1703.481, 1370.862 1710.932, 1373.750 1715.550 C 1376.638 1720.168, 1379 1724.179, 1379 1724.464 C 1379 1724.748, 1380.912 1727.866, 1383.250 1731.394 C 1385.588 1734.921, 1389.975 1741.938, 1393 1746.988 C 1396.025 1752.037, 1401.051 1760.294, 1404.169 1765.335 C 1407.288 1770.376, 1411.478 1777.200, 1413.480 1780.500 C 1417.290 1786.777, 1426.463 1801.610, 1432.342 1811 C 1434.236 1814.025, 1437.485 1819.425, 1439.562 1823 C 1441.639 1826.575, 1444.321 1830.850, 1445.521 1832.500 C 1446.722 1834.150, 1447.949 1836.201, 1448.247 1837.058 C 1448.546 1837.915, 1450.975 1842.038, 1453.645 1846.220 C 1456.315 1850.403, 1460.750 1857.468, 1463.500 1861.921 C 1466.250 1866.373, 1470.412 1872.949, 1472.750 1876.532 C 1475.088 1880.115, 1477 1883.177, 1477 1883.337 C 1477 1883.875, 1450.688 1883.046, 1405 1881.068 C 1362.652 1879.235, 1320.732 1877.547, 1291 1876.478 C 1284.125 1876.231, 1267.250 1875.578, 1253.500 1875.027 C 1239.750 1874.477, 1210.725 1873.328, 1189 1872.476 C 1167.275 1871.624, 1133.750 1870.262, 1114.500 1869.451 C 1095.250 1868.639, 1072.750 1867.755, 1064.500 1867.486 C 1056.250 1867.216, 1032.850 1866.327, 1012.500 1865.510 C 992.150 1864.693, 952.325 1863.110, 924 1861.992 C 895.675 1860.874, 856.075 1859.282, 836 1858.454 C 815.925 1857.626, 793.650 1856.729, 786.500 1856.461 C 714.078 1853.746, 697.475 1852.736, 692.500 1850.742 C 683.403 1847.095, 655.412 1847.245, 648.113 1850.980 C 647.226 1851.433, 643.575 1853.175, 640 1854.851 C 600.561 1873.332, 589.033 1926.091, 616.881 1960.658 C 627.561 1973.915, 638.659 1980.349, 661.500 1986.526 C 664.800 1987.418, 669.748 1988.793, 672.496 1989.581 C 675.243 1990.370, 683.793 1991.247, 691.496 1991.531 C 699.198 1991.815, 714.500 1992.474, 725.500 1992.996 C 736.500 1993.518, 753.825 1994.195, 764 1994.499 C 774.175 1994.804, 791.725 1995.501, 803 1996.048 C 814.275 1996.594, 836.100 1997.456, 851.500 1997.963 C 866.900 1998.470, 896.375 1999.582, 917 2000.434 C 1000.211 2003.873, 1029.189 2005.028, 1043.500 2005.480 C 1057.143 2005.910, 1085.489 2007.062, 1155.500 2010.032 C 1169.250 2010.615, 1192.425 2011.503, 1207 2012.006 C 1221.575 2012.509, 1244.300 2013.381, 1257.500 2013.944 C 1280.695 2014.933, 1322.755 2016.587, 1347.500 2017.485 C 1354.100 2017.724, 1376.600 2018.606, 1397.500 2019.444 C 1418.400 2020.281, 1447.425 2021.440, 1462 2022.019 C 1537.478 2025.015, 1562.625 2026.047, 1584.687 2027.053 C 1606.200 2028.035, 1609.781 2027.972, 1617.072 2026.485 C 1636.528 2022.517, 1651.185 2012.892, 1661.974 1997 C 1672.786 1981.073, 1676.573 1960.376, 1671.957 1942.438 C 1669.500 1932.893, 1666.476 1926.197, 1660.203 1916.413 C 1657.617 1912.379, 1653.025 1905.015, 1650 1900.051 C 1646.975 1895.086, 1643.081 1888.881, 1641.347 1886.262 C 1639.614 1883.643, 1636.974 1879.250, 1635.482 1876.500 C 1633.990 1873.750, 1631.266 1869.389, 1629.429 1866.810 C 1627.592 1864.230, 1624.715 1859.505, 1623.035 1856.310 C 1621.356 1853.114, 1618.523 1848.414, 1616.741 1845.864 C 1614.958 1843.314, 1612.245 1839.039, 1610.711 1836.364 C 1606.333 1828.727, 1597.771 1814.853, 1594.750 1810.499 C 1593.237 1808.319, 1592 1806.204, 1592 1805.799 C 1592 1805.393, 1589.862 1801.736, 1587.250 1797.671 C 1584.638 1793.606, 1581.150 1788.089, 1579.500 1785.411 C 1572.434 1773.942, 1566.305 1763.877, 1563.632 1759.354 C 1562.055 1756.684, 1559.018 1751.934, 1556.882 1748.799 C 1554.747 1745.663, 1553 1742.709, 1553 1742.235 C 1553 1741.760, 1551.059 1738.476, 1548.687 1734.936 C 1544.323 1728.424, 1537.732 1717.732, 1532.808 1709.177 C 1531.327 1706.605, 1528.254 1701.575, 1525.978 1698 C 1521.923 1691.629, 1513.441 1678.018, 1507.510 1668.366 C 1505.866 1665.690, 1503.236 1661.250, 1501.667 1658.500 C 1500.098 1655.750, 1497.796 1652.150, 1496.551 1650.500 C 1495.307 1648.850, 1493.298 1645.556, 1492.088 1643.179 C 1490.877 1640.803, 1488.113 1636.303, 1485.945 1633.179 C 1483.777 1630.056, 1482.002 1627.131, 1482.001 1626.680 C 1482.001 1626.229, 1480.537 1623.770, 1478.750 1621.214 C 1476.963 1618.659, 1474.150 1614.199, 1472.500 1611.304 C 1468.908 1605.002, 1455.558 1583.269, 1440.984 1560 C 1438.400 1555.875, 1435.088 1550.475, 1433.624 1548 C 1432.160 1545.525, 1426.937 1536.975, 1422.017 1529 C 1417.097 1521.025, 1411.608 1512.025, 1409.821 1509 C 1408.033 1505.975, 1404.867 1500.934, 1402.785 1497.799 C 1400.703 1494.663, 1399 1491.826, 1399 1491.494 C 1399 1491.162, 1397.279 1488.327, 1395.176 1485.195 C 1393.074 1482.063, 1389.908 1477.025, 1388.141 1474 C 1386.374 1470.975, 1381.007 1462.129, 1376.214 1454.343 C 1360.117 1428.192, 1351.678 1414.533, 1348.509 1409.500 C 1344.413 1402.996, 1335.057 1387.729, 1331.657 1382 C 1330.187 1379.525, 1326.298 1373.225, 1323.015 1368 C 1319.731 1362.775, 1315.122 1355.184, 1312.772 1351.132 C 1310.422 1347.080, 1307.543 1342.580, 1306.372 1341.132 C 1305.202 1339.684, 1302.789 1335.800, 1301.011 1332.500 C 1299.232 1329.200, 1296.328 1324.475, 1294.557 1322 C 1292.787 1319.525, 1289.725 1314.516, 1287.754 1310.869 C 1285.782 1307.223, 1282.556 1302.126, 1280.585 1299.543 C 1278.613 1296.960, 1277 1294.290, 1277 1293.610 C 1277 1292.929, 1275.065 1289.476, 1272.701 1285.936 C 1270.336 1282.396, 1266.991 1277.022, 1265.266 1273.993 C 1260.995 1266.490, 1252.214 1257.002, 1245.260 1252.376 C 1231.588 1243.281, 1223.426 1240.714, 1207 1240.342 C 1200.125 1240.186, 1194.050 1240.222, 1193.500 1240.421 M 2419.500 1251.412 C 2418.950 1251.615, 2415.325 1252.734, 2411.445 1253.899 C 2407.564 1255.064, 2402.839 1256.811, 2400.945 1257.781 C 2389.022 1263.885, 2377.798 1274.341, 2371.734 1284.993 C 2370.009 1288.022, 2366.664 1293.396, 2364.299 1296.936 C 2361.935 1300.476, 2360 1303.929, 2360 1304.610 C 2360 1305.290, 2358.387 1307.960, 2356.415 1310.543 C 2354.444 1313.126, 2351.218 1318.223, 2349.246 1321.869 C 2347.275 1325.516, 2344.213 1330.525, 2342.443 1333 C 2340.672 1335.475, 2337.768 1340.200, 2335.989 1343.500 C 2334.211 1346.800, 2331.798 1350.684, 2330.628 1352.132 C 2329.457 1353.580, 2326.578 1358.080, 2324.228 1362.132 C 2321.878 1366.184, 2317.269 1373.775, 2313.985 1379 C 2310.702 1384.225, 2306.813 1390.525, 2305.343 1393 C 2301.943 1398.729, 2292.587 1413.996, 2288.491 1420.500 C 2285.322 1425.533, 2276.883 1439.192, 2260.786 1465.343 C 2255.993 1473.129, 2250.626 1481.975, 2248.859 1485 C 2247.092 1488.025, 2243.926 1493.063, 2241.824 1496.195 C 2239.721 1499.327, 2238 1502.162, 2238 1502.494 C 2238 1502.826, 2236.297 1505.663, 2234.215 1508.799 C 2232.133 1511.934, 2228.967 1516.975, 2227.179 1520 C 2225.392 1523.025, 2219.903 1532.025, 2214.983 1540 C 2210.063 1547.975, 2204.840 1556.525, 2203.376 1559 C 2201.912 1561.475, 2198.600 1566.875, 2196.016 1571 C 2181.442 1594.269, 2168.092 1616.002, 2164.500 1622.304 C 2162.850 1625.199, 2160.037 1629.659, 2158.250 1632.214 C 2156.463 1634.770, 2154.999 1637.229, 2154.999 1637.680 C 2154.998 1638.131, 2153.223 1641.056, 2151.055 1644.179 C 2148.887 1647.303, 2146.123 1651.803, 2144.912 1654.179 C 2143.702 1656.556, 2141.693 1659.850, 2140.449 1661.500 C 2139.204 1663.150, 2136.902 1666.750, 2135.333 1669.500 C 2133.764 1672.250, 2131.134 1676.690, 2129.490 1679.366 C 2123.559 1689.018, 2115.077 1702.629, 2111.022 1709 C 2108.746 1712.575, 2105.673 1717.605, 2104.192 1720.177 C 2099.268 1728.732, 2092.677 1739.424, 2088.313 1745.936 C 2085.941 1749.476, 2084 1752.760, 2084 1753.235 C 2084 1753.709, 2082.253 1756.663, 2080.118 1759.799 C 2077.982 1762.934, 2074.945 1767.684, 2073.368 1770.354 C 2070.695 1774.877, 2064.566 1784.942, 2057.500 1796.411 C 2055.850 1799.089, 2052.363 1804.606, 2049.750 1808.671 C 2047.138 1812.736, 2045 1816.393, 2045 1816.799 C 2045 1817.204, 2043.763 1819.319, 2042.250 1821.499 C 2039.229 1825.853, 2030.667 1839.727, 2026.289 1847.364 C 2024.755 1850.039, 2022.042 1854.314, 2020.259 1856.864 C 2018.477 1859.414, 2015.644 1864.114, 2013.965 1867.310 C 2012.285 1870.505, 2009.408 1875.230, 2007.571 1877.810 C 2005.734 1880.389, 2003.010 1884.750, 2001.518 1887.500 C 2000.026 1890.250, 1997.386 1894.643, 1995.653 1897.262 C 1993.919 1899.881, 1990.025 1906.086, 1987 1911.051 C 1983.975 1916.015, 1979.383 1923.379, 1976.797 1927.413 C 1964.068 1947.265, 1960.319 1965.317, 1964.942 1984.500 C 1971.704 2012.562, 1991.565 2031.700, 2019.928 2037.485 C 2027.219 2038.972, 2030.800 2039.035, 2052.313 2038.053 C 2074.375 2037.047, 2099.522 2036.015, 2175 2033.019 C 2189.575 2032.440, 2218.600 2031.281, 2239.500 2030.444 C 2260.400 2029.606, 2282.900 2028.724, 2289.500 2028.485 C 2314.245 2027.587, 2356.305 2025.933, 2379.500 2024.944 C 2392.700 2024.381, 2415.425 2023.509, 2430 2023.006 C 2444.575 2022.503, 2467.750 2021.615, 2481.500 2021.032 C 2551.511 2018.062, 2579.857 2016.910, 2593.500 2016.480 C 2607.811 2016.028, 2636.789 2014.873, 2720 2011.434 C 2740.625 2010.582, 2770.100 2009.470, 2785.500 2008.963 C 2800.900 2008.456, 2822.725 2007.594, 2834 2007.048 C 2845.275 2006.501, 2862.825 2005.804, 2873 2005.499 C 2883.175 2005.195, 2900.500 2004.518, 2911.500 2003.996 C 2922.500 2003.474, 2937.802 2002.815, 2945.504 2002.531 C 2953.207 2002.247, 2961.757 2001.370, 2964.504 2000.581 C 2967.252 1999.793, 2972.200 1998.418, 2975.500 1997.526 C 2992.932 1992.812, 3000.760 1989.288, 3009.579 1982.183 C 3035.436 1961.352, 3042.984 1925.259, 3027.712 1895.478 C 3021.715 1883.783, 3008.913 1871.433, 2997 1865.851 C 2993.425 1864.175, 2989.774 1862.433, 2988.887 1861.980 C 2981.588 1858.245, 2953.597 1858.095, 2944.500 1861.742 C 2939.525 1863.736, 2922.922 1864.746, 2850.500 1867.461 C 2843.350 1867.729, 2821.075 1868.626, 2801 1869.454 C 2780.925 1870.282, 2741.325 1871.874, 2713 1872.992 C 2684.675 1874.110, 2644.850 1875.693, 2624.500 1876.510 C 2604.150 1877.327, 2580.750 1878.216, 2572.500 1878.486 C 2564.250 1878.755, 2541.750 1879.639, 2522.500 1880.451 C 2503.250 1881.262, 2469.725 1882.624, 2448 1883.476 C 2426.275 1884.328, 2397.250 1885.477, 2383.500 1886.027 C 2369.750 1886.578, 2352.875 1887.231, 2346 1887.478 C 2316.268 1888.547, 2274.348 1890.235, 2232 1892.068 C 2186.312 1894.046, 2160 1894.875, 2160 1894.337 C 2160 1894.177, 2161.912 1891.115, 2164.250 1887.532 C 2166.588 1883.949, 2170.750 1877.373, 2173.500 1872.921 C 2176.250 1868.468, 2180.685 1861.403, 2183.355 1857.220 C 2186.025 1853.038, 2188.454 1848.915, 2188.753 1848.058 C 2189.051 1847.201, 2190.278 1845.150, 2191.479 1843.500 C 2192.679 1841.850, 2195.361 1837.575, 2197.438 1834 C 2199.515 1830.425, 2202.764 1825.025, 2204.658 1822 C 2210.537 1812.610, 2219.710 1797.777, 2223.520 1791.500 C 2225.522 1788.200, 2229.712 1781.376, 2232.831 1776.335 C 2235.949 1771.294, 2240.975 1763.037, 2244 1757.988 C 2247.025 1752.938, 2251.412 1745.921, 2253.750 1742.394 C 2256.088 1738.866, 2258 1735.748, 2258 1735.464 C 2258 1735.179, 2260.363 1731.168, 2263.250 1726.550 C 2266.137 1721.932, 2270.750 1714.481, 2273.500 1709.992 C 2276.250 1705.504, 2279.684 1699.957, 2281.132 1697.666 C 2282.579 1695.375, 2285.546 1690.575, 2287.725 1687 C 2292.939 1678.444, 2307.393 1655.010, 2311.919 1647.774 C 2313.888 1644.625, 2317.300 1639.062, 2319.500 1635.412 C 2321.700 1631.761, 2325.685 1625.364, 2328.355 1621.196 C 2331.025 1617.027, 2333.447 1612.999, 2333.736 1612.245 C 2334.026 1611.490, 2336.116 1608.035, 2338.381 1604.566 C 2340.647 1601.097, 2346.775 1591.205, 2352 1582.583 C 2357.225 1573.961, 2363.637 1563.553, 2366.250 1559.454 C 2368.863 1555.356, 2371 1551.738, 2371 1551.415 C 2371 1551.091, 2372.309 1548.953, 2373.910 1546.663 C 2375.510 1544.374, 2378.716 1539.350, 2381.034 1535.500 C 2383.352 1531.650, 2387.555 1524.743, 2390.374 1520.152 C 2393.193 1515.560, 2396.625 1509.885, 2398 1507.539 C 2402.079 1500.582, 2407.213 1492.307, 2411.872 1485.184 C 2414.277 1481.508, 2416.496 1477.825, 2416.805 1477 C 2417.114 1476.175, 2419.237 1472.575, 2421.524 1469 C 2430.073 1455.633, 2436.368 1445.407, 2437.836 1442.500 C 2438.670 1440.850, 2441.523 1436.392, 2444.176 1432.593 C 2446.829 1428.794, 2449 1425.157, 2449 1424.509 C 2449 1423.861, 2450.873 1420.669, 2453.162 1417.416 C 2455.451 1414.162, 2458.714 1408.967, 2460.412 1405.871 C 2462.110 1402.775, 2465.637 1397.052, 2468.250 1393.153 C 2470.863 1389.255, 2473 1385.675, 2473 1385.198 C 2473 1384.721, 2474.697 1381.894, 2476.771 1378.916 C 2481.570 1372.022, 2492.085 1354.806, 2494.915 1349.207 C 2498.520 1342.075, 2500.968 1330.388, 2500.985 1320.232 C 2501.023 1297.070, 2489.564 1275.667, 2470 1262.355 C 2458.726 1254.684, 2449.408 1251.894, 2433.500 1251.426 C 2426.350 1251.216, 2420.050 1251.210, 2419.500 1251.412 M 2388.500 2309.063 C 2380.800 2309.455, 2372.700 2310.266, 2370.500 2310.864 C 2368.300 2311.463, 2363.800 2311.981, 2360.500 2312.015 C 2357.200 2312.050, 2350.450 2312.987, 2345.500 2314.096 C 2340.550 2315.206, 2332.900 2316.498, 2328.500 2316.968 C 2324.100 2317.437, 2316.999 2318.986, 2312.719 2320.410 C 2308.440 2321.835, 2303.889 2323, 2302.606 2323 C 2298.962 2323, 2284.929 2326.725, 2280.500 2328.868 C 2278.300 2329.933, 2274.250 2331.138, 2271.500 2331.547 C 2266.326 2332.317, 2256.544 2335.682, 2250.162 2338.889 C 2248.148 2339.901, 2244.700 2341.054, 2242.500 2341.450 C 2240.300 2341.846, 2233.884 2344.382, 2228.243 2347.085 C 2222.602 2349.788, 2217.629 2352, 2217.192 2352 C 2216.131 2352, 2211.827 2353.906, 2205.337 2357.250 C 2192.935 2363.640, 2189.005 2365.624, 2184.383 2367.827 C 2181.697 2369.106, 2177.700 2371.451, 2175.500 2373.037 C 2173.300 2374.623, 2167.983 2377.738, 2163.684 2379.959 C 2159.385 2382.181, 2153.442 2385.974, 2150.478 2388.388 C 2147.514 2390.803, 2142.257 2394.384, 2138.795 2396.348 C 2135.333 2398.311, 2130.250 2401.989, 2127.500 2404.521 C 2124.750 2407.054, 2120.048 2410.744, 2117.050 2412.721 C 2114.053 2414.699, 2108.878 2419.016, 2105.550 2422.315 C 2102.223 2425.615, 2096.952 2430.403, 2093.837 2432.956 C 2090.722 2435.509, 2085.862 2440.331, 2083.037 2443.671 C 2080.212 2447.012, 2076.184 2451.125, 2074.085 2452.812 C 2071.986 2454.498, 2067.766 2459.168, 2064.708 2463.189 C 2061.649 2467.210, 2057.107 2472.750, 2054.613 2475.500 C 2052.120 2478.250, 2048.600 2482.890, 2046.790 2485.811 C 2044.981 2488.732, 2041.475 2493.685, 2039 2496.818 C 2036.525 2499.950, 2032.738 2505.885, 2030.585 2510.007 C 2028.431 2514.128, 2025.682 2518.850, 2024.476 2520.500 C 2020.393 2526.083, 2007.224 2553.454, 2004.508 2562 C 2003.546 2565.025, 2001.500 2570.425, 1999.960 2574 C 1998.420 2577.575, 1996.406 2583.875, 1995.484 2588 C 1994.563 2592.125, 1992.946 2597.916, 1991.893 2600.869 C 1990.839 2603.822, 1989.441 2610.171, 1988.787 2614.978 L 1987.596 2623.717 1952.548 2624.400 C 1870.494 2625.997, 1758.395 2628.026, 1718 2628.645 L 1674.500 2629.311 1672.668 2619.906 C 1671.660 2614.733, 1670.429 2607.800, 1669.933 2604.500 C 1669.437 2601.200, 1667.726 2594.450, 1666.132 2589.500 C 1664.538 2584.550, 1662.422 2577.575, 1661.429 2574 C 1660.437 2570.425, 1658.233 2564.575, 1656.531 2561 C 1654.830 2557.425, 1652.855 2552.534, 1652.143 2550.130 C 1651.430 2547.727, 1649.298 2543.002, 1647.404 2539.630 C 1645.509 2536.259, 1642.423 2530.245, 1640.544 2526.266 C 1638.666 2522.288, 1634.905 2515.763, 1632.187 2511.766 C 1629.469 2507.770, 1626.013 2502.306, 1624.507 2499.625 C 1623.002 2496.944, 1620.310 2493.119, 1618.526 2491.125 C 1616.741 2489.131, 1613.430 2484.815, 1611.167 2481.534 C 1602.828 2469.440, 1576 2440.695, 1564.491 2431.522 C 1561.746 2429.334, 1556.779 2425.059, 1553.454 2422.022 C 1550.128 2418.985, 1545.403 2415.159, 1542.954 2413.520 C 1540.504 2411.882, 1536.360 2408.661, 1533.745 2406.363 C 1531.129 2404.065, 1526.404 2400.739, 1523.245 2398.972 C 1520.085 2397.204, 1515.598 2394.216, 1513.274 2392.332 C 1510.950 2390.447, 1505.325 2386.868, 1500.774 2384.378 C 1496.223 2381.888, 1489.350 2377.899, 1485.500 2375.515 C 1481.650 2373.130, 1477.326 2370.891, 1475.891 2370.541 C 1474.456 2370.190, 1470.879 2368.355, 1467.943 2366.463 C 1465.006 2364.571, 1459.431 2361.840, 1455.552 2360.393 C 1451.673 2358.946, 1446.250 2356.528, 1443.500 2355.021 C 1440.750 2353.514, 1434.900 2351.042, 1430.500 2349.529 C 1426.100 2348.016, 1420.925 2345.992, 1419 2345.031 C 1417.075 2344.070, 1412.800 2342.507, 1409.500 2341.559 C 1406.200 2340.611, 1400.575 2338.770, 1397 2337.467 C 1393.425 2336.165, 1388.925 2334.664, 1387 2334.131 C 1385.075 2333.598, 1379.225 2331.946, 1374 2330.460 C 1368.775 2328.974, 1361.800 2327.310, 1358.500 2326.762 C 1355.200 2326.214, 1349.736 2324.928, 1346.357 2323.904 C 1342.978 2322.880, 1337.578 2321.790, 1334.357 2321.481 C 1331.136 2321.172, 1326.804 2320.706, 1324.732 2320.445 L 1320.963 2319.970 1321.027 2389.492 L 1321.092 2459.014 1323.296 2460.396 C 1324.508 2461.157, 1329.100 2462.554, 1333.500 2463.502 C 1337.900 2464.450, 1342.219 2465.604, 1343.098 2466.066 C 1343.977 2466.529, 1347.802 2467.783, 1351.598 2468.853 C 1368.630 2473.654, 1391.906 2483.069, 1409 2492.072 C 1410.925 2493.086, 1415.650 2495.570, 1419.500 2497.593 C 1423.350 2499.616, 1429.063 2503.010, 1432.195 2505.136 C 1435.327 2507.261, 1438.310 2509, 1438.823 2509 C 1439.336 2509, 1440.307 2509.665, 1440.982 2510.479 C 1441.657 2511.292, 1445.425 2514.070, 1449.355 2516.653 C 1453.285 2519.235, 1456.950 2521.879, 1457.500 2522.527 C 1458.050 2523.175, 1461.650 2526.182, 1465.500 2529.210 C 1473.300 2535.343, 1490.566 2552.606, 1497.190 2560.893 C 1530.386 2602.428, 1542.848 2644.548, 1535.093 2689 C 1534.249 2693.841, 1530.267 2706.330, 1525.684 2718.510 C 1522.399 2727.241, 1510.872 2745.434, 1500.808 2757.770 C 1493.770 2766.398, 1475.260 2783.802, 1467.375 2789.206 C 1464.144 2791.421, 1460.350 2794.306, 1458.945 2795.617 C 1457.540 2796.927, 1455.965 2798.001, 1455.445 2798.001 C 1454.925 2798.002, 1451.925 2799.790, 1448.778 2801.975 C 1445.630 2804.160, 1440.005 2807.521, 1436.278 2809.445 C 1432.550 2811.368, 1428.375 2813.592, 1427 2814.387 C 1415.540 2821.013, 1369.990 2838.025, 1363.761 2838.005 C 1362.804 2838.002, 1359.654 2838.900, 1356.761 2839.999 C 1353.867 2841.099, 1350.150 2842.006, 1348.500 2842.015 C 1346.850 2842.024, 1342.800 2842.740, 1339.500 2843.605 C 1336.200 2844.471, 1331.250 2845.477, 1328.500 2845.840 L 1323.500 2846.500 1323.631 2883 C 1323.703 2903.075, 1323.816 2934.519, 1323.881 2952.875 L 1324 2986.250 1327.250 2985.589 C 1329.038 2985.225, 1334.995 2984.494, 1340.490 2983.964 C 1345.984 2983.435, 1352.509 2982.366, 1354.990 2981.589 C 1357.470 2980.813, 1362.751 2979.910, 1366.725 2979.584 C 1370.698 2979.258, 1376.098 2978.154, 1378.725 2977.132 C 1381.351 2976.110, 1386.223 2974.975, 1389.551 2974.610 C 1392.880 2974.244, 1398.730 2972.802, 1402.551 2971.404 C 1406.373 2970.006, 1412.425 2968.218, 1416 2967.430 C 1419.575 2966.642, 1426.325 2964.469, 1431 2962.601 C 1435.675 2960.734, 1441.574 2958.719, 1444.110 2958.124 C 1446.645 2957.529, 1452.258 2955.232, 1456.582 2953.021 C 1460.907 2950.809, 1465.171 2949, 1466.059 2949 C 1468.074 2949, 1501.072 2932.654, 1506.500 2928.966 C 1508.700 2927.472, 1513.650 2924.582, 1517.500 2922.545 C 1521.350 2920.508, 1526.975 2916.964, 1530 2914.670 C 1533.025 2912.377, 1538.650 2908.556, 1542.500 2906.180 C 1546.350 2903.804, 1551.525 2899.929, 1554 2897.570 C 1556.475 2895.211, 1560.677 2891.819, 1563.337 2890.033 C 1565.997 2888.246, 1571.201 2883.796, 1574.901 2880.142 C 1578.601 2876.489, 1584.300 2870.992, 1587.564 2867.928 C 1596.834 2859.226, 1609.749 2844.639, 1614.632 2837.358 C 1617.076 2833.712, 1621.036 2828.428, 1623.431 2825.615 C 1625.826 2822.802, 1629.485 2817.350, 1631.562 2813.500 C 1633.639 2809.650, 1636.849 2804.399, 1638.696 2801.830 C 1640.542 2799.262, 1643.396 2794.087, 1645.038 2790.330 C 1646.680 2786.574, 1649.696 2780.277, 1651.740 2776.338 L 1655.456 2769.175 1667.478 2768.609 C 1674.090 2768.297, 1696.375 2767.802, 1717 2767.509 C 1737.625 2767.216, 1765.975 2766.742, 1780 2766.455 C 1834.858 2765.334, 1908.574 2764.006, 1951.735 2763.360 L 1996.970 2762.684 1999.356 2768.092 C 2000.668 2771.066, 2002.053 2775.075, 2002.433 2777 C 2002.814 2778.925, 2005.314 2785, 2007.990 2790.500 C 2010.666 2796, 2014.249 2803.612, 2015.952 2807.415 C 2017.655 2811.218, 2020.638 2816.541, 2022.579 2819.243 C 2024.520 2821.945, 2026.527 2825.256, 2027.038 2826.601 C 2028.499 2830.442, 2034.881 2840.152, 2038.474 2844 C 2040.272 2845.925, 2043.034 2849.750, 2044.612 2852.500 C 2046.191 2855.250, 2050.425 2860.650, 2054.022 2864.500 C 2057.619 2868.350, 2061.782 2873.153, 2063.273 2875.173 C 2064.765 2877.194, 2068.298 2881.019, 2071.125 2883.673 C 2073.952 2886.328, 2079.441 2891.776, 2083.323 2895.779 C 2087.205 2899.783, 2092.658 2904.582, 2095.441 2906.443 C 2098.223 2908.305, 2102.300 2911.693, 2104.500 2913.972 C 2106.700 2916.251, 2112.100 2920.418, 2116.500 2923.233 C 2120.900 2926.048, 2126.525 2930.032, 2129 2932.085 C 2131.475 2934.138, 2136.650 2937.528, 2140.500 2939.616 C 2144.350 2941.705, 2149.525 2944.843, 2152 2946.590 C 2156.760 2949.948, 2164.927 2954.253, 2168.844 2955.468 C 2170.133 2955.867, 2173.227 2957.571, 2175.720 2959.253 C 2178.213 2960.935, 2183.683 2963.625, 2187.876 2965.231 C 2192.069 2966.836, 2198.200 2969.455, 2201.500 2971.049 C 2208.769 2974.561, 2217.938 2977.999, 2220.039 2977.999 C 2220.885 2978, 2223.330 2978.894, 2225.472 2979.986 C 2231.178 2982.895, 2239.794 2985.711, 2245.500 2986.533 C 2248.250 2986.928, 2250.950 2987.586, 2251.500 2987.993 C 2253.591 2989.542, 2265.905 2993.080, 2271.089 2993.621 C 2274.065 2993.931, 2278.975 2995.003, 2282 2996.003 C 2285.025 2997.003, 2291.325 2998.343, 2296 2998.981 C 2300.675 2999.619, 2307.650 3000.794, 2311.500 3001.592 C 2333.995 3006.255, 2385.543 3007.913, 2430.374 3005.416 L 2441.247 3004.811 2440.585 2988.655 C 2440.221 2979.770, 2439.036 2953.600, 2437.952 2930.500 C 2436.868 2907.400, 2435.873 2883.550, 2435.741 2877.500 L 2435.500 2866.500 2433 2866.642 C 2405.736 2868.194, 2376.900 2869.119, 2371.461 2868.617 C 2330.977 2864.881, 2326.878 2864.412, 2323.761 2863.159 C 2322.255 2862.553, 2317.980 2861.758, 2314.261 2861.392 C 2310.543 2861.026, 2306.375 2860.172, 2305 2859.495 C 2303.625 2858.818, 2298.973 2857.491, 2294.662 2856.544 C 2290.351 2855.598, 2285.176 2854.119, 2283.162 2853.257 C 2281.148 2852.394, 2277.250 2851.112, 2274.500 2850.406 C 2268.318 2848.820, 2253.834 2843.055, 2244.473 2838.454 C 2240.608 2836.554, 2237.057 2835, 2236.581 2835 C 2236.105 2835, 2232.866 2833.200, 2229.383 2831 C 2225.899 2828.800, 2222.700 2826.997, 2222.275 2826.994 C 2221.320 2826.987, 2205.595 2816.655, 2197.639 2810.808 C 2187.561 2803.400, 2167.798 2784.738, 2160.708 2775.934 C 2152.875 2766.208, 2144.570 2753.891, 2140.571 2746.072 C 2139.044 2743.086, 2137.402 2739.936, 2136.922 2739.072 C 2133.111 2732.202, 2126.972 2713.507, 2124.421 2701 C 2121.820 2688.254, 2121.795 2653.316, 2124.378 2643 C 2128.635 2626.003, 2136.813 2602.434, 2139.721 2598.785 C 2140.284 2598.078, 2141.817 2595.250, 2143.126 2592.500 C 2147.838 2582.607, 2161.293 2563.111, 2170.417 2552.955 C 2172.663 2550.456, 2175.682 2547.081, 2177.127 2545.455 C 2191.538 2529.239, 2226.124 2502.529, 2245.139 2492.930 C 2248.563 2491.201, 2252.970 2488.726, 2254.932 2487.428 C 2256.894 2486.130, 2260.075 2484.522, 2262 2483.854 C 2263.925 2483.187, 2267.542 2481.439, 2270.039 2479.971 C 2272.535 2478.503, 2277.035 2476.501, 2280.039 2475.523 C 2283.042 2474.544, 2287.829 2472.660, 2290.675 2471.335 C 2293.521 2470.010, 2298.021 2468.327, 2300.675 2467.596 C 2303.329 2466.864, 2308.200 2465.319, 2311.500 2464.163 C 2321.216 2460.760, 2335.086 2456.928, 2341 2456.014 C 2344.025 2455.547, 2350.059 2454.227, 2354.410 2453.082 C 2358.760 2451.937, 2364.160 2450.980, 2366.410 2450.956 C 2368.659 2450.932, 2372.525 2450.441, 2375 2449.864 C 2380.421 2448.600, 2399.720 2447.016, 2409.750 2447.010 L 2417 2447.007 2417.004 2439.253 C 2417.006 2434.989, 2416.118 2412.600, 2415.031 2389.500 C 2413.944 2366.400, 2412.768 2338.613, 2412.418 2327.750 L 2411.781 2308 2407.141 2308.175 C 2404.588 2308.272, 2396.200 2308.671, 2388.500 2309.063" stroke="none" fill="#fc0404" fill-rule="evenodd"/></svg>