<?xml version="1.0" encoding="utf-8"?>
<!-- Generator: Adobe Illustrator 28.2.0, SVG Export Plug-In . SVG Version: 6.00 Build 0)  -->
<svg version="1.1" xmlns="http://www.w3.org/2000/svg" xmlns:xlink="http://www.w3.org/1999/xlink" x="0px" y="0px"
	 viewBox="0 0 576 576" style="enable-background:new 0 0 576 576;" xml:space="preserve">
<style type="text/css">
	.st0{fill:none;stroke:#000000;stroke-width:24;stroke-linecap:round;stroke-linejoin:round;stroke-miterlimit:10;}
	.st1{clip-path:url(#SVGID_00000042001285868786284460000001266761281734835135_);}
	.st2{fill:none;stroke:#000000;stroke-width:24;stroke-linejoin:round;stroke-miterlimit:10;}
</style>
<g id="Raster">
	<circle class="st0" cx="85.2" cy="190.9" r="33.5"/>
	<circle class="st0" cx="274.8" cy="346.7" r="28.8"/>
	<circle class="st0" cx="387" cy="346.7" r="28.8"/>
	<circle class="st0" cx="498.4" cy="346.7" r="28.8"/>
</g>
<g id="Gedenken">
</g>
<g id="Erfolgsgeste">
</g>
<g id="schulung">
	<g>
		<defs>
			<rect id="SVGID_1_" x="275.5" y="33.8" width="154.6" height="138.9"/>
		</defs>
		<clipPath id="SVGID_00000000209434010624076360000012078589261270843545_">
			<use xlink:href="#SVGID_1_"  style="overflow:visible;"/>
		</clipPath>
		<g style="clip-path:url(#SVGID_00000000209434010624076360000012078589261270843545_);">
			<defs>
				<rect id="SVGID_00000083775963780691380720000009763227510108204186_" x="259.4" y="17.6" width="186.1" height="169.8"/>
			</defs>
			<clipPath id="SVGID_00000065770168901049853120000013400067224511778229_">
				<use xlink:href="#SVGID_00000083775963780691380720000009763227510108204186_"  style="overflow:visible;"/>
			</clipPath>
		</g>
	</g>
	<g>
		<line class="st2" x1="85" y1="249.9" x2="85" y2="260.2"/>
		<line class="st2" x1="99.6" y1="250" x2="99.5" y2="259.8"/>
	</g>
	<g>
		<g>
			<path class="st0" d="M176.2,246.2c-10,10.3-23.5,25.7-42.2,27.9c-8.4-9.2-21.7-14.7-41.3-14.7c-47.7,0-62.4,35-61.2,54l106.2-1.9
				c46.3,6.5,72.2-44.1,72.2-44.1L176.2,246.2z"/>
		</g>
	</g>
	<line class="st0" x1="85" y1="311.3" x2="60.2" y2="311.4"/>
	<rect x="176.4" y="21.3" class="st0" width="343.8" height="167.8"/>
	<g>
		<g>
			<polygon class="st0" points="161.7,311.3 22.5,311.3 22.5,358.7 60.2,358.7 60.2,486.2 124,486.2 124,358.7 161.7,358.7 			"/>
		</g>
	</g>
	<g>
		<path class="st0" d="M313.8,434.6c0-14.5-17.4-26.3-39-26.3s-39,11.8-39,26.3l14,62.8h52.6L313.8,434.6z"/>
		<line class="st0" x1="249.9" y1="498.9" x2="302.5" y2="498.9"/>
		<line class="st0" x1="257.1" y1="513.8" x2="257.1" y2="559"/>
		<line class="st0" x1="293.4" y1="513.8" x2="293.4" y2="559"/>
	</g>
	<g>
		<path class="st0" d="M425.9,434.6c0-14.5-17.4-26.3-39-26.3s-39,11.8-39,26.3l14,62.8h52.6L425.9,434.6z"/>
		<line class="st0" x1="362.1" y1="498.9" x2="414.7" y2="498.9"/>
		<line class="st0" x1="369.2" y1="513.8" x2="369.2" y2="559"/>
		<line class="st0" x1="405.5" y1="513.8" x2="405.5" y2="559"/>
	</g>
	<g>
		<line class="st0" x1="473.5" y1="498.9" x2="526.2" y2="498.9"/>
		<g>
			<path class="st0" d="M537.4,434.6c0-14.5-17.4-26.3-39-26.3s-39,11.8-39,26.3l14,62.8h52.6L537.4,434.6z"/>
			<line class="st0" x1="480.7" y1="513.8" x2="480.7" y2="559"/>
			<line class="st0" x1="517" y1="513.8" x2="517" y2="559"/>
		</g>
	</g>
	<path class="st0" d="M207.9,237.4c-13.3,17.2-5.7,7.5-5.7,7.5"/>
	<path class="st0" d="M299.2,52.1c0,0-39,24-20.4,40.2c7.4,6.5-1.6,18.5-10.2,20.8c-21.8,6-30.5-13.6-31-15.5s-7.3,56.5,58.5,60.6
		c50.2,3.2,76.9-4.7,86.7-54.3c0,0-18.5-14.1-27.1,0c-9.4,15.3-25.3-7.9-23-17.7C338.6,60.4,299.2,52.1,299.2,52.1z"/>
</g>
<g id="Veranstaltung">
</g>
<g id="Befragung">
</g>
<g id="Kompromis">
</g>
<g id="Kommunikation_00000148621349926615277130000004128927954781058462_">
</g>
</svg>
