<svg xmlns="http://www.w3.org/2000/svg" width="3600" height="3600" viewBox="0 0 3600 3600" version="1.1"><path d="M 1758 496.597 C 1756.075 496.823, 1738.525 497.939, 1719 499.077 C 1676.198 501.571, 1643.926 504.265, 1625 506.924 C 1620.325 507.581, 1612.675 508.553, 1608 509.085 C 1603.325 509.617, 1596.800 510.492, 1593.500 511.029 C 1590.200 511.567, 1583.291 512.465, 1578.146 513.024 C 1573.001 513.584, 1567.968 514.482, 1566.961 515.021 C 1565.955 515.559, 1563.029 516, 1560.459 516 C 1557.889 516, 1552.797 516.642, 1549.143 517.426 C 1545.489 518.211, 1539.350 519.367, 1535.500 519.997 C 1531.650 520.626, 1523.775 522.019, 1518 523.093 C 1512.225 524.166, 1505.925 525.291, 1504 525.593 C 1499.754 526.258, 1484.581 529.395, 1473 532.001 C 1468.325 533.053, 1461.054 534.603, 1456.842 535.446 C 1452.631 536.289, 1448.131 537.373, 1446.842 537.853 C 1445.554 538.334, 1442.250 539.047, 1439.500 539.437 C 1436.750 539.827, 1432.489 540.817, 1430.031 541.636 C 1427.573 542.455, 1422.012 543.798, 1417.673 544.622 C 1413.334 545.445, 1409.045 546.543, 1408.142 547.062 C 1407.239 547.581, 1402.675 548.869, 1398 549.925 C 1389.704 551.799, 1384.788 553.095, 1370.500 557.177 C 1366.650 558.276, 1362.150 559.559, 1360.500 560.026 C 1344.777 564.482, 1314.014 573.944, 1308 576.174 C 1304.975 577.296, 1300.250 578.821, 1297.500 579.563 C 1290.836 581.362, 1272.621 587.558, 1267 589.939 C 1264.525 590.987, 1260.025 592.586, 1257 593.491 C 1253.975 594.397, 1249.700 595.948, 1247.500 596.938 C 1245.300 597.929, 1240.350 599.762, 1236.500 601.013 C 1232.650 602.263, 1228.600 603.846, 1227.500 604.529 C 1226.400 605.213, 1222.350 606.783, 1218.500 608.019 C 1214.650 609.255, 1211.050 610.587, 1210.500 610.980 C 1209.950 611.372, 1205 613.399, 1199.500 615.485 C 1194 617.570, 1189.034 619.639, 1188.465 620.082 C 1187.896 620.525, 1184.071 622.082, 1179.965 623.542 C 1175.859 625.001, 1170.620 627.277, 1168.322 628.598 C 1166.024 629.919, 1163.577 631, 1162.885 631 C 1161.588 631, 1148.431 636.846, 1132.307 644.587 C 1127.250 647.014, 1122.840 649, 1122.506 649 C 1121.916 649, 1084.487 667.018, 1080.510 669.217 C 1079.415 669.822, 1072.215 673.544, 1064.510 677.488 C 1042.069 688.975, 1015.573 703.419, 1002.500 711.290 C 999.750 712.946, 994.575 715.880, 991 717.810 C 987.425 719.740, 982.700 722.541, 980.500 724.034 C 978.300 725.527, 973.482 728.391, 969.794 730.399 C 966.106 732.406, 962.811 734.496, 962.473 735.043 C 962.135 735.590, 959.528 737.218, 956.679 738.661 C 953.831 740.103, 950.150 742.302, 948.500 743.547 C 946.850 744.791, 942.575 747.493, 939 749.550 C 935.425 751.607, 930.624 754.800, 928.332 756.645 C 926.039 758.490, 923.728 760, 923.196 760 C 922.664 760, 918.575 762.588, 914.109 765.750 C 909.644 768.913, 903.405 773.218, 900.245 775.318 C 885.039 785.422, 877.261 790.852, 865.166 799.809 C 861.682 802.389, 857.498 805.400, 855.868 806.500 C 854.238 807.600, 849.670 810.975, 845.717 814 C 841.764 817.025, 836.879 820.625, 834.862 822 C 832.845 823.375, 829.463 825.956, 827.347 827.735 C 825.231 829.514, 820.575 833.212, 817 835.954 C 813.425 838.696, 807.281 843.540, 803.347 846.719 C 799.413 849.899, 793.350 854.750, 789.874 857.500 C 786.398 860.250, 781.517 864.315, 779.027 866.532 C 776.537 868.750, 772.250 872.340, 769.500 874.510 C 766.750 876.679, 764.050 878.963, 763.500 879.586 C 762.950 880.208, 759.350 883.330, 755.500 886.525 C 751.650 889.719, 747.596 893.271, 746.491 894.417 C 745.386 895.562, 742.911 897.794, 740.991 899.375 C 739.071 900.956, 734.530 905.006, 730.901 908.375 C 727.271 911.744, 720.358 918.100, 715.538 922.500 C 689.210 946.533, 632.961 1004.579, 608.500 1032.959 C 604.100 1038.064, 598.224 1044.788, 595.443 1047.901 C 592.662 1051.015, 588.568 1056.024, 586.346 1059.032 C 584.123 1062.041, 581.485 1065.177, 580.484 1066.001 C 579.482 1066.826, 576.250 1070.650, 573.300 1074.500 C 570.351 1078.350, 565.256 1084.875, 561.979 1089 C 558.701 1093.125, 553.878 1099.381, 551.260 1102.903 C 548.642 1106.425, 545.106 1110.925, 543.403 1112.903 C 541.700 1114.881, 538.550 1119.015, 536.403 1122.089 C 534.256 1125.162, 530.250 1130.682, 527.500 1134.355 C 515.644 1150.188, 495.371 1179.498, 483.132 1198.500 C 479.943 1203.450, 474.843 1211.325, 471.799 1216 C 468.754 1220.675, 465.524 1225.949, 464.621 1227.720 C 463.718 1229.492, 461.184 1233.504, 458.990 1236.636 C 456.795 1239.769, 455 1242.739, 455 1243.237 C 455 1243.735, 452.943 1247.373, 450.428 1251.321 C 445.481 1259.088, 433 1280.905, 433 1281.785 C 433 1282.082, 431.537 1284.592, 429.750 1287.362 C 427.962 1290.133, 424.925 1295.433, 423 1299.141 C 421.075 1302.849, 416.971 1310.746, 413.881 1316.691 C 400.503 1342.425, 376 1392.877, 376 1394.688 C 376 1395.151, 375.062 1397.280, 373.915 1399.420 C 372.768 1401.560, 370.322 1406.954, 368.481 1411.406 C 366.639 1415.857, 363.021 1424.450, 360.442 1430.500 C 357.863 1436.550, 354.876 1443.942, 353.804 1446.928 C 352.733 1449.913, 350.088 1456.493, 347.928 1461.549 C 345.768 1466.606, 344 1471.492, 344 1472.407 C 344 1473.322, 343.372 1475.067, 342.604 1476.285 C 341.836 1477.503, 340.015 1482.100, 338.559 1486.500 C 337.102 1490.900, 335.477 1495.400, 334.948 1496.500 C 333.123 1500.293, 325.866 1521.515, 324.378 1527.410 C 323.558 1530.660, 322.290 1534.485, 321.561 1535.910 C 320.831 1537.334, 319.273 1542.100, 318.098 1546.500 C 316.922 1550.900, 315.517 1555.400, 314.976 1556.500 C 313.823 1558.840, 308.486 1576.838, 306.375 1585.500 C 305.571 1588.800, 304.435 1592.850, 303.849 1594.500 C 302.724 1597.675, 299.461 1609.893, 295.971 1624 C 294.814 1628.675, 293.248 1634.750, 292.490 1637.500 C 291.732 1640.250, 290.600 1645.200, 289.975 1648.500 C 289.350 1651.800, 287.975 1657.360, 286.919 1660.855 C 285.864 1664.351, 285 1668.753, 285 1670.637 C 285 1672.522, 284.335 1675.655, 283.523 1677.600 C 282.710 1679.545, 281.597 1684.713, 281.049 1689.085 C 280.500 1693.458, 279.613 1697.854, 279.077 1698.855 C 278.541 1699.857, 277.646 1704.237, 277.087 1708.588 C 276.528 1712.940, 275.380 1719.109, 274.536 1722.299 C 273.691 1725.488, 272.995 1729.763, 272.989 1731.799 C 272.983 1733.834, 272.308 1737.709, 271.489 1740.409 C 270.670 1743.109, 269.984 1747.159, 269.964 1749.409 C 269.945 1751.659, 269.277 1756.200, 268.480 1759.500 C 267.683 1762.800, 267.027 1767.075, 267.022 1769 C 267.017 1770.925, 266.362 1776.325, 265.565 1781 C 263.368 1793.896, 257.247 1850.588, 257.198 1858.500 C 257.191 1859.600, 256.716 1866.800, 256.142 1874.500 C 253.053 1915.974, 252.434 1972.696, 254.434 2031 C 254.823 2042.321, 257.081 2076.591, 257.592 2078.921 C 257.885 2080.252, 258.558 2087.002, 259.089 2093.921 C 260.044 2106.380, 261.473 2120.780, 262.519 2128.500 C 262.817 2130.700, 263.733 2138.125, 264.555 2145 C 265.945 2156.633, 267.174 2165.013, 270.052 2182.500 C 270.686 2186.350, 271.554 2192.200, 271.981 2195.500 C 272.844 2202.166, 273.978 2208.169, 281.235 2244.500 C 283.981 2258.250, 286.565 2270.175, 286.976 2271 C 287.387 2271.825, 288.013 2274.718, 288.367 2277.429 C 288.721 2280.141, 289.675 2284.641, 290.486 2287.429 C 292.141 2293.118, 295.671 2307.295, 297.037 2313.742 C 297.532 2316.075, 299.306 2322.825, 300.979 2328.742 C 302.653 2334.659, 305.165 2343.550, 306.562 2348.500 C 311.304 2365.306, 318.714 2389.134, 323.200 2402 C 324.830 2406.675, 326.588 2412.228, 327.107 2414.340 C 327.626 2416.452, 329.113 2420.727, 330.411 2423.840 C 331.709 2426.953, 333.099 2431.075, 333.501 2433 C 333.902 2434.925, 334.564 2436.950, 334.970 2437.500 C 335.377 2438.050, 336.275 2440.075, 336.965 2442 C 344.917 2464.166, 354.322 2488.253, 362.539 2507.500 C 365.122 2513.550, 368.782 2522.265, 370.671 2526.867 C 372.561 2531.469, 374.741 2536.202, 375.516 2537.384 C 376.290 2538.566, 377.559 2541.333, 378.335 2543.534 C 381.489 2552.471, 408.002 2605.909, 424.213 2636 C 433.632 2653.485, 439.311 2663.639, 440.430 2665 C 441.109 2665.825, 442.925 2668.975, 444.465 2672 C 446.005 2675.025, 448.494 2679.300, 449.996 2681.500 C 451.498 2683.700, 453.641 2687.300, 454.759 2689.500 C 455.877 2691.700, 458.301 2695.832, 460.146 2698.682 C 461.991 2701.533, 466.200 2708.205, 469.500 2713.510 C 481.761 2733.222, 487.666 2742.256, 500.537 2761 C 502.991 2764.575, 506.237 2769.487, 507.750 2771.915 C 509.262 2774.344, 512.315 2778.619, 514.533 2781.415 C 516.750 2784.212, 519.937 2788.525, 521.614 2791 C 526.232 2797.817, 539.189 2815.455, 546.592 2825 C 561.273 2843.931, 564.324 2847.821, 570.283 2855.206 C 573.702 2859.445, 578.718 2865.745, 581.428 2869.206 C 584.138 2872.668, 588.413 2877.807, 590.928 2880.627 C 593.443 2883.447, 598.875 2889.673, 603 2894.464 C 614.681 2908.030, 631.800 2927.145, 645.500 2941.920 C 669.817 2968.147, 727.183 3023.453, 753.974 3046.500 C 759.089 3050.900, 765.349 3056.348, 767.887 3058.606 C 770.424 3060.864, 774.587 3064.286, 777.138 3066.212 C 779.689 3068.137, 783.561 3071.364, 785.743 3073.383 C 787.926 3075.402, 791.950 3078.729, 794.687 3080.777 C 797.424 3082.825, 800.469 3085.311, 801.455 3086.302 C 802.440 3087.293, 806.453 3090.559, 810.373 3093.560 C 817.972 3099.378, 823.014 3103.314, 832.286 3110.664 C 835.468 3113.186, 839.807 3116.431, 841.929 3117.875 C 844.050 3119.319, 847.522 3121.925, 849.643 3123.667 C 853.413 3126.762, 855.508 3128.271, 870.234 3138.500 C 874.193 3141.250, 880.431 3145.750, 884.096 3148.500 C 887.762 3151.250, 892.052 3154.283, 893.630 3155.240 C 895.209 3156.197, 899.425 3158.994, 903 3161.456 C 915.632 3170.154, 921.603 3174.149, 931 3180.190 C 936.225 3183.550, 943.425 3188.189, 947 3190.501 C 950.575 3192.813, 955.525 3195.922, 958 3197.412 C 960.475 3198.901, 966.775 3202.793, 972 3206.060 C 977.225 3209.327, 984.200 3213.401, 987.500 3215.113 C 990.800 3216.824, 994.175 3218.794, 995 3219.490 C 995.825 3220.186, 999.425 3222.337, 1003 3224.269 C 1010.090 3228.101, 1022.742 3235.266, 1027.500 3238.143 C 1029.150 3239.141, 1033.875 3241.729, 1038 3243.896 C 1042.125 3246.062, 1050.675 3250.551, 1057 3253.871 C 1079.903 3265.893, 1124.179 3287.572, 1142 3295.492 C 1147.775 3298.058, 1156.325 3301.886, 1161 3303.998 C 1165.675 3306.110, 1170.625 3308.151, 1172 3308.533 C 1173.375 3308.915, 1175.850 3310.028, 1177.500 3311.006 C 1179.150 3311.984, 1183.875 3313.985, 1188 3315.452 C 1192.125 3316.919, 1196.400 3318.699, 1197.500 3319.406 C 1198.600 3320.114, 1201.975 3321.498, 1205 3322.482 C 1208.025 3323.466, 1211.850 3324.956, 1213.500 3325.794 C 1218.674 3328.422, 1269.973 3347.393, 1283.500 3351.681 C 1286.250 3352.553, 1291.875 3354.553, 1296 3356.126 C 1300.125 3357.698, 1305.075 3359.285, 1307 3359.652 C 1308.925 3360.019, 1312.449 3361.148, 1314.832 3362.160 C 1317.215 3363.171, 1322.840 3364.938, 1327.332 3366.085 C 1331.824 3367.232, 1335.954 3368.547, 1336.510 3369.008 C 1337.065 3369.469, 1341.565 3370.834, 1346.510 3372.042 C 1351.454 3373.250, 1356.362 3374.691, 1357.416 3375.243 C 1359.141 3376.148, 1371.110 3379.470, 1387.500 3383.592 C 1390.800 3384.422, 1395.664 3385.808, 1398.308 3386.672 C 1400.952 3387.536, 1406.577 3389.038, 1410.808 3390.009 C 1415.039 3390.981, 1422.100 3392.712, 1426.500 3393.855 C 1441.608 3397.782, 1455.774 3401, 1457.952 3401 C 1459.151 3401, 1461.087 3401.511, 1462.255 3402.137 C 1463.423 3402.762, 1468.006 3403.875, 1472.440 3404.612 C 1476.873 3405.348, 1489.050 3407.728, 1499.500 3409.901 C 1528.713 3415.976, 1534.253 3417.010, 1537.568 3417.005 C 1539.255 3417.002, 1543.980 3417.889, 1548.068 3418.976 C 1552.155 3420.064, 1557.391 3420.964, 1559.701 3420.976 C 1562.012 3420.989, 1566.494 3421.675, 1569.661 3422.500 C 1572.829 3423.325, 1577.554 3424, 1580.161 3424 C 1582.769 3424, 1587.494 3424.675, 1590.661 3425.500 C 1593.829 3426.325, 1598.688 3427.011, 1601.460 3427.024 C 1604.232 3427.037, 1608.300 3427.502, 1610.500 3428.058 C 1614.338 3429.028, 1623.138 3430.116, 1642.500 3432.015 C 1647.450 3432.501, 1656.450 3433.392, 1662.500 3433.995 C 1714.170 3439.146, 1757.086 3441.205, 1816 3441.360 C 1863.211 3441.484, 1919.423 3440.457, 1921.089 3439.440 C 1921.413 3439.243, 1925.238 3438.855, 1929.589 3438.579 C 1933.940 3438.303, 1944.925 3437.606, 1954 3437.029 C 1963.075 3436.453, 1972.216 3435.716, 1974.313 3435.392 C 1976.411 3435.068, 1982.936 3434.408, 1988.813 3433.926 C 2009.487 3432.231, 2018.799 3431.243, 2019.775 3430.639 C 2020.317 3430.304, 2025.877 3429.519, 2032.130 3428.894 C 2047.576 3427.351, 2055.307 3426.412, 2063 3425.144 C 2066.575 3424.554, 2072.425 3423.588, 2076 3422.997 C 2079.575 3422.406, 2086.202 3421.511, 2090.726 3421.009 C 2095.251 3420.507, 2099.834 3419.624, 2100.911 3419.048 C 2101.987 3418.472, 2104.714 3418, 2106.970 3418 C 2109.227 3418, 2114.769 3417.143, 2119.286 3416.095 C 2123.804 3415.047, 2132 3413.425, 2137.500 3412.490 C 2143 3411.555, 2151.180 3409.938, 2155.677 3408.895 C 2160.175 3407.853, 2164.660 3407, 2165.645 3407 C 2166.630 3407, 2171.050 3406.127, 2175.468 3405.060 C 2179.885 3403.992, 2189.800 3401.722, 2197.500 3400.014 C 2205.200 3398.307, 2213.750 3396.283, 2216.500 3395.517 C 2219.250 3394.750, 2227.350 3392.733, 2234.500 3391.032 C 2241.650 3389.332, 2250.425 3387.075, 2254 3386.017 C 2257.575 3384.958, 2261.850 3383.796, 2263.500 3383.435 C 2269.897 3382.035, 2316.549 3368.173, 2329.500 3363.824 C 2332.800 3362.716, 2338.200 3360.993, 2341.500 3359.995 C 2344.800 3358.996, 2353.575 3356.061, 2361 3353.471 C 2368.425 3350.881, 2376.525 3348.092, 2379 3347.273 C 2381.475 3346.453, 2386.650 3344.536, 2390.500 3343.012 C 2394.350 3341.488, 2399.975 3339.452, 2403 3338.488 C 2406.025 3337.524, 2408.950 3336.398, 2409.500 3335.987 C 2410.050 3335.575, 2413.875 3334.078, 2418 3332.661 C 2426.624 3329.698, 2441.093 3323.944, 2448.777 3320.420 C 2451.680 3319.089, 2454.484 3318, 2455.009 3318 C 2455.534 3318, 2459.753 3316.249, 2464.384 3314.110 C 2469.015 3311.970, 2474.415 3309.688, 2476.383 3309.038 C 2478.352 3308.389, 2483.009 3306.378, 2486.732 3304.570 C 2490.454 3302.761, 2494.625 3300.935, 2496 3300.510 C 2497.375 3300.085, 2501.425 3298.281, 2505 3296.500 C 2508.575 3294.719, 2512.581 3292.926, 2513.902 3292.515 C 2515.223 3292.105, 2518.373 3290.563, 2520.902 3289.089 C 2523.431 3287.615, 2527.525 3285.647, 2530 3284.715 C 2537.972 3281.713, 2608.615 3245.693, 2614.882 3241.434 C 2616.852 3240.095, 2618.796 3239, 2619.201 3239 C 2619.607 3239, 2623.762 3236.742, 2628.434 3233.982 C 2633.106 3231.222, 2637.733 3228.674, 2638.715 3228.319 C 2639.697 3227.965, 2643.425 3225.817, 2647 3223.547 C 2650.575 3221.277, 2655.975 3218.138, 2659 3216.570 C 2662.025 3215.002, 2665.850 3212.711, 2667.500 3211.478 C 2669.150 3210.245, 2672.075 3208.457, 2674 3207.505 C 2675.925 3206.553, 2680.425 3203.855, 2684 3201.510 C 2687.575 3199.165, 2692.525 3196.033, 2695 3194.550 C 2704.415 3188.908, 2724.122 3176.189, 2734.500 3169.056 C 2749.068 3159.043, 2753.901 3155.747, 2760 3151.666 C 2763.575 3149.274, 2769.650 3144.999, 2773.500 3142.166 C 2777.350 3139.333, 2782.975 3135.199, 2786 3132.978 C 2789.025 3130.757, 2794.370 3126.816, 2797.878 3124.220 C 2801.385 3121.624, 2806.335 3117.995, 2808.878 3116.156 C 2811.420 3114.316, 2816.425 3110.457, 2820 3107.579 C 2823.575 3104.701, 2835.406 3095.181, 2846.292 3086.423 C 2874.208 3063.964, 2874.794 3063.482, 2881.810 3057.197 C 2885.280 3054.088, 2888.492 3051.309, 2888.946 3051.022 C 2891.061 3049.686, 2910.082 3032.394, 2934.054 3010.014 C 2967.543 2978.750, 3027.860 2915.912, 3041.500 2898.078 C 3042.600 2896.640, 3045.630 2893.222, 3048.233 2890.482 C 3050.836 2887.742, 3052.974 2885.129, 3052.983 2884.676 C 3052.992 2884.222, 3055.381 2881.297, 3058.292 2878.176 C 3061.202 2875.054, 3065.495 2870.025, 3067.832 2867 C 3073.863 2859.192, 3080.987 2850.160, 3086.637 2843.157 C 3094.764 2833.085, 3108.238 2815.388, 3116.500 2803.935 C 3132.282 2782.059, 3139.539 2771.708, 3148.088 2758.883 C 3150.062 2755.922, 3152.987 2751.537, 3154.588 2749.138 C 3156.190 2746.738, 3159.300 2741.938, 3161.500 2738.471 C 3163.700 2735.003, 3167.300 2729.459, 3169.500 2726.151 C 3171.700 2722.842, 3174.829 2717.968, 3176.453 2715.318 C 3188.910 2694.996, 3192.624 2688.811, 3195.258 2684 C 3196.914 2680.975, 3199.446 2676.700, 3200.884 2674.500 C 3202.323 2672.300, 3204.378 2668.700, 3205.450 2666.500 C 3206.523 2664.300, 3207.938 2661.825, 3208.595 2661 C 3209.252 2660.175, 3211.919 2655.450, 3214.521 2650.500 C 3217.123 2645.550, 3219.597 2641.050, 3220.018 2640.500 C 3224.568 2634.559, 3273 2535.584, 3273 2532.226 C 3273 2531.811, 3273.962 2529.677, 3275.138 2527.485 C 3276.313 2525.293, 3278.370 2520.575, 3279.708 2517 C 3281.047 2513.425, 3282.996 2508.700, 3284.041 2506.500 C 3286.629 2501.048, 3292.645 2486.150, 3296.035 2476.794 C 3297.571 2472.555, 3299.160 2468.550, 3299.566 2467.893 C 3299.972 2467.236, 3301.749 2462.604, 3303.516 2457.600 C 3305.283 2452.595, 3308.848 2442.650, 3311.440 2435.500 C 3314.032 2428.350, 3316.756 2420.347, 3317.495 2417.716 C 3318.233 2415.085, 3319.737 2410.585, 3320.837 2407.716 C 3321.937 2404.847, 3324.481 2397.100, 3326.489 2390.500 C 3339.389 2348.110, 3342.805 2336.152, 3346.915 2319 C 3347.904 2314.875, 3349.433 2309.025, 3350.314 2306 C 3351.194 2302.975, 3353.316 2294.200, 3355.028 2286.500 C 3356.741 2278.800, 3358.798 2270.025, 3359.600 2267 C 3360.403 2263.975, 3361.479 2258.800, 3361.993 2255.500 C 3362.837 2250.080, 3363.866 2244.764, 3367.026 2229.500 C 3368.855 2220.664, 3369.948 2214.704, 3371.426 2205.500 C 3374.941 2183.615, 3377.116 2170.061, 3378.023 2164.385 C 3378.560 2161.021, 3379 2156.518, 3379 2154.378 C 3379 2152.238, 3379.455 2148.915, 3380.012 2146.993 C 3380.568 2145.072, 3381.481 2138.775, 3382.041 2133 C 3382.601 2127.225, 3383.517 2118, 3384.078 2112.500 C 3393.463 2020.352, 3393.438 1918.367, 3384.010 1830.500 C 3383.420 1825, 3382.513 1816.450, 3381.995 1811.500 C 3379.960 1792.077, 3379.124 1785.286, 3378.117 1780 C 3376.982 1774.039, 3375.478 1763.752, 3374.051 1752.179 C 3373.555 1748.152, 3372.696 1742.752, 3372.142 1740.179 C 3370.588 1732.948, 3367.852 1718.345, 3366.396 1709.500 C 3365.671 1705.100, 3364.631 1699.700, 3364.083 1697.500 C 3362.612 1691.587, 3360.120 1679.549, 3358.554 1670.797 C 3357.796 1666.560, 3356.903 1662.653, 3356.570 1662.114 C 3356.237 1661.574, 3355.113 1657.166, 3354.073 1652.317 C 3347.870 1623.407, 3333.931 1574.032, 3321.236 1536 C 3318.207 1526.925, 3315.078 1517.475, 3314.283 1515 C 3313.488 1512.525, 3311.332 1506.450, 3309.492 1501.500 C 3307.652 1496.550, 3305.604 1490.700, 3304.943 1488.500 C 3304.281 1486.300, 3303.408 1484.050, 3303.002 1483.500 C 3302.597 1482.950, 3300.895 1478.675, 3299.219 1474 C 3295.107 1462.529, 3290.396 1450.618, 3287.439 1444.223 C 3286.098 1441.320, 3285 1438.516, 3285 1437.991 C 3285 1437.466, 3283.249 1433.247, 3281.110 1428.616 C 3278.970 1423.985, 3276.671 1418.533, 3276 1416.500 C 3275.329 1414.467, 3273.263 1409.811, 3271.409 1406.152 C 3269.555 1402.493, 3268.029 1399.084, 3268.019 1398.576 C 3268.008 1398.068, 3266.148 1393.793, 3263.884 1389.076 C 3261.621 1384.359, 3257.738 1376.225, 3255.256 1371 C 3252.774 1365.775, 3249.393 1358.800, 3247.742 1355.500 C 3246.092 1352.200, 3244.237 1348.400, 3243.620 1347.056 C 3236.748 1332.062, 3209.890 1282.424, 3195.705 1258.500 C 3186.332 1242.691, 3180.347 1232.941, 3176.361 1226.987 C 3173.962 1223.404, 3172 1220.138, 3172 1219.728 C 3172 1219.067, 3164.718 1207.831, 3155.973 1195 C 3151.986 1189.150, 3143.342 1176.068, 3139.378 1169.885 C 3137.660 1167.207, 3134.457 1162.650, 3132.260 1159.758 C 3130.062 1156.866, 3127.420 1153.150, 3126.388 1151.500 C 3125.357 1149.850, 3122.159 1145.350, 3119.283 1141.500 C 3116.407 1137.650, 3112.229 1132.025, 3109.998 1129 C 3097.038 1111.424, 3077.009 1085.841, 3064.590 1071 C 3062.059 1067.975, 3057.853 1062.820, 3055.244 1059.544 C 3052.635 1056.268, 3048.250 1051.030, 3045.500 1047.903 C 3042.750 1044.776, 3036.675 1037.818, 3032 1032.441 C 3023.891 1023.115, 3020.214 1019.055, 3004.434 1002.011 C 2978.641 974.151, 2924.948 921.001, 2913.500 911.996 C 2911.300 910.265, 2908.116 907.421, 2906.424 905.675 C 2904.732 903.929, 2898.931 898.675, 2893.534 894 C 2888.136 889.325, 2880.970 883.081, 2877.610 880.124 C 2874.249 877.167, 2869.925 873.567, 2868.001 872.124 C 2866.076 870.681, 2863.601 868.666, 2862.501 867.647 C 2857.458 862.977, 2830.265 841.093, 2823 835.859 C 2820.525 834.075, 2816.250 830.705, 2813.500 828.370 C 2810.750 826.034, 2806.391 822.633, 2803.814 820.811 C 2796.200 815.431, 2787.226 808.785, 2781.682 804.421 C 2778.832 802.177, 2774.475 799.155, 2772 797.705 C 2769.525 796.254, 2766.375 794.030, 2765 792.761 C 2763.625 791.493, 2759.350 788.349, 2755.500 785.776 C 2751.650 783.203, 2742.518 777.026, 2735.206 772.049 C 2727.895 767.072, 2721.688 763, 2721.413 763 C 2721.139 763, 2718.571 761.278, 2715.707 759.173 C 2712.843 757.068, 2707.350 753.445, 2703.500 751.122 C 2699.650 748.799, 2692 744.009, 2686.500 740.479 C 2681 736.949, 2674.408 732.937, 2671.851 731.565 C 2669.294 730.192, 2665.244 727.768, 2662.851 726.178 C 2658.451 723.255, 2654.410 720.919, 2639 712.391 C 2634.325 709.804, 2629.825 707.134, 2629 706.459 C 2628.175 705.783, 2624.125 703.453, 2620 701.280 C 2615.875 699.108, 2606.425 694.032, 2599 690.001 C 2591.575 685.970, 2584.150 682.041, 2582.500 681.270 C 2580.850 680.500, 2578.375 679.216, 2577 678.416 C 2572.139 675.591, 2526.465 653.213, 2524.098 652.496 C 2522.777 652.096, 2519.583 650.523, 2517 649 C 2514.417 647.477, 2511.223 645.896, 2509.902 645.486 C 2508.581 645.076, 2504.496 643.265, 2500.825 641.462 C 2497.153 639.658, 2493.103 637.850, 2491.825 637.445 C 2490.546 637.039, 2485.900 635.027, 2481.500 632.973 C 2477.100 630.919, 2472.375 628.897, 2471 628.478 C 2469.625 628.060, 2465.516 626.269, 2461.869 624.497 C 2458.221 622.726, 2453.961 620.956, 2452.401 620.565 C 2450.841 620.173, 2447.300 618.801, 2444.532 617.516 C 2437.061 614.046, 2411.182 604, 2409.715 604 C 2409.017 604, 2407.557 603.392, 2406.473 602.650 C 2405.388 601.907, 2400.450 599.905, 2395.500 598.201 C 2386.408 595.071, 2366.448 587.888, 2360 585.425 C 2358.075 584.689, 2355.726 584.068, 2354.780 584.044 C 2353.833 584.020, 2350.600 582.875, 2347.594 581.500 C 2344.588 580.125, 2341.590 579, 2340.933 579 C 2340.275 579, 2335.859 577.700, 2331.119 576.110 C 2326.378 574.521, 2317.325 571.628, 2311 569.681 C 2304.675 567.735, 2295.675 564.938, 2291 563.467 C 2286.325 561.995, 2280.025 560.195, 2277 559.465 C 2273.975 558.736, 2264.975 556.273, 2257 553.991 C 2249.025 551.710, 2239.800 549.279, 2236.500 548.588 C 2233.200 547.897, 2228.250 546.630, 2225.500 545.772 C 2222.750 544.913, 2214.200 542.798, 2206.500 541.071 C 2198.800 539.344, 2190.231 537.278, 2187.458 536.480 C 2184.685 535.682, 2179.735 534.598, 2176.458 534.071 C 2173.181 533.544, 2167.575 532.446, 2164 531.631 C 2160.425 530.815, 2152.550 529.195, 2146.500 528.029 C 2140.450 526.863, 2132.359 525.191, 2128.520 524.314 C 2124.681 523.436, 2118.606 522.344, 2115.020 521.887 C 2111.434 521.431, 2106.475 520.578, 2104 519.993 C 2101.525 519.407, 2096.301 518.561, 2092.392 518.111 C 2088.482 517.661, 2084.809 517, 2084.229 516.641 C 2083.648 516.283, 2079.422 515.576, 2074.837 515.071 C 2070.252 514.565, 2064.025 513.687, 2061 513.119 C 2057.975 512.551, 2051.450 511.574, 2046.500 510.947 C 2041.550 510.320, 2034.575 509.401, 2031 508.904 C 2014.683 506.638, 1975.500 502.806, 1944.500 500.444 C 1932.950 499.564, 1918.550 498.457, 1912.500 497.985 C 1901.132 497.097, 1764.214 495.867, 1758 496.597 M 1768 635.131 C 1732.932 636.339, 1688.802 639.594, 1649 643.908 C 1643.775 644.474, 1635.225 645.389, 1630 645.942 C 1624.775 646.495, 1618.928 647.409, 1617.007 647.974 C 1615.085 648.538, 1611.745 649, 1609.585 649 C 1607.424 649, 1602.021 649.641, 1597.578 650.425 C 1593.135 651.208, 1584.550 652.578, 1578.500 653.469 C 1572.450 654.359, 1565.475 655.567, 1563 656.153 C 1560.525 656.738, 1556.025 657.585, 1553 658.035 C 1540.016 659.965, 1529.096 661.964, 1523.540 663.429 C 1520.262 664.293, 1516.662 664.999, 1515.540 664.997 C 1513.729 664.994, 1502.939 667.309, 1491.500 670.155 C 1489.300 670.703, 1484.350 671.769, 1480.500 672.526 C 1476.650 673.282, 1468.775 675.087, 1463 676.537 C 1457.225 677.986, 1449.125 679.969, 1445 680.942 C 1440.875 681.916, 1435.025 683.448, 1432 684.347 C 1428.975 685.246, 1423.800 686.683, 1420.500 687.541 C 1417.200 688.399, 1412.250 689.688, 1409.500 690.406 C 1406.750 691.124, 1400.675 692.878, 1396 694.305 C 1391.325 695.731, 1383.450 698.094, 1378.500 699.556 C 1366.851 702.996, 1355.081 706.783, 1336.500 713.070 C 1328.250 715.861, 1319.250 718.817, 1316.500 719.637 C 1313.750 720.458, 1310.600 721.521, 1309.500 722 C 1301.625 725.429, 1297.808 726.883, 1295.147 727.468 C 1293.463 727.838, 1290.379 728.963, 1288.293 729.968 C 1286.207 730.974, 1281.800 732.699, 1278.500 733.802 C 1275.200 734.905, 1270.700 736.594, 1268.500 737.556 C 1266.300 738.517, 1261.800 740.309, 1258.500 741.538 C 1255.200 742.768, 1247.550 745.885, 1241.500 748.467 C 1235.450 751.048, 1228.700 753.854, 1226.500 754.702 C 1224.300 755.550, 1219.214 757.764, 1215.197 759.622 C 1211.180 761.480, 1207.613 763, 1207.270 763 C 1206.927 763, 1202.927 764.800, 1198.382 767 C 1193.837 769.200, 1189.873 771, 1189.575 771 C 1188.992 771, 1168.836 780.407, 1165.500 782.235 C 1164.400 782.838, 1161.250 784.414, 1158.500 785.738 C 1138.998 795.123, 1109.350 810.552, 1087.500 822.688 C 1066.913 834.123, 1061.424 837.277, 1060 838.489 C 1059.175 839.192, 1056.587 840.729, 1054.249 841.904 C 1051.911 843.080, 1046.961 845.945, 1043.249 848.271 C 1039.537 850.597, 1035.332 853.175, 1033.904 854 C 1030.207 856.136, 1023.099 860.596, 1012.599 867.368 C 984.794 885.301, 976.708 890.752, 959.309 903.288 C 953.364 907.572, 946.137 912.648, 943.249 914.569 C 940.361 916.491, 936.536 919.324, 934.749 920.865 C 932.962 922.407, 928.800 925.555, 925.500 927.861 C 922.200 930.167, 917.475 933.638, 915 935.576 C 912.525 937.513, 907.350 941.557, 903.500 944.563 C 885.753 958.417, 870.423 970.907, 859.791 980.172 C 856.651 982.909, 852.826 986.112, 851.291 987.291 C 848.740 989.250, 841.711 995.497, 818.026 1016.858 C 785.868 1045.860, 735.535 1097.807, 706 1132.475 C 701.875 1137.317, 696.748 1143.248, 694.607 1145.656 C 692.465 1148.064, 688.865 1152.443, 686.607 1155.386 C 683.398 1159.568, 671.536 1174.435, 665.771 1181.500 C 662.740 1185.214, 644.763 1209.152, 636.776 1220.109 C 624.751 1236.605, 619.117 1244.698, 610 1258.565 C 608.075 1261.493, 605.330 1265.602, 603.899 1267.695 C 596.834 1278.034, 586.964 1293.721, 575.394 1313 C 559.069 1340.204, 558.433 1341.319, 542.037 1371.500 C 531.764 1390.411, 500 1455.484, 500 1457.619 C 500 1457.896, 498.200 1461.946, 496 1466.620 C 493.800 1471.294, 492 1475.533, 492 1476.040 C 492 1476.547, 490.695 1479.783, 489.100 1483.231 C 486.165 1489.577, 482.605 1498.410, 478.436 1509.693 C 477.177 1513.100, 475.462 1517.375, 474.625 1519.193 C 473.788 1521.012, 471.900 1525.875, 470.430 1530 C 468.960 1534.125, 466.232 1541.775, 464.367 1547 C 459.643 1560.236, 455.007 1574.186, 450.076 1590 C 447.761 1597.425, 444.997 1606.021, 443.933 1609.103 C 442.870 1612.184, 442 1615.458, 442 1616.378 C 442 1617.297, 441.079 1620.626, 439.954 1623.775 C 438.829 1626.924, 437.505 1631.300, 437.013 1633.500 C 436.520 1635.700, 434.503 1643.350, 432.531 1650.500 C 430.559 1657.650, 428.282 1666.807, 427.471 1670.849 C 426.659 1674.891, 425.764 1678.573, 425.480 1679.032 C 424.047 1681.352, 412.397 1739.144, 409.059 1760.500 C 408.629 1763.250, 407.749 1768.875, 407.105 1773 C 406.460 1777.125, 405.284 1784.550, 404.491 1789.500 C 403.699 1794.450, 402.551 1803.225, 401.941 1809 C 401.331 1814.775, 400.420 1821.657, 399.917 1824.292 C 399.414 1826.928, 398.533 1835.703, 397.959 1843.792 C 397.385 1851.882, 396.484 1861.425, 395.957 1865 C 393.592 1881.048, 391.756 1937.624, 392.289 1978 C 392.828 2018.784, 395.170 2068.878, 397.008 2078.917 C 397.554 2081.896, 398 2086.309, 398 2088.724 C 398 2091.139, 398.430 2096.126, 398.954 2099.807 C 399.479 2103.488, 400.397 2111.225, 400.993 2117 C 401.988 2126.646, 402.644 2131.281, 406.089 2153 C 406.743 2157.125, 407.609 2162.975, 408.013 2166 C 408.417 2169.025, 409.249 2174.200, 409.862 2177.500 C 410.474 2180.800, 411.694 2187.775, 412.573 2193 C 413.452 2198.225, 414.803 2205.200, 415.575 2208.500 C 416.347 2211.800, 417.409 2217.316, 417.935 2220.758 C 418.461 2224.199, 419.163 2227.454, 419.494 2227.991 C 419.826 2228.527, 420.730 2232.236, 421.503 2236.233 C 423.382 2245.942, 426.669 2260.338, 428.414 2266.500 C 429.193 2269.250, 430.789 2275.325, 431.961 2280 C 437 2300.095, 449.855 2344.330, 452.593 2351 C 453.384 2352.925, 454.899 2357.425, 455.961 2361 C 458.127 2368.293, 462.035 2379.644, 467.496 2394.500 C 469.518 2400, 471.987 2406.750, 472.982 2409.500 C 473.978 2412.250, 477.137 2420.350, 480.002 2427.500 C 482.868 2434.650, 486.319 2443.415, 487.672 2446.977 C 489.025 2450.539, 490.481 2453.914, 490.908 2454.477 C 491.334 2455.040, 492.459 2457.525, 493.407 2460 C 500.419 2478.311, 530.049 2540.132, 543.973 2565.500 C 545.784 2568.800, 548.677 2574.200, 550.402 2577.500 C 552.127 2580.800, 554.786 2585.434, 556.312 2587.799 C 557.838 2590.163, 559.519 2593.234, 560.047 2594.624 C 560.576 2596.014, 562.296 2599.030, 563.869 2601.326 C 565.443 2603.622, 567.940 2607.750, 569.417 2610.500 C 573.232 2617.602, 581.684 2631.360, 592.500 2648.074 C 595.250 2652.323, 598.730 2657.758, 600.234 2660.150 C 606.264 2669.742, 613.278 2680.145, 627.190 2700.127 C 633.383 2709.023, 644.142 2723.927, 646.320 2726.627 C 647.151 2727.657, 651.556 2733.450, 656.110 2739.500 C 660.663 2745.550, 666.439 2753.060, 668.945 2756.189 C 671.450 2759.318, 676.650 2765.815, 680.500 2770.626 C 684.350 2775.438, 689.300 2781.477, 691.500 2784.046 C 693.700 2786.616, 698.425 2792.234, 702 2796.533 C 740.331 2842.618, 802.024 2904.716, 852.476 2948 C 857.285 2952.125, 863.572 2957.525, 866.449 2960 C 869.326 2962.475, 875.643 2967.650, 880.487 2971.500 C 885.332 2975.350, 890.916 2979.893, 892.898 2981.595 C 900.442 2988.077, 930.102 3010.563, 947.841 3023.250 C 951.879 3026.137, 958.179 3030.646, 961.841 3033.269 C 969.999 3039.113, 986.711 3050.609, 991.975 3054 C 1001.914 3060.402, 1024.067 3074.640, 1029.142 3077.889 C 1037.694 3083.362, 1044.407 3087.424, 1056.500 3094.441 C 1062.550 3097.951, 1070.104 3102.456, 1073.288 3104.451 C 1076.471 3106.446, 1080.242 3108.522, 1081.668 3109.064 C 1083.094 3109.606, 1085.610 3111.010, 1087.258 3112.184 C 1088.906 3113.357, 1092.560 3115.516, 1095.377 3116.982 C 1098.195 3118.447, 1104.100 3121.599, 1108.500 3123.985 C 1112.900 3126.372, 1121.450 3130.895, 1127.500 3134.038 C 1133.550 3137.180, 1139.850 3140.456, 1141.500 3141.316 C 1143.150 3142.177, 1146.750 3143.987, 1149.500 3145.339 C 1152.250 3146.690, 1156.300 3148.708, 1158.500 3149.822 C 1162.341 3151.768, 1179.050 3159.689, 1189.500 3164.519 C 1192.250 3165.789, 1199.225 3168.921, 1205 3171.479 C 1210.775 3174.036, 1218.875 3177.659, 1223 3179.529 C 1231.373 3183.327, 1236.279 3185.335, 1262 3195.491 C 1267.225 3197.555, 1273.975 3200.304, 1277 3201.601 C 1280.025 3202.899, 1284.975 3204.819, 1288 3205.869 C 1291.025 3206.920, 1298 3209.436, 1303.500 3211.461 C 1309 3213.487, 1317.497 3216.480, 1322.381 3218.114 C 1327.266 3219.748, 1332.441 3221.676, 1333.881 3222.399 C 1335.322 3223.123, 1338.075 3224.012, 1340 3224.375 C 1341.925 3224.738, 1346.425 3226.111, 1350 3227.425 C 1356.006 3229.633, 1375.219 3235.757, 1389.500 3240.014 C 1412.227 3246.789, 1416.666 3248.043, 1418 3248.064 C 1418.825 3248.077, 1421.300 3248.752, 1423.500 3249.564 C 1425.700 3250.375, 1430.200 3251.658, 1433.500 3252.414 C 1436.800 3253.170, 1446.475 3255.580, 1455 3257.769 C 1463.525 3259.958, 1472.300 3262.049, 1474.500 3262.415 C 1476.700 3262.781, 1479.625 3263.517, 1481 3264.049 C 1484.462 3265.390, 1505.095 3269.882, 1513.132 3271.045 C 1516.779 3271.573, 1521.673 3272.679, 1524.008 3273.503 C 1526.342 3274.326, 1529.610 3275, 1531.271 3275 C 1532.932 3275, 1538.163 3275.874, 1542.896 3276.943 C 1547.628 3278.012, 1556 3279.602, 1561.500 3280.477 C 1567 3281.351, 1573.975 3282.535, 1577 3283.106 C 1580.025 3283.678, 1585.425 3284.521, 1589 3284.981 C 1596.882 3285.994, 1607.601 3287.634, 1619 3289.570 C 1623.675 3290.364, 1629.248 3291.010, 1631.385 3291.007 C 1633.521 3291.003, 1638.021 3291.429, 1641.385 3291.953 C 1663.336 3295.376, 1673.841 3296.351, 1730 3300.176 C 1759.868 3302.211, 1770.600 3302.448, 1829 3302.362 C 1895.317 3302.264, 1905.721 3301.869, 1957.500 3297.488 C 1973.475 3296.137, 1978.691 3295.611, 2001.750 3293.034 C 2006.838 3292.465, 2014.938 3291.574, 2019.750 3291.053 C 2024.563 3290.533, 2030.072 3289.633, 2031.993 3289.053 C 2033.915 3288.474, 2037.290 3288.002, 2039.493 3288.005 C 2041.697 3288.007, 2047.100 3287.353, 2051.500 3286.551 C 2055.900 3285.750, 2064 3284.368, 2069.500 3283.481 C 2075 3282.593, 2081.975 3281.392, 2085 3280.812 C 2088.025 3280.231, 2092.750 3279.395, 2095.500 3278.955 C 2109.432 3276.725, 2118.161 3275.153, 2124.500 3273.733 C 2128.350 3272.871, 2136.225 3271.162, 2142 3269.937 C 2147.775 3268.711, 2155.847 3266.874, 2159.938 3265.854 C 2164.029 3264.834, 2168.447 3264, 2169.754 3264 C 2171.062 3264, 2172.985 3263.543, 2174.028 3262.985 C 2175.071 3262.427, 2178.979 3261.360, 2182.712 3260.615 C 2189.711 3259.218, 2215.288 3252.700, 2227.552 3249.188 C 2231.373 3248.094, 2239.675 3245.753, 2246 3243.985 C 2252.325 3242.218, 2259.975 3239.946, 2263 3238.936 C 2266.025 3237.926, 2270.300 3236.676, 2272.500 3236.158 C 2274.700 3235.640, 2279.200 3234.265, 2282.500 3233.103 C 2287.543 3231.326, 2301.235 3226.762, 2324 3219.267 C 2326.475 3218.452, 2330.750 3216.939, 2333.500 3215.905 C 2336.250 3214.871, 2345.925 3211.260, 2355 3207.881 C 2382.842 3197.515, 2396.025 3192.366, 2404 3188.740 C 2405.925 3187.865, 2410.425 3185.950, 2414 3184.485 C 2417.575 3183.020, 2424.100 3180.346, 2428.500 3178.544 C 2432.900 3176.742, 2437.850 3174.551, 2439.500 3173.676 C 2441.150 3172.800, 2447.675 3169.759, 2454 3166.917 C 2460.325 3164.075, 2469.775 3159.740, 2475 3157.283 C 2483.249 3153.403, 2486.778 3151.653, 2494 3147.858 C 2494.825 3147.425, 2497.525 3146.122, 2500 3144.963 C 2507.048 3141.663, 2512.622 3138.764, 2534.293 3127.130 C 2569.992 3107.965, 2592.021 3095.280, 2617.007 3079.500 C 2621.362 3076.750, 2629.233 3071.800, 2634.499 3068.500 C 2639.765 3065.200, 2645.992 3061.109, 2648.336 3059.410 C 2650.681 3057.710, 2654.827 3055.032, 2657.549 3053.458 C 2660.272 3051.884, 2662.725 3050.299, 2663 3049.936 C 2663.275 3049.573, 2666.875 3046.975, 2671 3044.163 C 2675.125 3041.350, 2682.176 3036.451, 2686.668 3033.275 C 2691.161 3030.099, 2697.686 3025.497, 2701.168 3023.050 C 2704.651 3020.602, 2709.846 3016.777, 2712.714 3014.550 C 2721.318 3007.867, 2728.255 3002.636, 2731.751 3000.197 C 2736.299 2997.022, 2770.808 2969.268, 2774.500 2965.815 C 2776.150 2964.272, 2777.756 2963.007, 2778.070 2963.005 C 2778.383 2963.002, 2780.183 2961.597, 2782.070 2959.881 C 2783.956 2958.166, 2787.978 2954.677, 2791.006 2952.127 C 2798.156 2946.108, 2805.903 2939.230, 2825.366 2921.618 C 2839.171 2909.125, 2858.908 2889.987, 2875.442 2873.060 C 2884.274 2864.018, 2893.750 2854.319, 2896.500 2851.508 C 2899.250 2848.696, 2904.875 2842.640, 2909 2838.051 C 2922.341 2823.205, 2928.409 2816.497, 2933 2811.519 C 2935.475 2808.835, 2938.407 2805.426, 2939.515 2803.944 C 2940.623 2802.461, 2943.620 2798.830, 2946.175 2795.874 C 2948.730 2792.918, 2952.548 2788.380, 2954.660 2785.789 C 2956.772 2783.198, 2962.106 2776.673, 2966.513 2771.289 C 2970.919 2765.905, 2975.634 2759.925, 2976.989 2758 C 2978.345 2756.075, 2980.664 2753.150, 2982.143 2751.500 C 2983.623 2749.850, 2986.333 2746.427, 2988.166 2743.892 C 2993.285 2736.817, 2998.194 2730.129, 3001.500 2725.726 C 3013.080 2710.303, 3020.506 2699.814, 3030 2685.470 C 3031.925 2682.561, 3037.358 2674.403, 3042.073 2667.341 C 3051.687 2652.942, 3053.480 2650.107, 3065.054 2631 C 3069.552 2623.575, 3074.243 2615.925, 3075.479 2614 C 3078.382 2609.478, 3084.682 2598.427, 3088.500 2591.160 C 3090.150 2588.020, 3092.498 2583.856, 3093.719 2581.908 C 3099.619 2572.487, 3133.210 2505.529, 3140.077 2489.500 C 3141.255 2486.750, 3143.745 2481.325, 3145.609 2477.443 C 3147.474 2473.562, 3149 2470.046, 3149 2469.629 C 3149 2469.213, 3150.179 2466.313, 3151.620 2463.186 C 3153.062 2460.059, 3155.350 2454.575, 3156.706 2451 C 3158.061 2447.425, 3159.526 2444.050, 3159.961 2443.500 C 3160.396 2442.950, 3161.889 2439.350, 3163.278 2435.500 C 3164.667 2431.650, 3167.443 2424.225, 3169.447 2419 C 3178.011 2396.669, 3195.994 2344.410, 3196.006 2341.818 C 3196.010 2341.093, 3196.639 2339.299, 3197.404 2337.832 C 3198.170 2336.364, 3199.118 2333.260, 3199.511 2330.934 C 3199.904 2328.607, 3200.849 2325.213, 3201.610 2323.391 C 3202.371 2321.569, 3204.085 2315.898, 3205.418 2310.789 C 3206.751 2305.680, 3208.308 2300.150, 3208.878 2298.500 C 3209.972 2295.329, 3211.841 2287.928, 3215.039 2274.096 C 3216.107 2269.474, 3217.413 2264.299, 3217.940 2262.596 C 3218.814 2259.775, 3220.953 2250.344, 3226.017 2227 C 3227.031 2222.325, 3228.618 2214.225, 3229.542 2209 C 3230.467 2203.775, 3231.833 2196.800, 3232.578 2193.500 C 3233.322 2190.200, 3234.197 2185.475, 3234.521 2183 C 3234.845 2180.525, 3235.754 2174.450, 3236.541 2169.500 C 3239.592 2150.316, 3240.944 2141.184, 3241.945 2133 C 3242.516 2128.325, 3243.211 2122.700, 3243.488 2120.500 C 3252.219 2051.198, 3254.688 1965.601, 3250.066 1892.500 C 3248.619 1869.612, 3247.300 1855.455, 3244.287 1830.500 C 3242.893 1818.950, 3241.405 1806.125, 3240.982 1802 C 3240.558 1797.875, 3239.731 1791.800, 3239.144 1788.500 C 3236.192 1771.915, 3235.720 1769.092, 3235.052 1764 C 3234.267 1758.018, 3233.581 1754.327, 3228.365 1728 C 3223.487 1703.377, 3220.205 1688.319, 3218.450 1682.500 C 3217.621 1679.750, 3216.567 1675.475, 3216.107 1673 C 3215.186 1668.034, 3208.226 1641.491, 3204.964 1630.500 C 3203.822 1626.650, 3202.429 1621.475, 3201.869 1619 C 3201.309 1616.525, 3200.209 1613.082, 3199.425 1611.349 C 3198.641 1609.616, 3198 1607.682, 3198 1607.052 C 3198 1605.774, 3191.952 1586.523, 3188.873 1578 C 3187.780 1574.975, 3186.039 1569.800, 3185.003 1566.500 C 3181.827 1556.384, 3177.008 1542.907, 3174.953 1538.396 C 3173.879 1536.038, 3173 1533.658, 3173 1533.105 C 3173 1531.745, 3165.367 1512.004, 3161.842 1504.247 C 3160.279 1500.808, 3159 1497.527, 3159 1496.956 C 3159 1496.384, 3157.705 1493.123, 3156.123 1489.708 C 3154.541 1486.294, 3152.903 1482.375, 3152.482 1481 C 3152.062 1479.625, 3150.226 1475.428, 3148.402 1471.673 C 3146.578 1467.918, 3144.784 1463.868, 3144.416 1462.673 C 3143.795 1460.661, 3141.637 1455.864, 3133.761 1439 C 3126.162 1422.728, 3112.018 1394.256, 3105.197 1381.500 C 3091.625 1356.122, 3083.491 1341.329, 3082.184 1339.650 C 3081.691 1339.018, 3079.938 1336.025, 3078.287 1333 C 3074.950 1326.883, 3070.964 1320.201, 3063.969 1309 C 3061.394 1304.875, 3058.074 1299.475, 3056.592 1297 C 3047.591 1281.965, 3024.515 1247.746, 3007.970 1224.899 C 3003.828 1219.179, 2999.328 1212.942, 2997.970 1211.038 C 2996.611 1209.133, 2994.668 1206.658, 2993.651 1205.538 C 2992.633 1204.417, 2990.056 1201.025, 2987.924 1198 C 2984.208 1192.729, 2979.551 1186.678, 2970.166 1174.927 C 2956.914 1158.335, 2950.989 1151.084, 2946.500 1145.965 C 2943.750 1142.830, 2938.350 1136.544, 2934.500 1131.997 C 2904.326 1096.359, 2843.642 1034.957, 2806.517 1002.500 C 2802.743 999.200, 2797.088 994.250, 2793.950 991.500 C 2782.866 981.783, 2776.576 976.450, 2770.953 972 C 2764.916 967.223, 2751.065 955.915, 2748.208 953.431 C 2744.575 950.273, 2723.650 934.391, 2707 922.153 C 2701.775 918.313, 2695.025 913.326, 2692 911.071 C 2678.349 900.894, 2635.118 872.142, 2612.957 858.500 C 2608.489 855.750, 2602.715 852.094, 2600.125 850.376 C 2597.535 848.658, 2593.634 846.344, 2591.458 845.233 C 2589.281 844.123, 2585.035 841.591, 2582.023 839.607 C 2579.010 837.623, 2576.155 836, 2575.677 836 C 2575.200 836, 2573.608 835.145, 2572.140 834.100 C 2569.274 832.059, 2555.180 824.144, 2543 817.735 C 2538.875 815.564, 2535 813.383, 2534.389 812.887 C 2533.778 812.391, 2529.728 810.208, 2525.389 808.035 C 2521.050 805.862, 2516.375 803.427, 2515 802.624 C 2513.625 801.820, 2510.700 800.329, 2508.500 799.309 C 2506.300 798.289, 2502.700 796.485, 2500.500 795.300 C 2494.160 791.886, 2464.694 777.741, 2451 771.539 C 2444.125 768.425, 2436.700 765.028, 2434.500 763.989 C 2429.876 761.807, 2410.930 753.724, 2400 749.270 C 2395.875 747.589, 2389.575 744.996, 2386 743.508 C 2382.425 742.020, 2376.042 739.519, 2371.815 737.950 C 2367.589 736.382, 2363.314 734.666, 2362.315 734.138 C 2361.317 733.610, 2357.800 732.275, 2354.500 731.172 C 2344.178 727.722, 2333.622 723.923, 2330.500 722.535 C 2326.195 720.621, 2282.420 706, 2280.995 706 C 2280.339 706, 2278.384 705.361, 2276.651 704.579 C 2273.076 702.967, 2261.003 699.357, 2231.500 691.078 C 2215.524 686.594, 2202.350 683.072, 2195.500 681.452 C 2192.200 680.672, 2187.025 679.373, 2184 678.565 C 2180.975 677.757, 2173.550 675.946, 2167.500 674.540 C 2161.450 673.134, 2153.575 671.284, 2150 670.428 C 2146.425 669.572, 2140.819 668.444, 2137.542 667.921 C 2134.265 667.399, 2129.315 666.337, 2126.542 665.562 C 2123.769 664.788, 2118.575 663.681, 2115 663.103 C 2111.425 662.525, 2103.775 661.119, 2098 659.978 C 2092.225 658.837, 2084.232 657.462, 2080.237 656.922 C 2076.243 656.383, 2071.826 655.504, 2070.422 654.970 C 2069.018 654.437, 2065.987 653.995, 2063.685 653.988 C 2061.383 653.982, 2057.025 653.312, 2054 652.500 C 2050.975 651.688, 2046.472 651.018, 2043.993 651.012 C 2041.515 651.005, 2037.915 650.526, 2035.993 649.947 C 2034.072 649.367, 2028.450 648.455, 2023.500 647.920 C 2018.550 647.384, 2010.675 646.482, 2006 645.914 C 1978.883 642.622, 1967.230 641.425, 1948.500 640.011 C 1941.350 639.471, 1934.375 638.801, 1933 638.523 C 1931.625 638.245, 1917.810 637.328, 1902.301 636.485 C 1868.975 634.675, 1801.119 633.991, 1768 635.131 M 1193.500 1240.421 C 1192.950 1240.620, 1189.800 1241.567, 1186.500 1242.524 C 1162.158 1249.585, 1144.687 1267.546, 1138.043 1292.338 C 1134.274 1306.404, 1136.019 1326.205, 1142.085 1338.207 C 1144.915 1343.806, 1155.430 1361.022, 1160.229 1367.916 C 1162.303 1370.894, 1164 1373.721, 1164 1374.198 C 1164 1374.675, 1166.138 1378.255, 1168.750 1382.153 C 1171.362 1386.052, 1174.890 1391.775, 1176.588 1394.871 C 1178.286 1397.967, 1181.549 1403.162, 1183.838 1406.416 C 1186.127 1409.669, 1188 1412.861, 1188 1413.509 C 1188 1414.157, 1190.171 1417.794, 1192.824 1421.593 C 1195.477 1425.392, 1198.330 1429.850, 1199.164 1431.500 C 1200.632 1434.407, 1206.927 1444.633, 1215.476 1458 C 1217.763 1461.575, 1219.886 1465.175, 1220.195 1466 C 1220.504 1466.825, 1222.723 1470.508, 1225.128 1474.184 C 1229.787 1481.307, 1234.921 1489.582, 1239 1496.539 C 1240.375 1498.885, 1243.807 1504.560, 1246.626 1509.152 C 1249.445 1513.743, 1253.648 1520.650, 1255.966 1524.500 C 1258.284 1528.350, 1261.490 1533.374, 1263.090 1535.663 C 1264.691 1537.953, 1266 1540.091, 1266 1540.415 C 1266 1540.738, 1268.138 1544.356, 1270.750 1548.454 C 1273.362 1552.553, 1279.775 1562.961, 1285 1571.583 C 1290.225 1580.205, 1296.353 1590.097, 1298.619 1593.566 C 1300.884 1597.035, 1302.974 1600.490, 1303.264 1601.245 C 1303.553 1601.999, 1305.975 1606.027, 1308.645 1610.196 C 1311.315 1614.364, 1315.300 1620.761, 1317.500 1624.412 C 1319.700 1628.062, 1323.112 1633.625, 1325.081 1636.774 C 1329.607 1644.010, 1344.061 1667.444, 1349.275 1676 C 1351.454 1679.575, 1354.421 1684.375, 1355.868 1686.666 C 1357.316 1688.957, 1360.750 1694.504, 1363.500 1698.992 C 1366.250 1703.481, 1370.862 1710.932, 1373.750 1715.550 C 1376.638 1720.168, 1379 1724.179, 1379 1724.464 C 1379 1724.748, 1380.912 1727.866, 1383.250 1731.394 C 1385.588 1734.921, 1389.975 1741.938, 1393 1746.988 C 1396.025 1752.037, 1401.051 1760.294, 1404.169 1765.335 C 1407.288 1770.376, 1411.478 1777.200, 1413.480 1780.500 C 1417.290 1786.777, 1426.463 1801.610, 1432.342 1811 C 1434.236 1814.025, 1437.485 1819.425, 1439.562 1823 C 1441.639 1826.575, 1444.321 1830.850, 1445.521 1832.500 C 1446.722 1834.150, 1447.949 1836.201, 1448.247 1837.058 C 1448.546 1837.915, 1450.975 1842.038, 1453.645 1846.220 C 1456.315 1850.403, 1460.750 1857.468, 1463.500 1861.921 C 1466.250 1866.373, 1470.412 1872.949, 1472.750 1876.532 C 1475.088 1880.115, 1477 1883.177, 1477 1883.337 C 1477 1883.875, 1450.688 1883.046, 1405 1881.068 C 1362.652 1879.235, 1320.732 1877.547, 1291 1876.478 C 1284.125 1876.231, 1267.250 1875.578, 1253.500 1875.027 C 1239.750 1874.477, 1210.725 1873.328, 1189 1872.476 C 1167.275 1871.624, 1133.750 1870.262, 1114.500 1869.451 C 1095.250 1868.639, 1072.750 1867.755, 1064.500 1867.486 C 1056.250 1867.216, 1032.850 1866.327, 1012.500 1865.510 C 992.150 1864.693, 952.325 1863.110, 924 1861.992 C 895.675 1860.874, 856.075 1859.282, 836 1858.454 C 815.925 1857.626, 793.650 1856.729, 786.500 1856.461 C 714.078 1853.746, 697.475 1852.736, 692.500 1850.742 C 683.403 1847.095, 655.412 1847.245, 648.113 1850.980 C 647.226 1851.433, 643.575 1853.175, 640 1854.851 C 600.561 1873.332, 589.033 1926.091, 616.881 1960.658 C 627.561 1973.915, 638.659 1980.349, 661.500 1986.526 C 664.800 1987.418, 669.748 1988.793, 672.496 1989.581 C 675.243 1990.370, 683.793 1991.247, 691.496 1991.531 C 699.198 1991.815, 714.500 1992.474, 725.500 1992.996 C 736.500 1993.518, 753.825 1994.195, 764 1994.499 C 774.175 1994.804, 791.725 1995.501, 803 1996.048 C 814.275 1996.594, 836.100 1997.456, 851.500 1997.963 C 866.900 1998.470, 896.375 1999.582, 917 2000.434 C 1000.211 2003.873, 1029.189 2005.028, 1043.500 2005.480 C 1057.143 2005.910, 1085.489 2007.062, 1155.500 2010.032 C 1169.250 2010.615, 1192.425 2011.503, 1207 2012.006 C 1221.575 2012.509, 1244.300 2013.381, 1257.500 2013.944 C 1280.695 2014.933, 1322.755 2016.587, 1347.500 2017.485 C 1354.100 2017.724, 1376.600 2018.606, 1397.500 2019.444 C 1418.400 2020.281, 1447.425 2021.440, 1462 2022.019 C 1537.478 2025.015, 1562.625 2026.047, 1584.687 2027.053 C 1606.200 2028.035, 1609.781 2027.972, 1617.072 2026.485 C 1636.528 2022.517, 1651.185 2012.892, 1661.974 1997 C 1672.786 1981.073, 1676.573 1960.376, 1671.957 1942.438 C 1669.500 1932.893, 1666.476 1926.197, 1660.203 1916.413 C 1657.617 1912.379, 1653.025 1905.015, 1650 1900.051 C 1646.975 1895.086, 1643.081 1888.881, 1641.347 1886.262 C 1639.614 1883.643, 1636.974 1879.250, 1635.482 1876.500 C 1633.990 1873.750, 1631.266 1869.389, 1629.429 1866.810 C 1627.592 1864.230, 1624.715 1859.505, 1623.035 1856.310 C 1621.356 1853.114, 1618.523 1848.414, 1616.741 1845.864 C 1614.958 1843.314, 1612.245 1839.039, 1610.711 1836.364 C 1606.333 1828.727, 1597.771 1814.853, 1594.750 1810.499 C 1593.237 1808.319, 1592 1806.204, 1592 1805.799 C 1592 1805.393, 1589.862 1801.736, 1587.250 1797.671 C 1584.638 1793.606, 1581.150 1788.089, 1579.500 1785.411 C 1572.434 1773.942, 1566.305 1763.877, 1563.632 1759.354 C 1562.055 1756.684, 1559.018 1751.934, 1556.882 1748.799 C 1554.747 1745.663, 1553 1742.709, 1553 1742.235 C 1553 1741.760, 1551.059 1738.476, 1548.687 1734.936 C 1544.323 1728.424, 1537.732 1717.732, 1532.808 1709.177 C 1531.327 1706.605, 1528.254 1701.575, 1525.978 1698 C 1521.923 1691.629, 1513.441 1678.018, 1507.510 1668.366 C 1505.866 1665.690, 1503.236 1661.250, 1501.667 1658.500 C 1500.098 1655.750, 1497.796 1652.150, 1496.551 1650.500 C 1495.307 1648.850, 1493.298 1645.556, 1492.088 1643.179 C 1490.877 1640.803, 1488.113 1636.303, 1485.945 1633.179 C 1483.777 1630.056, 1482.002 1627.131, 1482.001 1626.680 C 1482.001 1626.229, 1480.537 1623.770, 1478.750 1621.214 C 1476.963 1618.659, 1474.150 1614.199, 1472.500 1611.304 C 1468.908 1605.002, 1455.558 1583.269, 1440.984 1560 C 1438.400 1555.875, 1435.088 1550.475, 1433.624 1548 C 1432.160 1545.525, 1426.937 1536.975, 1422.017 1529 C 1417.097 1521.025, 1411.608 1512.025, 1409.821 1509 C 1408.033 1505.975, 1404.867 1500.934, 1402.785 1497.799 C 1400.703 1494.663, 1399 1491.826, 1399 1491.494 C 1399 1491.162, 1397.279 1488.327, 1395.176 1485.195 C 1393.074 1482.063, 1389.908 1477.025, 1388.141 1474 C 1386.374 1470.975, 1381.007 1462.129, 1376.214 1454.343 C 1360.117 1428.192, 1351.678 1414.533, 1348.509 1409.500 C 1344.413 1402.996, 1335.057 1387.729, 1331.657 1382 C 1330.187 1379.525, 1326.298 1373.225, 1323.015 1368 C 1319.731 1362.775, 1315.122 1355.184, 1312.772 1351.132 C 1310.422 1347.080, 1307.543 1342.580, 1306.372 1341.132 C 1305.202 1339.684, 1302.789 1335.800, 1301.011 1332.500 C 1299.232 1329.200, 1296.328 1324.475, 1294.557 1322 C 1292.787 1319.525, 1289.725 1314.516, 1287.754 1310.869 C 1285.782 1307.223, 1282.556 1302.126, 1280.585 1299.543 C 1278.613 1296.960, 1277 1294.290, 1277 1293.610 C 1277 1292.929, 1275.065 1289.476, 1272.701 1285.936 C 1270.336 1282.396, 1266.991 1277.022, 1265.266 1273.993 C 1260.995 1266.490, 1252.214 1257.002, 1245.260 1252.376 C 1231.588 1243.281, 1223.426 1240.714, 1207 1240.342 C 1200.125 1240.186, 1194.050 1240.222, 1193.500 1240.421 M 2419.500 1251.412 C 2418.950 1251.615, 2415.325 1252.734, 2411.445 1253.899 C 2407.564 1255.064, 2402.839 1256.811, 2400.945 1257.781 C 2389.022 1263.885, 2377.798 1274.341, 2371.734 1284.993 C 2370.009 1288.022, 2366.664 1293.396, 2364.299 1296.936 C 2361.935 1300.476, 2360 1303.929, 2360 1304.610 C 2360 1305.290, 2358.387 1307.960, 2356.415 1310.543 C 2354.444 1313.126, 2351.218 1318.223, 2349.246 1321.869 C 2347.275 1325.516, 2344.213 1330.525, 2342.443 1333 C 2340.672 1335.475, 2337.768 1340.200, 2335.989 1343.500 C 2334.211 1346.800, 2331.798 1350.684, 2330.628 1352.132 C 2329.457 1353.580, 2326.578 1358.080, 2324.228 1362.132 C 2321.878 1366.184, 2317.269 1373.775, 2313.985 1379 C 2310.702 1384.225, 2306.813 1390.525, 2305.343 1393 C 2301.943 1398.729, 2292.587 1413.996, 2288.491 1420.500 C 2285.322 1425.533, 2276.883 1439.192, 2260.786 1465.343 C 2255.993 1473.129, 2250.626 1481.975, 2248.859 1485 C 2247.092 1488.025, 2243.926 1493.063, 2241.824 1496.195 C 2239.721 1499.327, 2238 1502.162, 2238 1502.494 C 2238 1502.826, 2236.297 1505.663, 2234.215 1508.799 C 2232.133 1511.934, 2228.967 1516.975, 2227.179 1520 C 2225.392 1523.025, 2219.903 1532.025, 2214.983 1540 C 2210.063 1547.975, 2204.840 1556.525, 2203.376 1559 C 2201.912 1561.475, 2198.600 1566.875, 2196.016 1571 C 2181.442 1594.269, 2168.092 1616.002, 2164.500 1622.304 C 2162.850 1625.199, 2160.037 1629.659, 2158.250 1632.214 C 2156.463 1634.770, 2154.999 1637.229, 2154.999 1637.680 C 2154.998 1638.131, 2153.223 1641.056, 2151.055 1644.179 C 2148.887 1647.303, 2146.123 1651.803, 2144.912 1654.179 C 2143.702 1656.556, 2141.693 1659.850, 2140.449 1661.500 C 2139.204 1663.150, 2136.902 1666.750, 2135.333 1669.500 C 2133.764 1672.250, 2131.134 1676.690, 2129.490 1679.366 C 2123.559 1689.018, 2115.077 1702.629, 2111.022 1709 C 2108.746 1712.575, 2105.673 1717.605, 2104.192 1720.177 C 2099.268 1728.732, 2092.677 1739.424, 2088.313 1745.936 C 2085.941 1749.476, 2084 1752.760, 2084 1753.235 C 2084 1753.709, 2082.253 1756.663, 2080.118 1759.799 C 2077.982 1762.934, 2074.945 1767.684, 2073.368 1770.354 C 2070.695 1774.877, 2064.566 1784.942, 2057.500 1796.411 C 2055.850 1799.089, 2052.363 1804.606, 2049.750 1808.671 C 2047.138 1812.736, 2045 1816.393, 2045 1816.799 C 2045 1817.204, 2043.763 1819.319, 2042.250 1821.499 C 2039.229 1825.853, 2030.667 1839.727, 2026.289 1847.364 C 2024.755 1850.039, 2022.042 1854.314, 2020.259 1856.864 C 2018.477 1859.414, 2015.644 1864.114, 2013.965 1867.310 C 2012.285 1870.505, 2009.408 1875.230, 2007.571 1877.810 C 2005.734 1880.389, 2003.010 1884.750, 2001.518 1887.500 C 2000.026 1890.250, 1997.386 1894.643, 1995.653 1897.262 C 1993.919 1899.881, 1990.025 1906.086, 1987 1911.051 C 1983.975 1916.015, 1979.383 1923.379, 1976.797 1927.413 C 1964.068 1947.265, 1960.319 1965.317, 1964.942 1984.500 C 1971.704 2012.562, 1991.565 2031.700, 2019.928 2037.485 C 2027.219 2038.972, 2030.800 2039.035, 2052.313 2038.053 C 2074.375 2037.047, 2099.522 2036.015, 2175 2033.019 C 2189.575 2032.440, 2218.600 2031.281, 2239.500 2030.444 C 2260.400 2029.606, 2282.900 2028.724, 2289.500 2028.485 C 2314.245 2027.587, 2356.305 2025.933, 2379.500 2024.944 C 2392.700 2024.381, 2415.425 2023.509, 2430 2023.006 C 2444.575 2022.503, 2467.750 2021.615, 2481.500 2021.032 C 2551.511 2018.062, 2579.857 2016.910, 2593.500 2016.480 C 2607.811 2016.028, 2636.789 2014.873, 2720 2011.434 C 2740.625 2010.582, 2770.100 2009.470, 2785.500 2008.963 C 2800.900 2008.456, 2822.725 2007.594, 2834 2007.048 C 2845.275 2006.501, 2862.825 2005.804, 2873 2005.499 C 2883.175 2005.195, 2900.500 2004.518, 2911.500 2003.996 C 2922.500 2003.474, 2937.802 2002.815, 2945.504 2002.531 C 2953.207 2002.247, 2961.757 2001.370, 2964.504 2000.581 C 2967.252 1999.793, 2972.200 1998.418, 2975.500 1997.526 C 2992.932 1992.812, 3000.760 1989.288, 3009.579 1982.183 C 3035.436 1961.352, 3042.984 1925.259, 3027.712 1895.478 C 3021.715 1883.783, 3008.913 1871.433, 2997 1865.851 C 2993.425 1864.175, 2989.774 1862.433, 2988.887 1861.980 C 2981.588 1858.245, 2953.597 1858.095, 2944.500 1861.742 C 2939.525 1863.736, 2922.922 1864.746, 2850.500 1867.461 C 2843.350 1867.729, 2821.075 1868.626, 2801 1869.454 C 2780.925 1870.282, 2741.325 1871.874, 2713 1872.992 C 2684.675 1874.110, 2644.850 1875.693, 2624.500 1876.510 C 2604.150 1877.327, 2580.750 1878.216, 2572.500 1878.486 C 2564.250 1878.755, 2541.750 1879.639, 2522.500 1880.451 C 2503.250 1881.262, 2469.725 1882.624, 2448 1883.476 C 2426.275 1884.328, 2397.250 1885.477, 2383.500 1886.027 C 2369.750 1886.578, 2352.875 1887.231, 2346 1887.478 C 2316.268 1888.547, 2274.348 1890.235, 2232 1892.068 C 2186.312 1894.046, 2160 1894.875, 2160 1894.337 C 2160 1894.177, 2161.912 1891.115, 2164.250 1887.532 C 2166.588 1883.949, 2170.750 1877.373, 2173.500 1872.921 C 2176.250 1868.468, 2180.685 1861.403, 2183.355 1857.220 C 2186.025 1853.038, 2188.454 1848.915, 2188.753 1848.058 C 2189.051 1847.201, 2190.278 1845.150, 2191.479 1843.500 C 2192.679 1841.850, 2195.361 1837.575, 2197.438 1834 C 2199.515 1830.425, 2202.764 1825.025, 2204.658 1822 C 2210.537 1812.610, 2219.710 1797.777, 2223.520 1791.500 C 2225.522 1788.200, 2229.712 1781.376, 2232.831 1776.335 C 2235.949 1771.294, 2240.975 1763.037, 2244 1757.988 C 2247.025 1752.938, 2251.412 1745.921, 2253.750 1742.394 C 2256.088 1738.866, 2258 1735.748, 2258 1735.464 C 2258 1735.179, 2260.363 1731.168, 2263.250 1726.550 C 2266.137 1721.932, 2270.750 1714.481, 2273.500 1709.992 C 2276.250 1705.504, 2279.684 1699.957, 2281.132 1697.666 C 2282.579 1695.375, 2285.546 1690.575, 2287.725 1687 C 2292.939 1678.444, 2307.393 1655.010, 2311.919 1647.774 C 2313.888 1644.625, 2317.300 1639.062, 2319.500 1635.412 C 2321.700 1631.761, 2325.685 1625.364, 2328.355 1621.196 C 2331.025 1617.027, 2333.447 1612.999, 2333.736 1612.245 C 2334.026 1611.490, 2336.116 1608.035, 2338.381 1604.566 C 2340.647 1601.097, 2346.775 1591.205, 2352 1582.583 C 2357.225 1573.961, 2363.637 1563.553, 2366.250 1559.454 C 2368.863 1555.356, 2371 1551.738, 2371 1551.415 C 2371 1551.091, 2372.309 1548.953, 2373.910 1546.663 C 2375.510 1544.374, 2378.716 1539.350, 2381.034 1535.500 C 2383.352 1531.650, 2387.555 1524.743, 2390.374 1520.152 C 2393.193 1515.560, 2396.625 1509.885, 2398 1507.539 C 2402.079 1500.582, 2407.213 1492.307, 2411.872 1485.184 C 2414.277 1481.508, 2416.496 1477.825, 2416.805 1477 C 2417.114 1476.175, 2419.237 1472.575, 2421.524 1469 C 2430.073 1455.633, 2436.368 1445.407, 2437.836 1442.500 C 2438.670 1440.850, 2441.523 1436.392, 2444.176 1432.593 C 2446.829 1428.794, 2449 1425.157, 2449 1424.509 C 2449 1423.861, 2450.873 1420.669, 2453.162 1417.416 C 2455.451 1414.162, 2458.714 1408.967, 2460.412 1405.871 C 2462.110 1402.775, 2465.637 1397.052, 2468.250 1393.153 C 2470.863 1389.255, 2473 1385.675, 2473 1385.198 C 2473 1384.721, 2474.697 1381.894, 2476.771 1378.916 C 2481.570 1372.022, 2492.085 1354.806, 2494.915 1349.207 C 2498.520 1342.075, 2500.968 1330.388, 2500.985 1320.232 C 2501.023 1297.070, 2489.564 1275.667, 2470 1262.355 C 2458.726 1254.684, 2449.408 1251.894, 2433.500 1251.426 C 2426.350 1251.216, 2420.050 1251.210, 2419.500 1251.412 M 2400.762 2457.606 C 2399.413 2460.298, 2396.259 2466.325, 2393.754 2471 C 2391.248 2475.675, 2387.089 2483.550, 2384.512 2488.500 C 2381.935 2493.450, 2379.241 2498.175, 2378.525 2499 C 2377.810 2499.825, 2375.774 2503.425, 2374 2507 C 2372.226 2510.575, 2370.202 2514.175, 2369.501 2515 C 2368.801 2515.825, 2366.905 2518.975, 2365.289 2522 C 2363.674 2525.025, 2360.509 2530.425, 2358.257 2534 C 2356.005 2537.575, 2351.988 2544, 2349.331 2548.277 C 2346.674 2552.555, 2343.046 2558.180, 2341.269 2560.777 C 2339.492 2563.375, 2336.212 2568.425, 2333.980 2572 C 2331.749 2575.575, 2327.235 2582.325, 2323.950 2587 C 2320.664 2591.675, 2316.301 2597.975, 2314.254 2601 C 2312.207 2604.025, 2308.725 2608.856, 2306.516 2611.736 C 2304.307 2614.615, 2299.575 2620.836, 2296 2625.560 C 2285.518 2639.409, 2269.757 2658.906, 2259.695 2670.469 C 2246.139 2686.047, 2217.969 2716.140, 2212.008 2721.412 C 2210.087 2723.110, 2206.001 2726.975, 2202.928 2730 C 2192.321 2740.439, 2173.726 2756.843, 2162.117 2766 C 2157.585 2769.575, 2151.067 2774.800, 2147.632 2777.611 C 2144.198 2780.422, 2140.288 2783.300, 2138.944 2784.007 C 2137.600 2784.714, 2134.475 2786.956, 2132 2788.989 C 2123.291 2796.144, 2092 2816.203, 2073.500 2826.491 C 2064.662 2831.405, 2051.573 2838.328, 2049.036 2839.430 C 2047.680 2840.018, 2042.751 2842.412, 2038.081 2844.750 C 2033.412 2847.088, 2029.176 2849, 2028.668 2849 C 2028.161 2849, 2024.990 2850.315, 2021.623 2851.921 C 2015.164 2855.003, 2002.537 2859.887, 1992.500 2863.188 C 1989.200 2864.272, 1984.475 2865.969, 1982 2866.958 C 1979.525 2867.948, 1975.716 2869.075, 1973.535 2869.464 C 1971.354 2869.853, 1968.429 2870.743, 1967.035 2871.441 C 1965.641 2872.139, 1959.100 2873.955, 1952.500 2875.477 C 1945.900 2876.999, 1937.050 2879.089, 1932.833 2880.122 C 1928.617 2881.155, 1923.892 2882.005, 1922.333 2882.011 C 1920.775 2882.017, 1917.291 2882.692, 1914.591 2883.511 C 1911.891 2884.330, 1907.757 2885, 1905.403 2885 C 1903.050 2885, 1898.284 2885.639, 1894.812 2886.420 C 1883.641 2888.933, 1846.523 2890.266, 1822.205 2889.027 C 1810.267 2888.419, 1798.340 2887.489, 1795.701 2886.961 C 1793.061 2886.432, 1788.561 2885.995, 1785.701 2885.989 C 1782.840 2885.983, 1778.291 2885.308, 1775.591 2884.489 C 1772.891 2883.670, 1769.291 2883.003, 1767.591 2883.006 C 1764.012 2883.012, 1746.594 2879.524, 1740 2877.480 C 1737.525 2876.712, 1733.250 2875.627, 1730.500 2875.069 C 1723.348 2873.615, 1708.513 2869.494, 1701.500 2867.012 C 1698.200 2865.845, 1693.475 2864.174, 1691 2863.299 C 1675.393 2857.785, 1661.874 2852.468, 1653.500 2848.550 C 1625.352 2835.383, 1626.346 2835.872, 1611.907 2828.065 C 1600.006 2821.629, 1591.580 2816.807, 1586.500 2813.524 C 1583.750 2811.747, 1579.700 2809.240, 1577.500 2807.953 C 1575.300 2806.666, 1571.615 2804.237, 1569.312 2802.556 C 1567.008 2800.875, 1562.508 2797.785, 1559.312 2795.688 C 1550.898 2790.170, 1541.701 2783.545, 1530.590 2775 C 1513.417 2761.792, 1509.342 2758.551, 1506.895 2756.148 C 1505.578 2754.854, 1502.925 2752.624, 1501 2751.192 C 1497.466 2748.561, 1489.097 2741.083, 1479 2731.532 C 1475.975 2728.670, 1468.775 2721.867, 1462.999 2716.414 C 1449.896 2704.043, 1413.922 2665.598, 1407.871 2657.500 C 1406.638 2655.850, 1403.238 2651.946, 1400.315 2648.824 C 1397.392 2645.703, 1394.993 2642.778, 1394.984 2642.324 C 1394.976 2641.871, 1392.919 2639.250, 1390.414 2636.500 C 1387.908 2633.750, 1384.465 2629.475, 1382.761 2627 C 1381.057 2624.525, 1378.006 2620.669, 1375.979 2618.432 C 1373.952 2616.195, 1370.702 2611.920, 1368.755 2608.932 C 1366.809 2605.944, 1363.930 2602.086, 1362.358 2600.358 C 1360.786 2598.630, 1357.998 2594.769, 1356.163 2591.779 C 1354.327 2588.788, 1351.514 2584.939, 1349.913 2583.225 C 1348.311 2581.511, 1347 2579.662, 1347 2579.116 C 1347 2578.570, 1344.300 2574.540, 1341 2570.160 C 1337.700 2565.781, 1334.976 2561.816, 1334.946 2561.349 C 1334.916 2560.882, 1333.140 2558.025, 1330.999 2555 C 1328.858 2551.975, 1325.212 2546.350, 1322.897 2542.500 C 1320.583 2538.650, 1317.512 2533.925, 1316.075 2532 C 1314.637 2530.075, 1312.381 2526.475, 1311.060 2524 C 1309.740 2521.525, 1306.932 2516.931, 1304.821 2513.792 C 1302.710 2510.652, 1300.557 2506.964, 1300.037 2505.596 C 1299.516 2504.228, 1297.582 2500.947, 1295.737 2498.304 C 1293.892 2495.662, 1291.320 2491.250, 1290.020 2488.500 C 1288.721 2485.750, 1286.461 2481.700, 1284.997 2479.500 C 1283.533 2477.300, 1280.595 2471.993, 1278.469 2467.708 C 1276.343 2463.422, 1273.963 2459.384, 1273.182 2458.736 C 1271.482 2457.325, 1267.529 2457.281, 1228 2458.239 C 1211.225 2458.645, 1183.775 2459.258, 1167 2459.601 C 1150.225 2459.944, 1134.807 2460.512, 1132.738 2460.863 L 1128.976 2461.500 1141.306 2486 C 1148.088 2499.475, 1154.758 2512.300, 1156.130 2514.500 C 1157.501 2516.700, 1159.239 2520.075, 1159.993 2522 C 1160.746 2523.925, 1162.959 2527.975, 1164.910 2531 C 1166.861 2534.025, 1169.734 2539.179, 1171.296 2542.454 C 1172.857 2545.729, 1175.474 2550.393, 1177.110 2552.819 C 1178.747 2555.244, 1181.374 2559.765, 1182.947 2562.864 C 1184.520 2565.964, 1187.650 2571.200, 1189.901 2574.500 C 1192.153 2577.800, 1193.996 2580.988, 1193.998 2581.584 C 1193.999 2582.181, 1195.838 2585.293, 1198.085 2588.500 C 1200.332 2591.707, 1203.580 2596.844, 1205.304 2599.916 C 1208.702 2605.969, 1211.048 2609.574, 1215.125 2615.004 C 1216.569 2616.927, 1218.483 2620.075, 1219.378 2622 C 1220.274 2623.925, 1222.773 2627.750, 1224.933 2630.500 C 1227.093 2633.250, 1230.308 2637.975, 1232.079 2641 C 1233.850 2644.025, 1237.144 2648.829, 1239.399 2651.675 C 1241.655 2654.521, 1244.625 2658.766, 1246 2661.107 C 1247.375 2663.448, 1249.670 2666.744, 1251.100 2668.432 C 1252.531 2670.119, 1255.856 2674.650, 1258.490 2678.500 C 1261.124 2682.350, 1264.716 2687.075, 1266.471 2689 C 1268.226 2690.925, 1271.268 2694.975, 1273.231 2698 C 1275.195 2701.025, 1278.021 2704.625, 1279.512 2706 C 1281.003 2707.375, 1284.060 2711.200, 1286.307 2714.500 C 1288.553 2717.800, 1292.487 2722.750, 1295.051 2725.500 C 1297.614 2728.250, 1301.082 2732.419, 1302.758 2734.765 C 1309.273 2743.885, 1359.008 2797.611, 1370.481 2807.922 C 1372.671 2809.890, 1377.659 2814.650, 1381.567 2818.500 C 1385.474 2822.350, 1393.272 2829.550, 1398.895 2834.500 C 1404.519 2839.450, 1412.416 2846.425, 1416.444 2850 C 1420.473 2853.575, 1425.734 2857.968, 1428.135 2859.761 C 1430.536 2861.555, 1434.805 2864.930, 1437.622 2867.261 C 1449.820 2877.357, 1480.217 2900, 1481.572 2900 C 1481.847 2900, 1485.026 2902.264, 1488.636 2905.030 C 1492.245 2907.797, 1497.051 2911.006, 1499.315 2912.161 C 1501.578 2913.315, 1505.696 2915.952, 1508.465 2918.020 C 1511.234 2920.088, 1515.975 2923.018, 1519 2924.532 C 1522.025 2926.045, 1525.912 2928.360, 1527.637 2929.675 C 1529.363 2930.990, 1534.140 2933.807, 1538.253 2935.935 C 1542.366 2938.064, 1547.643 2941.012, 1549.979 2942.487 C 1552.315 2943.962, 1556.142 2945.989, 1558.482 2946.992 C 1560.822 2947.995, 1565.895 2950.606, 1569.755 2952.793 C 1573.615 2954.980, 1578.444 2957.321, 1580.486 2957.995 C 1582.527 2958.669, 1586.741 2960.651, 1589.849 2962.399 C 1592.957 2964.147, 1598.425 2966.627, 1602 2967.909 C 1605.575 2969.192, 1609.039 2970.673, 1609.697 2971.199 C 1610.952 2972.203, 1630.217 2979.747, 1640.500 2983.262 C 1643.800 2984.389, 1649.687 2986.565, 1653.583 2988.095 C 1657.478 2989.626, 1663.747 2991.593, 1667.513 2992.467 C 1671.280 2993.340, 1674.898 2994.500, 1675.553 2995.044 C 1676.208 2995.588, 1680.740 2996.909, 1685.622 2997.979 C 1690.505 2999.050, 1697.217 3000.822, 1700.538 3001.917 C 1703.859 3003.012, 1708.584 3004.203, 1711.038 3004.562 C 1713.492 3004.922, 1717.838 3005.867, 1720.695 3006.663 C 1723.553 3007.459, 1728.953 3008.501, 1732.695 3008.980 C 1736.438 3009.458, 1742.139 3010.530, 1745.365 3011.361 C 1748.823 3012.253, 1760.520 3013.318, 1773.865 3013.956 C 1786.314 3014.551, 1801.900 3015.694, 1808.500 3016.496 C 1834.479 3019.651, 1842.990 3019.995, 1868.500 3018.919 C 1882.816 3018.315, 1896.091 3017.252, 1899.564 3016.432 C 1902.899 3015.644, 1908.210 3015, 1911.366 3015 C 1914.523 3015, 1920.119 3014.357, 1923.803 3013.572 C 1927.486 3012.787, 1933.567 3011.871, 1937.316 3011.537 C 1941.065 3011.204, 1945.790 3010.310, 1947.816 3009.551 C 1949.842 3008.793, 1954.275 3007.919, 1957.666 3007.610 C 1961.057 3007.301, 1965.782 3006.354, 1968.166 3005.504 C 1970.550 3004.655, 1976.263 3003.283, 1980.862 3002.456 C 1985.461 3001.628, 1990.067 3000.499, 1991.099 2999.947 C 1992.131 2999.395, 1997.818 2997.660, 2003.737 2996.093 C 2009.657 2994.525, 2016.525 2992.530, 2019 2991.660 C 2021.475 2990.790, 2026.200 2989.189, 2029.500 2988.103 C 2042.500 2983.823, 2058.354 2977.951, 2059.517 2976.986 C 2060.191 2976.426, 2064.004 2974.859, 2067.990 2973.503 C 2071.976 2972.148, 2077.195 2969.944, 2079.587 2968.607 C 2081.980 2967.270, 2085.639 2965.622, 2087.719 2964.944 C 2089.798 2964.267, 2095.550 2961.607, 2100.500 2959.033 C 2105.450 2956.460, 2111.075 2953.734, 2113 2952.976 C 2114.925 2952.218, 2118.873 2950.093, 2121.773 2948.254 C 2124.673 2946.414, 2129.050 2944.050, 2131.500 2943 C 2133.950 2941.950, 2138.552 2939.399, 2141.727 2937.330 C 2144.902 2935.262, 2149.262 2932.756, 2151.416 2931.760 C 2153.570 2930.764, 2157.845 2928.247, 2160.916 2926.166 C 2163.987 2924.085, 2168.975 2920.924, 2172 2919.143 C 2177.783 2915.737, 2186.511 2909.880, 2196.422 2902.757 C 2199.679 2900.415, 2205.344 2896.475, 2209.010 2894 C 2212.675 2891.525, 2217.435 2888.052, 2219.587 2886.283 C 2223.865 2882.765, 2232.599 2875.954, 2243.518 2867.621 C 2247.377 2864.675, 2251.146 2861.529, 2251.893 2860.629 C 2252.640 2859.729, 2256.795 2856.196, 2261.126 2852.777 C 2265.457 2849.359, 2269 2846.262, 2269 2845.894 C 2269 2845.526, 2272.059 2842.753, 2275.799 2839.732 C 2283.709 2833.341, 2329.314 2788.175, 2339.531 2776.613 C 2343.364 2772.276, 2349.013 2765.976, 2352.084 2762.613 C 2355.155 2759.251, 2358.364 2755.464, 2359.214 2754.198 C 2360.065 2752.932, 2362.956 2749.557, 2365.639 2746.698 C 2368.323 2743.839, 2372.539 2738.900, 2375.009 2735.722 C 2377.479 2732.543, 2382.090 2726.693, 2385.257 2722.722 C 2390.167 2716.562, 2402.766 2699.913, 2419.101 2678 C 2421.356 2674.975, 2424.618 2670.369, 2426.350 2667.764 C 2432.127 2659.079, 2437.909 2650.569, 2442.837 2643.500 C 2445.521 2639.650, 2448.517 2634.925, 2449.496 2633 C 2450.474 2631.075, 2452.510 2627.925, 2454.020 2626 C 2455.530 2624.075, 2458.003 2620.250, 2459.515 2617.500 C 2461.027 2614.750, 2463.755 2610.395, 2465.579 2607.822 C 2467.402 2605.249, 2470.002 2600.974, 2471.357 2598.322 C 2472.712 2595.670, 2475.886 2590.371, 2478.410 2586.547 C 2480.935 2582.723, 2483 2579.223, 2483 2578.770 C 2483 2578.317, 2485.475 2573.841, 2488.500 2568.823 C 2491.525 2563.805, 2494 2559.274, 2494 2558.754 C 2494 2558.234, 2495.006 2556.395, 2496.236 2554.668 C 2498.759 2551.125, 2505.674 2538.143, 2512.573 2524 C 2515.121 2518.775, 2517.811 2513.816, 2518.550 2512.980 C 2519.289 2512.145, 2521.275 2508.214, 2522.963 2504.246 C 2524.652 2500.278, 2527.311 2494.864, 2528.873 2492.215 C 2530.436 2489.565, 2532.278 2485.689, 2532.967 2483.600 C 2533.656 2481.511, 2535.649 2477.259, 2537.394 2474.151 C 2539.140 2471.043, 2541.488 2465.983, 2542.611 2462.906 L 2544.655 2457.312 2505.352 2456.617 C 2469.508 2455.983, 2455.476 2455.477, 2416.358 2453.408 L 2403.215 2452.712 2400.762 2457.606" stroke="none" fill="#fc0404" fill-rule="evenodd"/></svg>