<?xml version="1.0" encoding="UTF-8" standalone="no"?>
<!-- Generator: Adobe Illustrator 28.2.0, SVG Export Plug-In . SVG Version: 6.00 Build 0)  -->

<svg
   version="1.1"
   id="Feuerwer"
   x="0px"
   y="0px"
   viewBox="0 0 576 576"
   style="enable-background:new 0 0 576 576;"
   xml:space="preserve"
   sodipodi:docname="unfallNeu.svg"
   inkscape:version="1.4 (e7c3feb1, 2024-10-09)"
   xmlns:inkscape="http://www.inkscape.org/namespaces/inkscape"
   xmlns:sodipodi="http://sodipodi.sourceforge.net/DTD/sodipodi-0.dtd"
   xmlns="http://www.w3.org/2000/svg"
   xmlns:svg="http://www.w3.org/2000/svg"><defs
   id="defs2"><linearGradient
   id="swatch9"
   inkscape:swatch="solid"><stop
     style="stop-color:#e61b00;stop-opacity:1;"
     offset="0"
     id="stop9" /></linearGradient><linearGradient
   id="swatch3"><stop
     style="stop-color:#000000;stop-opacity:1;"
     offset="0"
     id="stop3" /></linearGradient>
	
	
</defs><sodipodi:namedview
   id="namedview2"
   pagecolor="#ffffff"
   bordercolor="#000000"
   borderopacity="0.25"
   inkscape:showpageshadow="2"
   inkscape:pageopacity="0.0"
   inkscape:pagecheckerboard="0"
   inkscape:deskcolor="#d1d1d1"
   showgrid="false"
   inkscape:zoom="0.7686123"
   inkscape:cx="297.28902"
   inkscape:cy="316.15419"
   inkscape:window-width="1472"
   inkscape:window-height="891"
   inkscape:window-x="0"
   inkscape:window-y="37"
   inkscape:window-maximized="0"
   inkscape:current-layer="layer1" />
<style
   type="text/css"
   id="style1">
	.st0{fill:none;stroke:#FFFFFF;stroke-width:24;stroke-linecap:round;stroke-linejoin:round;stroke-miterlimit:10;}
</style>

<g
   inkscape:groupmode="layer"
   id="layer1"
   inkscape:label="fire"><g
     id="g1"
     transform="matrix(0.86649226,0,0,0.75364236,-104.2782,43.750737)"
     style="fill:none;fill-opacity:1;stroke:#e60422;stroke-opacity:1">
	
	<path
   class="st0"
   d="m 393.90884,262.63845 c 11,-15.4 17.3,-34.6 15.2,-54.9 -3.1,-35.2 -29.4,-62.6 -61.9,-69.8 6.8,-9.3 11,-20.9 11.5,-33.5 1,-33.5 -24.6,-61.5 -57.7,-62.6 -33,-1.1 -60.8,24.7 -61.9,58.2 -0.5,2.2 0,4.9 0,7.1 -30.9,6 -53,34.6 -49.8,67 0,4.4 1,8.2 2.1,12.1 -23.6,11.5 -39.3,36.8 -36.7,64.8 1.6,17.6 10,32.4 22,42.9 -12.6,14.3 -20.4,33 -21,53.3 -1.6,47.3 35.1,86.8 81.8,87.4 9.1,0.3 17.9,-0.8 26.2,-3.2 v 161 h 59.2 v -184.8 c 8.1,3.3 16.9,5.3 26.2,5.6 44.6,1.6 81.8,-33 83.4,-78 1.3,-30.8 -14.4,-57.7 -38.6,-72.6 z"
   id="path1-6"
   style="fill:none;fill-opacity:1;stroke:#e60422;stroke-opacity:1" />
</g><g
     id="g16"
     transform="matrix(0.59478769,0,0,0.54481006,238.68886,254.91501)"
     style="fill:none;fill-opacity:1;fill-rule:nonzero;stroke:#e60422;stroke-opacity:1"><path
       class="st0"
       d="m 366.9,33.3 c 36.9,-5.6 54.3,-5.1 73.8,20.3"
       id="path1-9"
       style="fill:none;fill-opacity:1;fill-rule:nonzero;stroke:#e60422;stroke-opacity:1" /><path
       class="st1"
       d="m 231.7,244.7 c -6.1,-13.5 -17.8,-36.9 -26.1,-36.9 -14.1,0 -27.2,18 -65.4,-5.5 -13.6,-8.4 -37.4,-45.5 -11.8,-65.9 0,0 -31.7,-1.7 -32.2,-31 -0.5,-29.3 16.1,-55.4 38.1,-50.7 0,0 -7.7,-20.7 14.8,-35.3 0,0 30.9,-7.7 43.4,6.4 12.5,14.1 21.3,-3.2 38.5,-4.9 19.7,-2 66.1,22.7 39,54.8 0,0 39.8,2.3 41.8,39.5 1,18.6 2.4,66.6 -41.8,60.9 l 18,39.9"
       id="path2-2"
       style="fill:none;fill-opacity:1;fill-rule:nonzero;stroke:#e60422;stroke-opacity:1" /><path
       class="st1"
       d="m 86.9,334.9 c 0,0 336.4,-144.4 351.5,-146 15.1,-1.6 32.4,24.8 18.8,36.6 -18,15.7 -357.8,148.6 -357.8,148.6 0,0 -16.8,1.3 -20.9,-14.6 -3.7,-14.1 8.4,-24.6 8.4,-24.6 z"
       id="path3"
       style="fill:none;fill-opacity:1;fill-rule:nonzero;stroke:#e60422;stroke-opacity:1" /><polyline
       class="st1"
       points="113.5,383.5 158.3,449.5 480.8,313.7 460.4,239.2 "
       id="polyline3"
       style="fill:none;fill-opacity:1;fill-rule:nonzero;stroke:#e60422;stroke-opacity:1" /><ellipse
       transform="matrix(0.7022,-0.712,0.712,0.7022,-215.8972,253.5259)"
       class="st1"
       cx="195.10001"
       cy="384.79999"
       rx="33.5"
       ry="15.9"
       id="ellipse3"
       style="fill:none;fill-opacity:1;fill-rule:nonzero;stroke:#e60422;stroke-opacity:1" /><ellipse
       transform="matrix(0.9962,-0.0876477,0.0876477,0.9962,-24.2879,37.4591)"
       class="st1"
       cx="414.39999"
       cy="295.29999"
       rx="33.5"
       ry="15.9"
       id="ellipse4"
       style="fill:none;fill-opacity:1;fill-rule:nonzero;stroke:#e60422;stroke-opacity:1" /><polyline
       class="st1"
       points="480.8,313.7 482.3,465.8 288,554.5 158.3,449.5 "
       id="polyline4"
       style="fill:none;fill-opacity:1;fill-rule:nonzero;stroke:#e60422;stroke-opacity:1" /><circle
       class="st1"
       cx="293.20001"
       cy="487.5"
       r="22.9"
       id="circle4"
       style="fill:none;fill-opacity:1;fill-rule:nonzero;stroke:#e60422;stroke-opacity:1" /><path
       class="st1"
       d="m 492.4,316.2 c 2.8,0.6 33.4,-10.1 37.8,3.9 10.2,32.2 -45,40.1 -45,40.1"
       id="path4"
       style="fill:none;fill-opacity:1;fill-rule:nonzero;stroke:#e60422;stroke-opacity:1" /><path
       class="st1"
       d="m 149.2,461.3 c -2.6,2 -26.3,8.5 -24.7,23.4 3.6,34.1 66.3,7.3 66.3,7.3"
       id="path5"
       style="fill:none;fill-opacity:1;fill-rule:nonzero;stroke:#e60422;stroke-opacity:1" /><path
       class="st1"
       d="m 206.3,429.2 c 0,0 25.8,18.9 44.5,18.8 8,-0.1 18.4,-5.7 33,-13 14.6,-7.3 10.8,-40.4 10.8,-40.4"
       id="path6"
       style="fill:none;fill-opacity:1;fill-rule:nonzero;stroke:#e60422;stroke-opacity:1" /><circle
       class="st1"
       cx="423.60001"
       cy="437.29999"
       r="22.9"
       id="circle6"
       style="fill:none;fill-opacity:1;fill-rule:nonzero;stroke:#e60422;stroke-opacity:1" /><path
       class="st1"
       d="m 336.7,379 c 0,0 25.8,18.9 44.5,18.8 8,-0.1 18.4,-5.7 33,-13 14.6,-7.3 10.8,-40.4 10.8,-40.4"
       id="path7"
       style="fill:none;fill-opacity:1;fill-rule:nonzero;stroke:#e60422;stroke-opacity:1" /><polyline
       class="st1"
       points="104.5,218 58,176.1 64.8,266.7 26.7,247.2 26.7,326 "
       id="polyline7"
       style="fill:none;fill-opacity:1;fill-rule:nonzero;stroke:#e60422;stroke-opacity:1" /><path
       class="st1"
       d="m 349.9,69.9 c 36.9,-5.6 54.3,-5.1 73.8,20.3"
       id="path8"
       style="fill:none;fill-opacity:1;fill-rule:nonzero;stroke:#e60422;stroke-opacity:1" /><path
       class="st1"
       d="m 98.5,320.1 c -3.7,-3.9 -6.1,-9 -6.5,-14.7 -1,-13.4 9.2,-25.1 22.8,-26.2 13.6,-1.1 25.5,8.9 26.5,22.3"
       id="path9"
       style="fill:none;fill-opacity:1;fill-rule:nonzero;stroke:#e60422;stroke-opacity:1" /><path
       class="st1"
       d="m 348.8,207.9 c -3.7,-3.9 -6.1,-9 -6.5,-14.7 -1,-13.4 9.2,-25.1 22.8,-26.2 13.6,-1.1 25.5,8.9 26.5,22.3"
       id="path10"
       style="fill:none;fill-opacity:1;fill-rule:nonzero;stroke:#e60422;stroke-opacity:1" /><line
       class="st1"
       x1="349.89999"
       y1="315.10001"
       x2="259.20001"
       y2="352.29999"
       id="line10"
       style="fill:none;fill-opacity:1;fill-rule:nonzero;stroke:#e60422;stroke-opacity:1" /></g></g><style
   type="text/css"
   id="style1-7">
	.st0{fill:none;stroke:#000000;stroke-width:25.5118;stroke-linecap:round;stroke-linejoin:round;stroke-miterlimit:10;}
</style><style
   type="text/css"
   id="style1-6">
	.st0{fill:none;stroke:#FFFFFF;stroke-width:24;stroke-linecap:round;stroke-linejoin:round;stroke-miterlimit:10;}
</style><style
   type="text/css"
   id="style1-1">
	.st0{fill:none;stroke:#FFFFFF;stroke-width:26;stroke-linecap:round;stroke-linejoin:round;stroke-miterlimit:10;}
	.st1{fill:none;stroke:#FFFFFF;stroke-width:24;stroke-linecap:round;stroke-linejoin:round;stroke-miterlimit:10;}
</style><style
   type="text/css"
   id="style1-8">
	.st0{fill:none;stroke:#FFFFFF;stroke-width:25.5118;stroke-linecap:round;stroke-linejoin:round;stroke-miterlimit:10;}
</style><style
   type="text/css"
   id="style1-0">
	.st0{fill:none;stroke:#FFFFFF;stroke-width:25.5118;stroke-linecap:round;stroke-linejoin:round;stroke-miterlimit:10;}
</style></svg>
