<?xml version="1.0" encoding="UTF-8"?>
<svg id="Einsatzkraft_m" xmlns="http://www.w3.org/2000/svg" viewBox="0 0 445.83 585.37">
  <defs>
    <style>
      .cls-1, .cls-2 {
        stroke-linejoin: round;
      }

      .cls-1, .cls-2, .cls-3 {
        fill: none;
        stroke: #1d1d1b;
        stroke-linecap: round;
      }

      .cls-1, .cls-3 {
        stroke-width: 24px;
      }

      .cls-2 {
        stroke-width: 7px;
      }

      .cls-3 {
        stroke-miterlimit: 10;
      }

      .cls-4 {
        fill: #1d1d1b;
        stroke-width: 0px;
      }
    </style>
  </defs>
  <path class="cls-1" d="M220.37,455.92c-24.89-.86-51.27-15.25-70.02-38.96"/>
  <path class="cls-1" d="M17.12,487.82s26.66,13.84,51.14,16.1"/>
  <path class="cls-1" d="M17.12,531.3s26.66,13.84,51.14,16.1"/>
  <line class="cls-1" x1="100.65" y1="348.06" x2="73.55" y2="431.63"/>
  <path class="cls-1" d="M157.97,358.86l-1.59,58.09s-114.37,23.24-130.55,49.69c-17.07,27.92-13.7,73.13-13.31,100.52"/>
  <g>
    <path class="cls-1" d="M225.46,455.92c24.89-.86,51.27-15.25,70.02-38.96"/>
    <path class="cls-1" d="M428.71,487.82s-26.66,13.84-51.14,16.1"/>
    <path class="cls-1" d="M428.71,531.3s-26.66,13.84-51.14,16.1"/>
    <line class="cls-1" x1="345.18" y1="348.06" x2="372.28" y2="431.63"/>
    <path class="cls-1" d="M287.86,358.86l1.59,58.09s114.37,23.24,130.55,49.69c17.07,27.92,13.7,73.13,13.31,100.52"/>
  </g>
  <path class="cls-1" d="M128.47,212.62c0,78.5,16.29,114.27,16.29,114.27,18.64,31.07,44.91,50.58,77.79,50.58s62.32-15.18,74.25-48.15c11.93-32.97,16.05-107.28,14.22-118.79"/>
  <path class="cls-1" d="M68.27,217.75c36.18-5.23,93.15-9.74,152.08-9.27h.77c58.94-.47,116.08,2.49,152.26,7.72"/>
  <line class="cls-1" x1="222.35" y1="498.75" x2="222.35" y2="573.37"/>
  <circle class="cls-4" cx="265.17" cy="250.81" r="7.15"/>
  <path class="cls-2" d="M213.03,285.37c2.25,1.44,5.37,2.51,9.6,2.26,3.85-.23,6.67-1.25,8.71-2.48"/>
  <circle class="cls-4" cx="177.13" cy="250.81" r="7.15"/>
  <path class="cls-2" d="M194.22,317.82c16.39,16,42.6,15.69,58.61-.7"/>
  <path class="cls-1" d="M242.92,27.62c11.04,0,140.36,49.07,148.16,174.79,1.48,23.83-11.22,82.14-41.99,135.98l-71.72,26.51"/>
  <path class="cls-3" d="M198.84,28.2c-23.57,5.87-137.33,56.37-144.64,174.21-1.48,23.83,11.26,82.65,42.03,136.49l68.12,19.82"/>
  <path class="cls-1" d="M220.61,12c4.54.01,8.58.75,13.71,5.04,20.41,17.08,22.76,83.61,22.76,83.61l131.08,83.89.34,34.86-63.45-8.59,2.07-22.55-79.62-41.27s-9.52,10.82-27.15,11.29h0c-19.33-1.69-28.45-13.1-28.45-13.1l-75.18,43.08,2.07,22.55-62.32,8.63.32-34.91,126.58-83.89s4.53-68.16,24.4-83.79c3.64-2.86,6.12-4.78,12.29-4.87h.56Z"/>
  <path class="cls-1" d="M68.27,217.75c36.18-5.23,93.15-9.74,152.08-9.27h.77c58.94-.47,116.08,2.49,152.26,7.72"/>
  <path class="cls-1" d="M183.43,100.15c-1.88,26.53,2.99,50.89,25.08,55.91"/>
  <path class="cls-1" d="M257.21,100.15c1.88,26.53-3.49,51.39-25.58,56.41"/>
</svg>