<?xml version="1.0" encoding="utf-8"?>
<!-- Generator: Adobe Illustrator 28.2.0, SVG Export Plug-In . SVG Version: 6.00 Build 0)  -->
<svg version="1.1" id="Einsatzkraft_x5F_m" xmlns="http://www.w3.org/2000/svg" xmlns:xlink="http://www.w3.org/1999/xlink" x="0px"
	 y="0px" viewBox="0 0 595.3 595.3" style="enable-background:new 0 0 595.3 595.3;" xml:space="preserve">
<style type="text/css">
	.st0{fill:none;stroke:#000000;stroke-width:24;stroke-linecap:round;stroke-linejoin:round;stroke-miterlimit:10;}
	.st1{fill:none;}
	.st2{fill:#C6C6C6;}
	.st3{fill:none;stroke:#000000;stroke-width:24;stroke-linecap:round;stroke-miterlimit:10;}
</style>
<line class="st0" x1="134.4" y1="459.9" x2="98.8" y2="569.7"/>
<g>
	<line class="st0" x1="455.7" y1="459.9" x2="491.4" y2="569.7"/>
</g>
<path class="st0" d="M171,281.9c0,103.2,21.4,150.2,21.4,150.2c24.5,40.8,59,66.5,102.2,66.5c45.2,0,81.9-19.9,97.6-63.3
	s21.1-141,18.7-156.1"/>
<path class="st0" d="M91.8,288.7c47.5-6.9,122.4-12.8,199.9-12.2h1c77.5-0.6,152.6,3.3,200.1,10.1"/>
<path class="st0" d="M321.4,38.7c14.5,0,184.5,64.6,194.7,229.8c1.9,31.3-14.7,107.9-55.2,178.7l-94.3,34.8"/>
<path class="st3" d="M263.4,38.7c-31,7.7-180.5,83.1-190.1,237.9c-1.9,31.3,14.8,108.6,55.2,179.4l96.5,26.1"/>
<path class="st0" d="M292,18.3c6,0,11.3,1,18,6.6C336.9,47.3,340,134.8,340,134.8L512.2,245l0.5,45.8l-83.4-11.3l2.7-29.6
	l-104.6-54.2c0,0-12.5,14.2-35.7,14.8l0,0c-25.4-2.2-37.4-17.2-37.4-17.2l-98.8,56.6l2.7,29.6l-81.9,11.3l0.9-45.9l165.9-110.2
	c0,0,5.9-89.6,32.1-110.1c4.8-3.8,8-6.3,16.1-6.4H292z"/>
<path class="st0" d="M91.8,288.7c47.5-6.9,122.4-12.8,199.9-12.2h1c77.5-0.6,152.6,3.3,200.1,10.1"/>
<path class="st0" d="M243.2,134.1c-2.5,34.9,3.9,66.9,33,73.5"/>
<path class="st0" d="M340,134.1c2.5,34.9-4.4,67.4-33.5,74"/>
</svg>
