<?xml version="1.0" encoding="utf-8"?>
<!-- Generator: Adobe Illustrator 28.2.0, SVG Export Plug-In . SVG Version: 6.00 Build 0)  -->
<svg version="1.1" xmlns="http://www.w3.org/2000/svg" xmlns:xlink="http://www.w3.org/1999/xlink" x="0px" y="0px"
	 viewBox="0 0 595.3 595.3" style="enable-background:new 0 0 595.3 595.3;" xml:space="preserve">
<style type="text/css">
	.st0{fill:none;stroke:#000000;stroke-width:24;stroke-linecap:round;stroke-linejoin:round;stroke-miterlimit:10;}
</style>
<g id="Erfolgsgeste">
</g>
<g id="schulung">
</g>
<g id="Veranstaltung">
</g>
<g id="Kommunikation">
	<g>
		<path class="st0" d="M123.6,339.6L123.6,339.6c-3.3-0.9-6.5-2.2-9.5-3.7"/>
		<path class="st0" d="M185,243.3c9.2,12.1,11,23.5,6.6,39.2l-6,21.9c-7.4,26.7-35.3,42.6-62.1,35.2"/>
	</g>
	<g>
		<path class="st0" d="M485.4,343.6L485.4,343.6c3.3-0.9,6.5-2.2,9.5-3.7"/>
		<path class="st0" d="M425.8,242.6c-9.2,12.1-12.8,28.2-8.5,43.9l6,21.9c7.4,26.7,35.3,42.6,62.1,35.2"/>
	</g>
</g>
<g id="Kompromis">
</g>
<g id="Beruf">
</g>
<g id="Kommunikation_00000148621349926615277130000004128927954781058462_">
	<path class="st0" d="M206.7,59.6L378,58.9l0.4,82.1l-96.7,0.4c6.8,6.4,44.8,37.5,44.8,37.5l-35,10.1
		c-25.1-14.3-84.4-47.3-84.4-47.3L206.7,59.6z"/>
	<path class="st0" d="M373.3,277l-135.8-0.6l-0.3,65l76.6,0.3c-5.4,5.1-35.5,29.7-35.5,29.7l27.8,8c19.9-11.3,66.9-37.5,66.9-37.5
		L373.3,277z"/>
	<path class="st0" d="M202.1,241c0,0-15.5-67-71.8-66.2c-30.8,0.5-70.9,25.7-69.1,86c1,35.2,5.1,47.9-1.8,56.3
		c-6.9,8.4-16.4,11.1-29.8,10.5c-20.4-0.9-23.3,46.7,5.9,45.8h78.2v-74.7c0,0-13.5,3.3-17.3-5.9c-3.8-9.2-2.6-24.9,14.7-24.9l9-10.6
		v-17.3L202.1,241z"/>
	<ellipse cx="156.7" cy="269.1" rx="6.1" ry="6.2"/>
	<ellipse cx="451.6" cy="269.3" rx="6.1" ry="6.2"/>
	<path class="st0" d="M121.9,448.5l18.4,34.7l69.3-43.1l31.4,32.1c0,0-36.1,39.5-58.1,57.4c-22,17.9-91.3,13.5-108.6-6.1
		c-8-9.1-16.1-30.6-14.5-57.1c1.5-26.5,37.9-92,37.9-92c2.3,0,59.3,0,59.3,0l38.5,74.7"/>
	<path class="st0" d="M219.6,450c0,0,6.6-26.6,10.7-25s12.2,0.6,12.2,0.6s13.3-14.3,15.8-14.8s12.2-3.7,20.4,11.3
		c9.2,16.8-38.4,47.3-38.4,47.3L219.6,450z"/>
	<path class="st0" d="M387.4,505.8c0,0-24.1-15.9-26.5-12.3c-2.4,3.6-6.4,5.9-6.4,5.9s-24.2-2.3-26.6-1.2c-2.4,1.1-8.6,6.4-5.6,22.8
		c3,16.2,62.6,9.9,62.6,9.9L387.4,505.8z"/>
	<path class="st0" d="M435.5,176.6c0,0-27.5-4-35,18.6c-10.3,30.9,21.3,45.1,21.3,45.1h73.4v28.6c0,0,17.1,7.1,19.4,14.8
		c2.3,7.6-14,34.7-14,34.7l3.9,27.5h39.2c0,0-2.3-22.5,4-31.3c12.8-17.9,17.1-45.9,13.3-78c-3.8-32.1-31.1-65.5-55.6-69.1
		c-23.5-3.4-41.2-2.5-47.4,2C447,177.5,435.5,176.6,435.5,176.6z"/>
	<path class="st0" d="M436.4,418l2.2-35l80.6-7.1c0,0,95.8,163.9-1.8,161.1H384.3l5.4-39.8c0,0,67.3-1.5,74.2-1.5
		c6.9,0,15.3-26.8,15.3-26.8"/>
	<polyline class="st0" points="477.9,414.6 435.1,424.3 411.1,489.1 	"/>
	<line class="st0" x1="148.1" y1="343.6" x2="148.5" y2="368.9"/>
	<line class="st0" x1="457.1" y1="351.1" x2="457.5" y2="373.4"/>
	<line class="st0" x1="498.4" y1="351.1" x2="498.9" y2="370.5"/>
</g>
</svg>
