<?xml version="1.0" encoding="utf-8"?>
<!-- Generator: Adobe Illustrator 28.2.0, SVG Export Plug-In . SVG Version: 6.00 Build 0)  -->
<svg version="1.1" xmlns="http://www.w3.org/2000/svg" xmlns:xlink="http://www.w3.org/1999/xlink" x="0px" y="0px"
	 viewBox="0 0 595.3 595.3" style="enable-background:new 0 0 595.3 595.3;" xml:space="preserve">
<style type="text/css">
	.st0{fill:none;stroke:#000000;stroke-width:24;stroke-linecap:round;stroke-linejoin:round;stroke-miterlimit:10;}
</style>
<g id="Gedenken">
</g>
<g id="Erfolgsgeste">
</g>
<g id="Dauemen_hoch">
	<polygon class="st0" points="235.6,432.2 198,558.1 18.4,407.9 121.1,335.7 	"/>
	<path class="st0" d="M165,233.5c0,0,3-31.3-15.8-34c-6.6-0.9-20.6-0.3-24.7,24.1c-4.2,24.4-0.3,100.1-0.3,100.1"/>
	<path class="st0" d="M124.2,323.8c14.3-69.1,67.3-123.3,87.6-125.1s84.6,44.5,109.9,76.8c27.7,35.4-80.4,149.2-80.4,149.2"/>
	<line class="st0" x1="160.9" y1="545.7" x2="126.8" y2="599.9"/>
	<line class="st0" x1="31.9" y1="437.1" x2="-14.1" y2="481.6"/>
	<line class="st0" x1="431.4" y1="396.4" x2="464.4" y2="469.7"/>
	<line class="st0" x1="558.6" y1="278.2" x2="621.5" y2="328.3"/>
	<path class="st0" d="M465.8,187.9l107.6,76.6L410.7,399.4c0,0-43.4-130.4-39.8-132.3C374.7,265.3,465.8,187.9,465.8,187.9z"/>
	<path class="st0" d="M460.6,179.5c0,0-34.3-155.4-49.1-157.3C396.7,20.4,395,33.5,394.1,40c-0.9,6.5-1.8,20.3-1.8,20.3"/>
	<path class="st0" d="M352.8,26.7c-9.9-9.9-30.3,2.7-30.8,11.1c-0.8,12.5,56.7,70.2,64.1,80.1c0,0,29-8.4,21.3-21.8
		C393.2,71.4,352.8,26.7,352.8,26.7z"/>
	<path class="st0" d="M324.6,48.2c-11.5-11.7-37.7,3.4-35.8,13.2c2.8,14.8,64.9,87.5,74.6,95.4c0,0,29.8-6.8,20.8-22.8
		C367.6,104.7,324.6,48.2,324.6,48.2z"/>
	<path class="st0" d="M292.3,68.5c-9.8-10.1-30.2,2.8-30.7,11.3c-0.8,12.7,34.2,74.7,53.9,85.1c0,0,35.5-9.1,27.8-22.7
		C329.2,117,292.3,68.5,292.3,68.5z"/>
	<path class="st0" d="M254.8,87.4c-8.7-8.9-26.6,2.5-27,10c-0.7,11.2,37,72,43.5,80.8c0,0,35.3-14,28.5-26
		C287.2,130,254.8,87.4,254.8,87.4z"/>
	<path class="st0" d="M227.7,97.3c2.5,3.7,16.6,99.7,86.5,143.9c33.2,21,56.7,25.9,56.7,25.9"/>
</g>
<g id="Veranstaltung">
</g>
<g id="Befragung">
</g>
<g id="Kompromis">
</g>
<g id="Veranstaltung_x5F_und_x5F_museen">
</g>
<g id="Kommunikation_00000148621349926615277130000004128927954781058462_">
</g>
</svg>
