<?xml version="1.0" encoding="utf-8"?>
<!-- Generator: Adobe Illustrator 28.2.0, SVG Export Plug-In . SVG Version: 6.00 Build 0)  -->
<svg version="1.1" id="STETOSKOP" xmlns="http://www.w3.org/2000/svg" xmlns:xlink="http://www.w3.org/1999/xlink" x="0px" y="0px"
	 viewBox="0 0 576 576" style="enable-background:new 0 0 576 576;" xml:space="preserve">
<style type="text/css">
	.st0{fill:none;stroke:#000000;stroke-width:24;stroke-linecap:round;stroke-linejoin:round;stroke-miterlimit:10;}
</style>
<path class="st0" d="M83.1,51.6H35.4v173.6l118.4,102.3c-39,56.8,41.2,43.8,21.7,107.3c-22.6,73.7,53,132,125.4,129.6
	c81.8-2.7,140.3-64.8,104-155.6c-18.6-46.6-24.1-48.2-42.2-81.6c-28.3-52.3,27.7-75.1,64.7-80.5"/>
<path class="st0" d="M132.8,52.2c0,9.3-7.6,16.9-16.9,16.9s-26.7-8-26.7-17.4s17.4-16.5,26.7-16.5S132.8,42.8,132.8,52.2z"/>
<path class="st0" d="M173.6,54.4c0,9.3,7.6,16.9,16.9,16.9c9.3,0,26.7-8,26.7-17.4s-17.4-16.5-26.7-16.5
	C181.2,37.5,173.6,45.1,173.6,54.4z"/>
<polyline class="st0" points="226,51.6 267.1,51.6 267.1,225.2 153.8,327.5 "/>
<ellipse class="st0" cx="494.6" cy="225.2" rx="68.3" ry="63.3"/>
<ellipse cx="497.3" cy="226.9" rx="21.6" ry="20"/>
</svg>
