<?xml version="1.0" encoding="utf-8"?>
<!-- Generator: Adobe Illustrator 28.2.0, SVG Export Plug-In . SVG Version: 6.00 Build 0)  -->
<svg version="1.1" xmlns="http://www.w3.org/2000/svg" xmlns:xlink="http://www.w3.org/1999/xlink" x="0px" y="0px"
	 viewBox="0 0 595.3 595.3" style="enable-background:new 0 0 595.3 595.3;" xml:space="preserve">
<style type="text/css">
	.st0{fill:none;stroke:#000000;stroke-width:24;stroke-linecap:round;stroke-linejoin:round;stroke-miterlimit:10;}
</style>
<g id="Gedenken">
</g>
<g id="Erfolgsgeste">
</g>
<g id="Veranstaltung">
</g>
<g id="Kommunikation">
	<rect x="22.8" y="23" class="st0" width="549.6" height="405.3"/>
	<line class="st0" x1="25" y1="375.6" x2="559.3" y2="375.6"/>
	<g>
		<circle class="st0" cx="129.5" cy="192" r="36.3"/>
		<path class="st0" d="M70.4,376.7v-44.7c0-38,26.4-68.8,59.1-68.8s59.1,30.8,59.1,68.8v43.7L70.4,376.7z"/>
	</g>
</g>
<g id="online_x5F_schulung">
	<path class="st0" d="M500.3,85.1l-275-1l-0.5,172.6l170.4,0.6c-9.5,9-62.7,52.5-62.7,52.5l49,14.2c35.2-20,118.2-66.2,118.2-66.2
		L500.3,85.1z"/>
	<polygon class="st0" points="270.3,430.1 270.3,524 151.4,524 151.4,572.3 443.8,572.3 443.8,524 327.8,524 327.8,430.1 	"/>
</g>
<g id="Kompromis">
</g>
<g id="Beruf">
</g>
<g id="Kommunikation_00000148621349926615277130000004128927954781058462_">
</g>
</svg>
