<svg width="56" height="48" viewBox="0 0 56 48" fill="none" xmlns="http://www.w3.org/2000/svg">
<path fill-rule="evenodd" clip-rule="evenodd" d="M8.97319 21.7718C10.5201 22.4 11.4483 24.3436 11.3709 26.5423C11.2936 28.7804 10.5201 30.9006 11.1196 33.3742C11.719 35.8086 13.0532 36.9865 15.8957 37.438C16.1084 38.6552 16.4178 39.892 16.9786 40.9718C17.0366 41.1288 15.509 42.0515 15.0256 42.9352C14.8129 43.308 15.7797 44.5448 16.2438 44.427C17.0559 44.211 18.3708 42.6601 18.4095 42.6798C19.7437 43.5632 21.1359 44.3877 22.6249 44.9377C22.6249 44.9377 20.6139 44.7215 18.3128 44.8982C16.0311 45.0552 11.2356 45.6052 6.90417 44.6233C3.42356 43.8577 1.52857 41.011 1.5479 37.9681C1.56724 35.004 3.28821 32.8834 3.71361 31.1558C4.11968 29.4285 3.8103 27.9166 3.52025 26.6012C4.35172 27.1313 5.24121 27.9951 5.51193 29.6641C5.7633 31.2736 5.08652 32.6282 4.9705 34.6307C4.85448 36.7116 5.5506 38.557 6.30473 39.7153C7.05886 40.854 8.43177 41.8945 9.55329 42.2479C10.7908 42.6209 13.2079 42.7975 13.2466 42.0712C13.2659 41.3448 11.5256 41.4429 10.0367 40.9914C8.93452 40.6577 8.08371 40.0098 7.42626 38.9107C6.74947 37.7914 6.26606 36.123 6.47876 33.9632C6.69146 31.8626 8.50911 29.1534 9.05054 27.1902C9.59197 25.2859 9.37926 23.4798 8.97319 21.7718ZM47.1051 21.6933C47.1051 21.6933 46.6217 22.0074 46.6217 25.0307C46.6024 28.054 48.478 30.4098 48.478 30.4098C48.6907 30.7632 49.6962 32.2945 49.7156 34.1988C49.7542 36.1031 49.3288 37.3598 48.8261 38.3411C48.3427 39.2834 47.3758 40.5006 45.6355 40.9129C43.8759 41.3448 42.9864 41.3251 42.8317 42.0123C42.677 42.6601 45.2101 42.3067 46.1963 42.0712C47.2018 41.8356 48.5554 41.3448 49.6189 39.7742C50.6824 38.2233 51.0111 36.1816 51.1271 34.9644C51.2432 33.7472 51.0885 32.9227 50.7017 31.7644C50.2957 30.6061 50.5277 29.0947 50.9725 28.054C51.4365 27.0135 52.268 26.4638 52.7901 26.2282C52.5194 27.1509 52.094 28.2307 52.094 29.919C52.094 31.5487 52.7128 32.55 53.1188 33.1193C54.6464 35.2785 54.9365 36.6528 54.5497 39.1264C54.0857 42.0123 51.0885 44.584 47.4338 44.9377C43.8179 45.2908 39.1384 44.8199 37.2241 44.8199C35.3291 44.8199 34.3236 45.0945 33.4728 45.1926C35.0584 44.5251 36.2959 43.681 37.6688 42.6015C37.6688 42.6015 39.3511 44.2503 39.8925 44.427C40.3953 44.604 41.3234 43.3472 41.0914 42.8957C40.8207 42.3853 40.0086 41.7374 39.0804 40.9718C39.6025 40.2061 39.9892 39.1853 40.2986 37.2221C43.3925 37.3399 45.4228 34.5325 45.4422 31.5877C45.4615 28.6626 44.7074 28.4273 44.6687 26.7386C44.572 22.7337 47.1051 21.6933 47.1051 21.6933ZM29.9728 18.8859C29.9728 19.2785 29.4121 19.2785 29.4121 18.8859C29.4121 18.4933 29.9728 18.4933 29.9728 18.8859ZM8.58646 17.4331C10.9262 19.5534 13.3433 21.5755 15.7024 23.6761L15.741 35.907C14.0587 35.6515 13.0532 35.043 12.5892 33.1779C12.1444 31.2933 12.6278 29.7227 12.7245 26.6209C12.8019 23.4798 11.1776 21.065 7.89034 19.789L8.58646 17.4331ZM29.6634 17.6491C29.006 17.8454 29.0833 17.8847 28.8513 18.0613C28.6386 18.238 28.5806 18.3951 28.4646 18.4344C28.3679 18.4736 28.0005 18.4736 27.5944 18.4933C27.2077 18.4933 26.5889 18.4736 26.3955 18.611C26.2022 18.7288 26.3955 19.3571 26.5889 19.573C26.7823 19.789 26.995 20.162 27.459 20.2601C27.9425 20.3779 28.1552 20.2994 28.3872 20.319C28.6192 20.3583 29.0253 20.319 29.238 20.3975C29.4894 20.4957 29.6634 20.7509 29.354 20.8687C29.0253 20.9865 28.4645 20.9472 28.1165 20.908C27.7684 20.8687 27.3624 20.9669 27.4204 21.281C27.4784 21.5951 27.6524 21.8307 28.0778 21.9092C28.4839 22.0074 28.9673 21.9877 29.2767 22.0859C29.5861 22.1644 29.5861 22.2626 29.4121 22.4785C29.2187 22.7141 28.5806 22.9301 28.2712 23.0871C27.9618 23.2245 27.7878 23.3033 27.6717 23.362C27.5557 23.4209 27.4977 23.4798 27.3624 23.5779C27.2463 23.6564 27.0723 23.8135 26.995 23.892C26.8983 24.0294 26.7629 24.2258 26.5889 24.2258C26.4535 24.2454 26.1635 24.0294 26.1248 23.9902C25.9121 23.8724 25.3513 23.6564 24.7132 23.4405C24.0751 23.2442 23.263 22.989 23.1276 22.9301C23.0116 22.8515 22.7409 22.6159 22.6442 22.5178C22.5669 22.4393 22.3735 22.1055 22.3735 22.1055C22.2961 21.9681 22.2768 21.811 22.0448 21.1239C21.8127 20.4564 21.484 20.0442 21.252 19.9264C21.0199 19.8086 20.7879 19.8675 20.6525 19.8871C20.5172 19.9264 20.2465 20.162 20.1305 20.2798C20.0144 20.3975 19.8984 20.4957 19.8211 20.7705C19.7437 21.0454 20.2658 22.1448 20.2658 22.1448C20.4012 22.8319 20.8652 23.5975 20.9426 23.735C21.0006 23.853 21.2133 24.1472 21.368 24.3436C21.542 24.5399 21.8127 24.8147 22.0834 25.1092C22.3542 25.4037 22.7796 25.7178 23.1276 25.9733C23.4757 26.2086 24.3845 26.6798 24.3845 26.6798C25.0806 27.0923 25.5254 27.2687 25.5447 27.2883C25.564 27.3276 25.6414 27.3865 25.6414 27.426C25.6607 27.465 25.6414 27.5043 25.6221 27.5632C25.6027 27.6024 25.448 27.681 25.2933 27.7988C25.1386 27.8969 24.5585 28.1129 24.1138 28.3092C23.6691 28.5252 23.4177 28.6626 23.1663 28.761C22.9343 28.8589 22.7216 28.9374 22.6249 28.9374C22.5475 28.9374 22.3348 28.9571 22.2575 28.9178C22.1608 28.8982 22.0061 28.6626 22.0061 28.6626C21.8707 28.5451 21.4647 27.9362 21.31 27.7399C21.1746 27.5239 20.8846 27.2101 20.7105 27.1117C20.5365 27.0331 20.3432 27.0135 20.2465 27.0135C20.1498 27.0135 19.9758 27.1117 19.8597 27.1509C19.7631 27.2101 19.647 27.2883 19.5504 27.4061C19.4537 27.5043 19.3183 27.6613 19.2796 27.7598C19.241 27.8577 19.1636 28.054 19.1636 28.1325C19.1636 28.2113 19.183 28.4074 19.2603 28.6429C19.3377 28.8589 19.8791 29.1926 20.1498 29.4478C20.4205 29.7031 20.8459 30.096 21.0779 30.292C21.31 30.4687 21.542 30.6061 21.7354 30.7436C21.9094 30.8613 22.1415 30.9791 22.2961 31.0577C22.4508 31.1362 22.6442 31.1951 22.7796 31.2343C22.8956 31.254 22.9923 31.2933 23.1663 31.3328C23.3403 31.3718 23.7271 31.411 23.9398 31.411C24.1525 31.411 24.5199 31.3718 24.7519 31.3328C25.0033 31.2933 25.6027 31.1166 25.6027 31.1166C26.0668 30.9791 26.3762 30.8025 26.4342 30.8025C26.4922 30.8025 26.5502 30.7828 26.6276 30.8417C26.7049 30.9006 26.8209 31.2932 26.8209 31.2932C26.9176 31.5288 27.053 32.0003 27.1497 32.2162C27.2463 32.4319 27.5171 32.8245 27.5557 33.0015C27.5944 33.1779 27.6137 33.3153 27.5944 33.3742C27.5751 33.453 27.5171 33.5117 27.459 33.5902C27.3817 33.669 27.2463 33.7276 27.1303 33.7669C27.0143 33.8061 26.8209 33.9239 26.5889 34.0614C26.3762 34.2184 25.9895 34.572 25.6994 34.827C25.4094 35.1018 25.1 35.5534 24.9259 35.7892C24.7519 36.0442 24.6552 36.2209 24.5779 36.3975C24.4812 36.5745 24.4038 36.8098 24.3265 36.9865C24.2298 37.1436 24.1331 37.438 24.0945 37.6344C24.0751 37.8307 23.9784 38.1644 23.9978 38.4982C24.0171 38.8123 24.0751 38.9497 24.1138 39.0675C24.1525 39.2049 24.1911 39.4209 24.1718 39.5583C24.1525 39.696 24.0171 39.892 23.9591 39.9706C23.9011 40.0687 23.7657 40.1865 23.6497 40.1475C23.5337 40.108 23.3403 39.9509 22.9536 39.7546C22.5669 39.5583 22.2188 39.4405 22.1028 39.4012C22.0061 39.3423 21.7934 39.3622 21.716 39.4012C21.6194 39.4209 21.4453 39.5975 21.3486 39.6761C21.252 39.7546 21.1166 39.8528 21.0779 39.9509C21.0393 40.0491 20.9426 40.0491 20.9426 40.4417C20.9426 40.7951 21.1166 40.9521 21.2326 41.0503C21.3486 41.1288 21.5227 41.1877 21.658 41.2663C21.7934 41.3252 22.0061 41.6393 22.2575 41.7571C22.5088 41.8945 23.0116 42.0123 23.147 42.0515C23.263 42.0908 23.7271 42.1693 24.2298 42.3067C24.7519 42.4245 25.158 42.6601 25.448 42.562C25.7574 42.4837 25.8928 42.2086 25.9895 42.0123C26.0861 41.8162 26.1635 41.4825 26.2795 41.2074C26.3955 40.9129 26.5115 40.5006 26.6276 40.2258C26.7436 39.9509 26.9176 39.6761 27.053 39.48C27.1883 39.2834 27.401 39.0675 27.5944 38.8515C27.7878 38.6356 28.1938 38.2822 28.3679 38.1252C28.5419 37.9681 28.8319 37.7521 28.9093 37.7129C28.9673 37.6935 29.18 37.4773 29.2767 37.4773C29.3927 37.4773 29.4507 37.5362 29.5087 37.6147C29.5667 37.6736 29.6248 37.9288 29.7214 38.1841C29.8181 38.4589 29.9921 38.7534 30.2435 39.1067C30.4949 39.4601 30.9396 39.9313 30.9396 39.9313C30.9396 39.9313 31.7131 40.5399 31.7905 40.6184C31.8871 40.6972 32.0418 40.7558 32.0998 40.9129C32.1385 41.0503 31.9258 41.384 31.9258 41.384C31.9258 41.384 31.4424 41.6196 31.133 41.6984C30.8236 41.7767 30.5142 41.7374 30.0695 41.8945C29.6441 42.0712 29.5474 42.6405 29.5474 42.8761C29.5474 43.1117 29.9728 43.838 30.2629 43.9558C30.5336 44.0736 31.7905 43.7202 32.2545 43.4849C32.7186 43.2294 33.1827 42.7779 33.5501 42.4638C33.9175 42.1693 34.5363 41.6393 34.6716 41.3055C34.807 40.9521 34.4589 40.1276 34.3042 39.1463C34.1495 38.1448 34.1495 37.3202 34.1302 36.6923C34.1109 36.0638 34.1495 35.8086 34.2849 35.6319C34.4396 35.4555 34.4009 35.0429 34.3429 34.6702C34.2849 34.2969 34.1302 34.081 34.0529 33.9043C33.9948 33.7276 33.7435 33.5313 33.5888 33.0405C33.4147 32.5693 33.2794 30.8613 33.2214 30.5669C33.144 30.2724 32.8346 29.3303 32.854 28.2113C32.8733 27.0923 33.6661 25.5215 33.6855 24.6184C33.6855 24.0294 33.4921 23.7939 33.4534 23.5193C33.4147 23.2638 33.4728 22.773 33.5501 22.4589C33.6468 22.1644 33.7628 21.7521 33.7821 21.3202C33.8015 20.908 33.7241 20.6331 33.6274 20.3387C33.5308 20.0442 33.4341 19.8086 33.4341 19.5926C33.4534 19.3767 33.6661 19.0429 33.6661 18.7288C33.6468 18.4147 33.5308 18.1988 33.4341 18.081C33.3181 17.9632 33.202 17.8847 33.028 17.8454C32.854 17.7865 32.6219 17.8258 32.4866 17.865C32.3512 17.9043 32.3899 18.0613 32.1385 18.0417C31.9065 18.0025 31.7325 17.708 31.2877 17.5902C30.8236 17.492 30.2822 17.4528 29.6634 17.6491ZM47.4919 17.3546C47.5692 17.3939 48.2073 19.8086 48.1686 19.8871C47.3758 20.2209 46.2543 20.4761 45.0941 21.7521C43.9339 23.0282 43.1024 24.8736 43.3538 26.8564C43.6052 28.8196 44.3206 29.7622 44.0886 31.7252C43.7985 34.0417 42.6577 35.6712 40.3179 35.8871V23.6371L47.4919 17.3546ZM39.0224 16.8834C39.0224 16.8834 39.0417 34.984 39.003 36.1423C38.9644 37.3006 38.9064 37.5757 38.7323 38.2037C38.5583 38.8319 38.2683 39.4405 37.8235 40.1475C37.4948 40.6773 36.8954 41.384 35.5998 42.2282C34.3042 43.092 33.202 43.6025 32.5639 43.9362C31.9258 44.2503 29.9728 45.2515 29.6634 45.4479C29.3347 45.6638 28.1165 46.3509 28.0391 46.3509C27.9618 46.3509 26.937 45.762 26.2602 45.3497C25.5834 44.9377 24.1718 44.211 22.8376 43.5239C22.1608 43.1706 21.0006 42.6015 20.0144 41.9534C18.9896 41.2859 18.4868 40.638 18.1388 39.9119C17.7714 39.1853 17.3847 38.1644 17.2686 37.6344C17.1719 37.0847 17.0366 36.4957 16.9979 35.6712C16.9786 34.8466 16.9979 27.1509 16.9979 27.1509V16.9031L39.0224 16.8834ZM28.1552 14.7043C32.5639 14.7043 38.3456 15.4896 38.2296 15.5288L18.1388 15.5681C18.5449 15.3129 23.1663 14.7043 28.1552 14.7043ZM45.8289 12.3681C46.235 12.3877 52.7514 20.3583 52.6548 20.6724C52.6161 20.8295 50.2957 22.4393 49.9476 22.3215C49.6189 22.2233 48.2266 17.0405 47.9559 16.1178C47.6852 15.1951 45.5969 12.6037 45.8096 12.3877C45.8096 12.3681 45.8096 12.3681 45.8289 12.3681ZM10.3074 12.1718C10.3074 12.1718 10.3074 12.1914 10.3268 12.1914C10.6748 12.5644 8.33508 14.9006 8.04503 15.8626C7.73564 16.8245 6.38208 22.3215 6.15004 22.3607C5.89866 22.4 3.52025 20.8491 3.48157 20.692C3.46224 20.5546 9.766 12.0932 10.3074 12.1718ZM25.7961 11.9362L25.7574 13.5853L23.8818 13.6638C21.8321 13.7816 20.3238 13.919 18.6995 14.2331C17.0173 14.5669 16.7659 14.7436 16.5532 14.7632L16.1084 12.9374L18.0614 12.5448C19.0669 12.3877 23.147 11.9951 23.147 11.9951L25.7961 11.9362ZM31.5391 11.8969C32.2352 11.8969 33.2794 11.9362 34.6716 12.1129C37.4368 12.427 39.8539 12.9374 39.8345 12.9374L39.3704 14.6454C39.1771 14.6061 39.3704 14.6061 37.6495 14.292C36.1025 14.0172 33.7435 13.7423 31.8678 13.6442L30.4562 13.546L30.4949 11.9558C30.4949 11.9558 30.843 11.8969 31.5391 11.8969ZM28.1358 10.4638C28.9286 10.4638 29.5087 11.0528 29.5474 11.7595C29.5861 12.4663 29.5861 13.546 29.5861 13.546H26.6856L26.7242 11.7595C26.7242 11.1509 27.343 10.4638 28.1358 10.4638ZM28.0585 7.46012C28.0585 7.46012 28.6386 10.1497 31.4617 10.3067C33.5694 10.4245 34.5943 8.40246 34.5943 8.40246C34.5943 8.40246 34.9037 10.4442 37.0887 10.935C39.1577 11.4061 40.5887 9.93374 40.5887 9.93374L40.2019 11.8184C40.2019 11.8184 38.1136 11.4061 34.7683 11.092C31.4617 10.7779 30.3015 10.9546 30.3015 10.9546C30.3015 10.9546 29.7021 9.36441 28.0972 9.38405C26.4922 9.40368 25.8734 10.8957 25.8734 10.8957C25.8734 10.8957 22.1221 10.9742 20.8072 11.1313C19.5117 11.2883 15.8377 11.7988 15.8377 11.7988L15.4123 9.87485C15.4123 9.87485 16.8819 11.2098 18.6029 10.8761C20.2852 10.5423 21.0199 9.77669 21.426 8.48098C21.426 8.48098 22.0061 9.24662 22.4895 9.63926C22.9729 10.0515 23.6497 10.3264 24.7519 10.3067C25.8541 10.2871 26.6662 9.75706 27.285 9.06994C27.8845 8.40246 28.0585 7.46012 28.0585 7.46012ZM17.6554 6.79263C17.9648 7.16564 18.3515 7.47976 18.7962 7.61718C19.2216 7.7546 19.6084 7.83313 20.2078 7.63681C20.2658 8.83435 19.473 9.5411 18.5449 9.71779C17.6554 9.89447 16.4178 9.54111 15.8184 8.48098C16.3018 8.38282 16.6305 8.2454 16.9786 7.91165C17.3266 7.59754 17.5393 7.2638 17.6554 6.79263ZM38.3456 6.63558C38.539 7.67607 39.1384 8.26503 40.2213 8.40246C40.2213 8.40246 39.5831 10.189 37.4754 9.91411C36.3152 9.75705 35.7351 8.40246 35.8125 7.67608C36.7213 8.10798 37.9009 7.69571 38.3456 6.63558ZM31.4811 5.83068C31.5391 5.83068 31.6551 6.4589 32.2932 6.8908C33.028 7.3816 33.5888 7.30307 33.5888 7.30307C33.5888 7.30307 33.2214 9.28589 31.4037 9.14847C29.5667 9.01104 29.2767 7.06748 29.2767 7.06748C29.2767 7.06748 30.0308 7.10675 30.6109 6.77301C31.191 6.45889 31.4424 5.83068 31.4811 5.83068ZM24.6359 5.83068C24.6746 6.02699 25.0613 6.55705 25.4674 6.79263C25.8928 7.02822 26.4342 7.10675 26.9176 7.00859C26.8016 7.59755 26.6082 7.93128 26.3375 8.32392C26.0668 8.71656 24.9259 9.6589 23.437 8.81472C22.6635 8.36319 22.4315 7.28344 22.4315 7.28344C22.4315 7.28344 23.205 7.30306 23.6884 6.98895C24.4619 6.51779 24.5779 5.83068 24.6359 5.83068ZM42.3676 3.10184C42.4256 3.10184 42.4643 3.10184 42.4643 3.10184C42.4643 3.10184 41.8455 5.86994 41.7682 5.98773C41.6715 6.10552 41.4781 5.9681 41.2268 6.18405C41.0527 6.32147 40.8594 6.96932 40.8594 6.96932C40.8594 6.96932 40.7434 7.30306 40.4146 7.2638C39.9505 7.22454 39.7378 6.81227 39.6798 6.47853C39.6218 6.12516 39.8925 5.75215 39.9892 5.65399C40.2986 5.30061 41.2654 5.33988 41.4588 5.18282C41.6522 4.9865 41.5362 4.04417 41.6328 3.71043C41.7682 3.18037 42.1743 3.10184 42.3676 3.10184ZM13.6527 3.04295C13.7687 3.04295 13.9621 3.08221 14.1361 3.29816C14.3681 3.59264 14.4068 3.92638 14.4455 4.08343C14.4648 4.90797 14.3101 5.22208 15.1029 5.32024C15.335 5.33988 15.7797 5.43804 15.9537 5.55583C16.1471 5.69325 16.2825 5.92883 16.3018 6.12515C16.3018 6.30184 16.3211 6.51779 16.2631 6.71411C16.2244 6.85153 16.1664 6.94969 16.0117 7.08712C15.8764 7.20491 15.5283 7.44049 15.335 7.30307C15.1609 7.16564 15.1609 6.55706 14.9676 6.30184C14.7355 6.02699 14.3681 6.12515 14.2908 5.9681C14.2134 5.79141 13.5367 3.06258 13.5753 3.06258C13.5753 3.04294 13.614 3.04295 13.6527 3.04295ZM35.2517 1.9043C35.7932 1.88466 36.0252 2.15951 36.1219 2.53251C36.2379 2.92515 36.0832 3.2 35.9478 3.39632C35.7932 3.61227 35.7351 3.88712 35.8318 4.16196C35.9285 4.45644 36.4313 4.37791 37.05 4.73129C37.3788 4.9276 37.4948 5.67362 37.2047 6.08589C37.0307 6.32147 36.8373 6.4589 36.3926 6.49816C36.3153 6.49816 35.9092 6.53742 35.8705 5.9681C35.8512 5.69325 35.9478 4.82944 35.039 4.80981C34.1302 4.79018 34.1302 5.51656 34.1109 5.67361C34.0722 6.08588 33.8208 6.16441 33.6274 6.14478C33.4341 6.14478 33.028 6.08589 32.796 5.57546C32.5833 5.06503 32.8346 4.57423 32.912 4.49571C33.4534 3.96565 34.1689 4.24049 34.3816 4.1227C34.5556 4.02454 34.6136 3.61227 34.4976 3.29816C34.3816 3.00368 34.3236 2.63067 34.4203 2.41472C34.4976 2.2184 34.691 1.92393 35.2517 1.9043ZM20.7492 1.88466C21.1166 1.88466 21.6387 2.2773 21.6387 2.74846C21.6387 3.23926 21.4453 3.33742 21.4067 3.45521C21.3486 3.57301 21.3873 3.82822 21.4453 3.92638C21.5033 4.04417 21.5613 4.10307 21.716 4.16196C21.8901 4.20123 22.1221 4.1227 22.4895 4.14233C22.8762 4.16196 23.0503 4.24049 23.1856 4.39754C23.321 4.57423 23.3983 4.71166 23.4177 5.08467C23.437 5.49694 23.263 5.77178 23.1856 5.85031C23.1083 5.94846 23.0309 6.00736 22.9536 6.04662C22.8569 6.10552 22.7022 6.14478 22.6249 6.14478C22.5475 6.16441 22.3542 6.14478 22.2188 5.98773C22.0641 5.83067 22.0254 5.65398 21.9868 5.53619C21.9481 5.39877 21.8514 4.79018 21.1746 4.79018C20.5172 4.80981 20.4205 5.18282 20.3432 5.49693C20.3432 5.49693 20.2658 6.08589 20.1691 6.24294C20.0531 6.41963 19.9371 6.57669 19.7437 6.61595C19.5697 6.67485 19.2216 6.59632 19.0669 6.49816C18.8929 6.41963 18.7962 6.28221 18.7189 6.12515C18.6415 5.98773 18.6029 5.75215 18.6029 5.57546C18.6222 5.39877 18.6802 5.12393 18.7962 4.9865C18.9703 4.73129 19.299 4.45644 19.7244 4.37791C20.1305 4.29939 20.2271 3.86748 20.0725 3.59264C19.9178 3.31779 19.8404 3.29816 19.8211 2.74846C19.8017 2.19877 20.3818 1.88466 20.7492 1.88466ZM28.2132 1.27607C28.8319 1.27607 29.1027 1.70797 29.1027 2.19877C29.1027 2.7092 28.8706 2.7681 28.7933 3.00368C28.7159 3.21963 28.6773 3.6319 28.8706 3.76933C29.1993 3.98528 29.7601 3.82822 30.1275 4.18159C30.5529 4.6135 30.4949 4.82944 30.4176 5.26135C30.3209 5.67362 29.9148 5.86994 29.6054 5.9092C29.296 5.92883 29.064 5.59509 28.9866 5.32024C28.9286 5.0454 28.948 4.27975 28.1165 4.27975C27.285 4.27975 27.3043 5.10429 27.2657 5.24172C27.2463 5.32025 27.111 5.83067 26.7629 5.86993C26.1248 5.92883 25.9508 5.63436 25.8154 5.37914C25.7574 5.22209 25.6607 4.77055 25.8154 4.41717C25.9508 4.08343 26.6469 3.92638 27.2463 3.86748C27.6137 3.82822 27.5944 3.16074 27.517 2.92515C27.4204 2.66994 27.2463 2.45398 27.2657 2.1595C27.3043 1.82576 27.5944 1.25644 28.2132 1.27607ZM28.0585 0C26.7242 0.0392638 26.2602 1.06012 26.1828 1.2368C26.1055 1.43312 26.0281 1.74724 25.9895 2.00245C25.9701 2.25767 26.1055 2.78773 26.0088 2.88589C25.9314 2.98404 25.5447 2.90552 25.1386 3.25889C24.6939 3.65153 24.5779 4.20122 24.5199 4.20122C24.4619 4.20122 24.4038 3.92637 24.1718 3.69079C23.9398 3.45521 23.7851 3.2589 23.553 3.18037L22.9149 2.98405C22.9149 2.98405 22.9149 2.13988 22.6829 1.66871C22.4508 1.21718 21.7547 0.588956 20.6912 0.608587C19.647 0.628219 19.0863 1.07975 18.7189 1.80613C18.3515 2.55215 18.6609 3.51411 18.6995 3.6319C18.6609 3.73006 18.3515 3.6908 17.9454 4.1227C17.578 4.4957 17.3266 5.18282 17.3266 5.18282C17.3266 5.18282 17.0559 4.75092 16.5532 4.45644C16.0891 4.20123 15.8377 4.31902 15.741 4.20122C15.683 4.16196 15.8184 3.73006 15.451 2.96442C14.9482 1.96319 13.8654 1.7865 13.0146 1.94356C12.5892 2.02208 12.1637 2.37546 12.1637 2.37546L15.7024 16.0393V20.7313L9.35993 15.2344C9.35993 15.2344 10.1527 14.3509 10.9069 13.1141C11.9704 11.3472 12.7632 10.6994 12.2411 10.189C11.6803 9.67852 9.45661 11.6221 8.10304 13.2712C7.60029 13.8994 2.24402 20.2012 2.32137 20.7705C2.39872 21.3399 5.85999 23.6957 6.36274 23.5386C6.82682 23.3816 7.58095 20.8883 7.58095 20.8883C7.58095 20.8883 8.21906 22.9497 8.18039 24.5205C8.12238 26.0911 7.77432 27.8184 6.80748 29.2515C6.59478 27.7598 5.95667 26.8564 4.98983 25.9926C3.57826 24.7362 1.66392 24.4025 1.68326 24.4614C2.30203 27.0331 2.72744 28.6626 2.32137 30.6653C1.89596 32.6678 0.0589787 33.669 0.000968646 37.7325C-0.0570414 41.7767 2.4954 45.3693 6.3434 46.135C10.1721 46.881 14.8322 46.5865 17.0366 46.4098C19.2603 46.2331 22.5669 45.8994 25.1773 46.665C26.2022 46.9791 27.7104 48 28.0972 48C28.5032 48 29.8761 46.881 31.4811 46.6258C34.1109 46.2135 36.7793 46.1939 39.4478 46.2528C42.1163 46.3117 44.7847 46.4491 47.4532 46.3509C50.6631 46.2331 53.2542 44.9963 54.8978 42.189C55.4586 41.227 56 40.0687 56 37.6736C56 35.2196 55.1492 33.865 54.7044 33.1193C54.2597 32.3926 53.3895 31.7251 53.4669 29.7816C53.5442 27.8577 54.047 25.3841 54.4144 24.4614C53.5249 24.5595 51.6686 25.3252 50.7404 26.2479C49.4642 27.5239 49.2128 29.4871 49.2128 29.4871C48.4587 28.6233 47.8593 25.9141 47.8399 24.8932C47.7819 23.146 48.362 20.8883 48.42 20.8883C48.478 20.8883 48.8454 22.0859 48.8454 22.0859C49.0195 22.4393 49.0968 23.2834 49.6962 23.4601C50.2763 23.6371 53.7183 21.3202 53.7183 20.8491C53.6989 19.946 49.6382 15.5288 48.3427 13.8012C47.0858 12.0736 44.398 9.67853 43.8566 10.1301C43.3151 10.5816 44.1079 11.6025 44.9588 12.8785L46.5444 15.2344L40.3179 20.7509L40.3373 15.784L43.9726 2.2184C43.9726 2.2184 42.3483 1.51165 41.5362 2.08098C40.1052 3.06257 40.3373 4.20122 40.3373 4.20122C40.3373 4.20122 39.8925 4.22086 39.3898 4.51534C38.9837 4.73129 38.8484 5.14356 38.713 5.16319C38.6743 5.16319 38.6357 4.67239 38.3263 4.24049C38.1136 3.92638 37.5915 3.57301 37.4561 3.57301C37.3981 3.35706 37.4948 2.96442 37.4561 2.7092C37.4174 2.43436 37.3981 2.02209 37.2821 1.7865C37.1854 1.57055 36.76 0.706744 35.4064 0.56932C34.0722 0.431897 33.3374 1.62944 33.2407 1.82576C33.1827 1.94355 33.1247 2.92515 33.086 3.00368C33.028 3.08221 32.6026 3.12147 32.2739 3.37669C31.7711 3.76933 31.6744 4.31902 31.6551 4.29939C31.6551 4.29939 31.4811 3.71043 31.1523 3.39632C30.8043 3.08221 30.3595 2.92515 30.3595 2.92515C30.3595 2.92515 30.3595 2.12025 30.3209 1.8454C30.3015 1.57055 30.2242 1.29571 30.1468 1.11902C30.0695 0.961964 29.6441 0.0196319 28.1745 0C28.1358 0 28.0972 0 28.0585 0Z" fill="#E40422"/>
</svg>
